if (_typeface_js && _typeface_js.loadFace) _typeface_js.loadFace({"glyphs":{"ợ":{"x_min":50.40625,"x_max":753.109375,"ha":771,"o":"m 386 -100 b 272 -207 319 -100 272 -144 b 386 -314 272 -269 319 -314 b 499 -207 451 -314 499 -269 b 386 -100 499 -144 451 -100 m 386 148 b 260 343 301 148 260 224 b 386 539 260 463 301 539 b 512 343 469 539 512 463 b 386 148 512 224 469 148 m 574 824 b 594 760 583 809 594 785 b 518 678 594 709 562 688 b 386 705 476 695 432 705 b 50 343 211 705 50 573 b 386 -17 50 114 211 -17 b 721 343 560 -17 721 114 b 618 610 721 459 680 549 b 753 774 696 632 753 685 b 712 885 753 820 733 860 l 574 824 "},"Ẩ":{"x_min":-7.828125,"x_max":804.671875,"ha":796,"o":"m 583 1041 b 744 1162 674 1048 744 1080 b 542 1273 744 1223 693 1269 l 522 1190 b 613 1144 592 1184 613 1170 b 568 1106 613 1120 593 1112 l 583 1041 m 390 1051 l 396 1051 l 468 975 l 613 975 l 482 1133 l 306 1133 l 174 975 l 318 975 l 390 1051 m 297 375 l 319 458 b 390 750 344 548 368 654 l 396 750 b 469 458 419 655 444 548 l 490 375 l 297 375 m 588 0 l 804 0 l 521 905 l 275 905 l -7 0 l 200 0 l 256 215 l 532 215 l 588 0 "},"₅":{"x_min":37.15625,"x_max":469.109375,"ha":522,"o":"m 37 -259 b 259 -369 85 -330 162 -369 b 469 -180 381 -369 469 -288 b 292 -4 469 -70 388 -4 b 228 -12 277 -4 252 -6 l 237 62 l 446 62 l 446 189 l 119 189 l 95 -80 l 159 -124 b 239 -92 185 -102 208 -92 b 321 -173 284 -92 321 -120 b 242 -255 321 -217 288 -255 b 127 -188 195 -255 162 -234 l 37 -259 "},"Ổ":{"x_min":64.25,"x_max":885.671875,"ha":950,"o":"m 474 -16 b 885 456 719 -16 885 161 b 474 922 885 751 719 922 b 64 456 230 922 64 752 b 474 -16 64 161 230 -16 m 474 159 b 273 456 351 159 273 275 b 474 745 273 637 351 745 b 675 456 598 745 675 637 b 474 159 675 275 598 159 m 666 1041 b 825 1162 755 1048 825 1080 b 623 1273 825 1223 774 1269 l 603 1190 b 694 1144 673 1184 694 1170 b 649 1106 694 1120 674 1112 l 666 1041 m 255 975 l 400 975 l 472 1051 l 477 1051 l 549 975 l 695 975 l 563 1133 l 387 1133 l 255 975 "},"ḫ":{"x_min":90.28125,"x_max":711.109375,"ha":793,"o":"m 90 0 l 294 0 l 294 465 b 422 532 338 508 370 532 b 506 401 480 532 506 501 l 506 0 l 711 0 l 711 427 b 497 705 711 600 647 705 b 284 611 404 705 336 657 l 294 734 l 294 973 l 90 973 l 90 0 m 406 -291 b 600 -98 536 -291 595 -199 l 486 -98 b 406 -180 480 -144 455 -180 b 327 -98 358 -180 333 -144 l 213 -98 b 406 -291 218 -199 277 -291 "},"◁":{"x_min":19.4375,"x_max":747.21875,"ha":822,"o":"m 306 391 l 615 545 l 615 236 l 306 391 m 747 775 l 744 775 l 19 394 l 19 388 l 744 6 l 747 6 l 747 775 "},"Ừ":{"x_min":101.296875,"x_max":994.625,"ha":949,"o":"m 565 975 l 452 1141 l 236 1141 l 402 975 l 565 975 m 814 1055 b 836 991 825 1038 836 1016 b 720 905 836 919 776 906 l 623 905 l 623 398 b 463 159 623 220 565 159 b 306 398 362 159 306 220 l 306 905 l 101 905 l 101 419 b 463 -16 101 115 229 -16 b 821 419 697 -16 821 115 l 821 830 b 994 1005 918 848 994 901 b 952 1116 994 1051 973 1091 l 814 1055 "},"̂":{"x_min":-214,"x_max":214,"ha":0,"o":"m -214 797 l -76 797 l -2 906 l 2 906 l 76 797 l 214 797 l 80 1005 l -80 1005 l -214 797 "},"Á":{"x_min":-8,"x_max":805,"ha":796,"o":"m 618 1141 l 401 1141 l 289 975 l 453 975 l 618 1141 m 297 375 l 319 458 b 390 750 345 548 368 654 l 396 750 b 470 458 420 655 445 548 l 490 375 l 297 375 m 588 0 l 805 0 l 521 905 l 275 905 l -8 0 l 200 0 l 256 215 l 532 215 l 588 0 "},"ĥ":{"x_min":-43.0625,"x_max":711.109375,"ha":793,"o":"m 90 0 l 294 0 l 294 465 b 422 532 338 508 370 532 b 506 401 480 532 506 501 l 506 0 l 711 0 l 711 427 b 497 705 711 600 647 705 b 284 611 404 705 336 657 l 294 734 l 294 973 l 90 973 l 90 0 m 113 1041 l 187 1125 l 193 1125 l 266 1041 l 423 1041 l 290 1208 l 90 1208 l -43 1041 l 113 1041 "},"»":{"x_min":74.5,"x_max":599.5,"ha":667,"o":"m 74 139 l 150 78 l 337 277 l 337 422 l 150 622 l 74 560 l 228 350 l 74 139 m 335 139 l 412 78 l 599 277 l 599 422 l 412 622 l 335 560 l 489 350 l 335 139 "},"Ḻ":{"x_min":106.9375,"x_max":669.453125,"ha":719,"o":"m 106 0 l 669 0 l 669 172 l 311 172 l 311 905 l 106 905 l 106 0 m 594 -131 l 211 -131 l 211 -262 l 594 -262 l 594 -131 "},"ˌ":{"x_min":20.828125,"x_max":184.71875,"ha":204,"o":"m 29 -88 l 20 -368 l 184 -368 l 176 -88 l 29 -88 "},"∆":{"x_min":46.890625,"x_max":855.234375,"ha":903,"o":"m 46 0 l 855 0 l 855 123 l 573 916 l 328 916 l 46 123 l 46 0 m 277 172 l 383 488 l 448 725 l 453 725 l 519 488 l 623 172 l 277 172 "},"ṟ":{"x_min":-1.390625,"x_max":554.171875,"ha":553,"o":"m 90 0 l 294 0 l 294 400 b 445 526 330 493 394 526 b 520 515 475 526 495 522 l 554 691 b 472 705 534 700 511 705 b 276 568 401 705 326 661 l 270 568 l 256 688 l 90 688 l 90 0 m 383 -131 l -1 -131 l -1 -262 l 383 -262 l 383 -131 "},"ỹ":{"x_min":17,"x_max":707,"ha":724,"o":"m 105 -100 l 69 -255 b 166 -269 97 -263 125 -269 b 468 -6 329 -269 402 -180 l 707 688 l 511 688 l 427 393 b 380 197 411 327 396 262 l 375 197 b 321 393 357 265 340 330 l 222 688 l 17 688 l 282 18 l 272 -18 b 151 -108 254 -72 219 -108 b 105 -100 136 -108 118 -102 m 140 798 l 244 798 b 293 861 254 844 269 861 b 457 798 333 861 383 798 b 601 986 530 798 586 861 l 497 986 b 448 925 486 941 472 925 b 284 986 408 925 358 986 b 140 798 211 986 154 925 "},"ţ":{"x_min":23.484375,"x_max":508.140625,"ha":532,"o":"m 391 -15 b 508 8 440 -11 478 -1 l 476 156 b 410 143 458 150 433 143 b 322 252 356 143 322 175 l 322 529 l 487 529 l 487 688 l 322 688 l 322 872 l 152 872 l 129 688 l 23 680 l 23 529 l 117 529 l 117 250 b 274 -6 117 118 162 22 l 224 -105 b 305 -163 287 -120 305 -140 b 191 -225 305 -200 256 -218 l 206 -306 b 452 -162 337 -300 452 -258 b 372 -59 452 -105 417 -75 l 391 -15 "},"«":{"x_min":67.671875,"x_max":591.171875,"ha":667,"o":"m 253 78 l 330 139 l 176 350 l 330 560 l 253 622 l 67 422 l 67 277 l 253 78 m 516 78 l 591 139 l 437 350 l 591 560 l 516 622 l 329 422 l 329 277 l 516 78 "},"ử":{"x_min":82.859375,"x_max":829.59375,"ha":789,"o":"m 331 773 b 524 916 435 780 524 822 b 289 1044 524 991 461 1038 l 267 941 b 377 895 346 937 377 922 b 314 854 377 869 349 859 l 331 773 m 650 838 b 671 775 660 823 671 800 b 558 688 671 702 611 691 l 495 688 l 495 233 b 373 156 454 179 424 156 b 287 287 313 156 287 188 l 287 688 l 82 688 l 82 261 b 296 -16 82 88 146 -16 b 513 95 391 -16 454 26 l 517 95 l 532 0 l 699 0 l 699 626 b 829 788 772 648 829 700 b 789 900 829 834 810 875 l 650 838 "},"í":{"x_min":79.171875,"x_max":398.609375,"ha":383,"o":"m 90 0 l 294 0 l 294 688 l 90 688 l 90 0 m 398 1005 l 201 1005 l 79 797 l 227 797 l 398 1005 "},"ņ":{"x_min":89.859375,"x_max":710.6875,"ha":794,"o":"m 89 0 l 294 0 l 294 465 b 421 531 338 508 370 531 b 506 401 480 531 506 501 l 506 0 l 710 0 l 710 427 b 496 705 710 600 646 705 b 275 601 403 705 334 656 l 270 601 l 256 688 l 89 688 l 89 0 m 355 -58 l 316 -133 b 375 -184 356 -144 375 -158 b 260 -236 375 -216 327 -229 l 275 -318 b 523 -175 407 -311 523 -269 b 355 -58 523 -105 478 -70 "},"ǜ":{"x_min":82.90625,"x_max":699.578125,"ha":789,"o":"m 82 261 b 296 -16 82 88 146 -16 b 513 95 391 -16 455 26 l 517 95 l 532 0 l 699 0 l 699 688 l 495 688 l 495 233 b 373 156 455 179 424 156 b 287 287 313 156 287 188 l 287 688 l 82 688 l 82 261 m 374 1177 l 199 1177 l 359 1023 l 489 1023 l 374 1177 m 532 793 b 619 877 582 793 619 830 b 532 963 619 926 582 963 b 446 877 482 963 446 926 b 532 793 446 830 482 793 m 257 793 b 344 877 307 793 344 830 b 257 963 344 926 307 963 b 171 877 207 963 171 926 b 257 793 171 830 207 793 "},"µ":{"x_min":89.84375,"x_max":706.515625,"ha":796,"o":"m 89 -278 l 294 -278 l 294 -100 l 281 24 b 367 -5 305 0 334 -5 b 519 95 428 -5 484 28 l 524 95 l 539 0 l 706 0 l 706 688 l 502 688 l 502 233 b 378 156 462 178 430 156 b 294 287 320 156 294 188 l 294 688 l 89 688 l 89 -278 "},"ỳ":{"x_min":17,"x_max":707,"ha":724,"o":"m 105 -100 l 69 -255 b 166 -269 97 -263 125 -269 b 468 -6 329 -269 402 -180 l 707 688 l 511 688 l 427 393 b 380 197 411 327 396 262 l 375 197 b 321 393 357 265 340 330 l 222 688 l 17 688 l 282 18 l 272 -18 b 151 -108 254 -72 219 -108 b 105 -100 136 -108 118 -102 m 334 797 l 484 797 l 361 1005 l 164 1005 l 334 797 "},"M":{"x_min":107.4375,"x_max":951.234375,"ha":1058,"o":"m 107 0 l 294 0 l 294 331 b 269 640 294 420 279 552 l 275 640 l 347 430 l 486 79 l 568 79 l 706 430 l 781 640 l 787 640 b 760 331 777 552 760 420 l 760 0 l 951 0 l 951 905 l 736 905 l 588 498 l 534 340 l 529 340 l 475 498 l 324 905 l 107 905 l 107 0 "},"Ḏ":{"x_min":106.9375,"x_max":816.671875,"ha":882,"o":"m 106 0 l 373 0 b 816 456 638 0 816 145 b 362 905 816 768 638 905 l 106 905 l 106 0 m 311 165 l 311 740 l 350 740 b 606 456 504 740 606 673 b 350 165 606 240 504 165 l 311 165 m 626 -131 l 241 -131 l 241 -262 l 626 -262 l 626 -131 "},"ũ":{"x_min":82.9375,"x_max":700.0625,"ha":789,"o":"m 82 261 b 296 -16 82 88 146 -16 b 513 95 391 -16 455 26 l 518 95 l 533 0 l 700 0 l 700 688 l 495 688 l 495 233 b 373 156 455 179 424 156 b 287 287 313 156 287 188 l 287 688 l 82 688 l 82 261 m 164 798 l 269 798 b 317 861 280 844 294 861 b 481 798 359 861 408 798 b 626 986 555 798 612 861 l 522 986 b 473 925 511 941 497 925 b 309 986 433 925 383 986 b 164 798 235 986 180 925 "},"ŭ":{"x_min":83.328125,"x_max":700,"ha":789,"o":"m 83 261 b 297 -16 83 88 147 -16 b 513 95 391 -16 455 26 l 518 95 l 533 0 l 700 0 l 700 688 l 495 688 l 495 233 b 373 156 455 179 425 156 b 287 287 313 156 287 188 l 287 688 l 83 688 l 83 261 m 395 797 b 588 990 525 797 584 890 l 475 990 b 395 909 469 945 444 909 b 316 990 347 909 322 945 l 202 990 b 395 797 206 890 266 797 "},"₍":{"x_min":87.5,"x_max":323.609375,"ha":372,"o":"m 213 -478 l 323 -433 b 229 -80 261 -319 229 -205 b 323 270 229 42 261 158 l 213 315 b 87 -80 133 192 87 84 b 213 -478 87 -247 133 -355 "},"―":{"x_min":59.71875,"x_max":1051.390625,"ha":1111,"o":"m 59 286 l 1051 286 l 1051 416 l 59 416 l 59 286 "},"Ə":{"x_min":71,"x_max":876.5625,"ha":940,"o":"m 666 366 b 469 150 644 225 568 150 b 279 366 368 150 290 222 l 666 366 m 252 669 b 450 754 301 713 365 754 b 671 516 579 754 655 670 l 75 516 b 71 448 72 493 71 469 b 469 -16 71 155 232 -16 b 876 454 707 -16 876 158 b 475 922 876 750 709 922 b 158 809 334 922 230 875 l 252 669 "},"{":{"x_min":43.0625,"x_max":413.890625,"ha":478,"o":"m 387 -102 b 313 -5 330 -102 313 -81 b 319 220 313 69 319 136 b 216 383 319 326 286 366 l 216 388 b 319 551 286 405 319 445 b 313 777 319 636 313 702 b 387 875 313 854 330 875 l 413 875 l 413 983 l 326 983 b 148 786 204 983 148 936 b 162 548 148 687 162 636 b 43 445 162 500 133 448 l 43 326 b 162 223 133 323 162 272 b 148 -13 162 136 148 84 b 326 -211 148 -163 204 -211 l 413 -211 l 413 -102 l 387 -102 "},"¼":{"x_min":64.21875,"x_max":1111.4375,"ha":1124,"o":"m 339 363 l 339 905 l 219 905 b 64 845 173 873 139 856 l 64 752 l 187 752 l 187 363 l 339 363 m 747 922 l 258 -16 l 376 -16 l 864 922 l 747 922 m 787 218 l 844 330 l 900 437 l 905 437 l 898 275 l 898 218 l 787 218 m 1111 218 l 1030 218 l 1030 541 l 844 541 l 648 195 l 648 120 l 898 120 l 898 0 l 1030 0 l 1030 120 l 1111 120 l 1111 218 "},"Ê":{"x_min":106.9375,"x_max":687.5,"ha":761,"o":"m 106 0 l 687 0 l 687 172 l 311 172 l 311 380 l 619 380 l 619 551 l 311 551 l 311 733 l 673 733 l 673 905 l 106 905 l 106 0 m 323 975 l 397 1059 l 402 1059 l 477 975 l 633 975 l 500 1141 l 301 1141 l 168 975 l 323 975 "},")":{"x_min":66.671875,"x_max":377.78125,"ha":478,"o":"m 66 -196 l 194 -249 b 377 385 311 -58 377 141 b 194 1020 377 629 311 829 l 66 967 b 213 385 169 786 213 582 b 66 -196 213 188 169 -15 "},"ᶻ":{"x_min":35,"x_max":410,"ha":433,"o":"m 35 363 l 410 363 l 410 475 l 214 475 l 404 743 l 404 820 l 58 820 l 58 709 l 225 709 l 35 440 l 35 363 "},"a":{"x_min":64.953125,"x_max":656.625,"ha":742,"o":"m 64 191 b 269 -16 64 75 144 -16 b 470 70 346 -16 412 19 l 474 70 l 489 0 l 656 0 l 656 394 b 383 705 656 605 559 705 b 88 615 274 705 176 668 l 160 480 b 344 543 227 519 285 543 b 452 443 417 543 448 504 b 64 191 180 415 64 336 m 259 206 b 452 320 259 259 306 301 l 452 200 b 338 141 416 163 385 141 b 259 206 289 141 259 162 "},"Ę":{"x_min":106.828125,"x_max":716.546875,"ha":761,"o":"m 106 0 l 520 0 b 411 -179 473 -29 411 -94 b 570 -309 411 -262 481 -309 b 716 -261 619 -309 680 -288 l 669 -158 b 619 -177 655 -168 637 -177 b 561 -125 590 -177 561 -161 b 680 0 561 -63 616 -2 l 687 0 l 687 172 l 311 172 l 311 380 l 619 380 l 619 551 l 311 551 l 311 733 l 673 733 l 673 905 l 106 905 l 106 0 "},"Z":{"x_min":50.171875,"x_max":705.734375,"ha":751,"o":"m 50 0 l 705 0 l 705 172 l 301 172 l 701 781 l 701 905 l 87 905 l 87 733 l 450 733 l 50 123 l 50 0 "},"⁸":{"x_min":52.78125,"x_max":468.0625,"ha":522,"o":"m 188 763 b 236 843 188 793 205 822 b 333 761 290 816 333 804 b 261 694 333 725 301 694 b 188 763 219 694 188 725 m 283 941 b 204 1016 238 959 204 977 b 259 1066 204 1045 229 1066 b 318 1011 293 1066 318 1045 b 283 941 318 988 306 963 m 52 748 b 261 594 52 663 138 594 b 468 750 381 594 468 663 b 370 895 468 818 425 866 l 370 901 b 451 1020 413 926 451 969 b 261 1169 451 1113 368 1169 b 72 1020 156 1169 72 1113 b 152 894 72 965 105 927 l 152 888 b 52 748 102 861 52 811 "},"k":{"x_min":90.28125,"x_max":752.78125,"ha":761,"o":"m 90 0 l 288 0 l 288 169 l 376 268 l 531 0 l 752 0 l 493 405 l 734 688 l 512 688 l 294 415 l 288 415 l 288 973 l 90 973 l 90 0 "},"Ù":{"x_min":101.390625,"x_max":820.828125,"ha":924,"o":"m 101 419 b 463 -16 101 115 229 -16 b 820 419 697 -16 820 115 l 820 905 l 623 905 l 623 398 b 463 159 623 220 565 159 b 306 398 362 159 306 220 l 306 905 l 101 905 l 101 419 m 402 975 l 565 975 l 452 1141 l 236 1141 l 402 975 "},"ᵗ":{"x_min":16.671875,"x_max":347.21875,"ha":360,"o":"m 79 534 b 240 352 79 426 125 352 b 347 369 287 352 320 361 l 322 470 b 280 463 308 465 294 463 b 223 536 247 463 223 484 l 223 709 l 330 709 l 330 820 l 223 820 l 223 940 l 102 940 l 86 820 l 16 815 l 16 709 l 79 709 l 79 534 "},"Ů":{"x_min":101.390625,"x_max":820.828125,"ha":924,"o":"m 101 419 b 463 -16 101 115 229 -16 b 820 419 697 -16 820 115 l 820 905 l 623 905 l 623 398 b 463 159 623 220 565 159 b 306 398 362 159 306 220 l 306 905 l 101 905 l 101 419 m 461 968 b 618 1104 554 968 618 1020 b 461 1240 618 1186 554 1240 b 305 1104 368 1240 305 1186 b 461 968 305 1020 368 968 m 461 1044 b 404 1104 430 1044 404 1066 b 461 1163 404 1140 430 1163 b 518 1104 493 1163 518 1140 b 461 1044 518 1066 493 1044 "},"¢":{"x_min":83.328125,"x_max":676.390625,"ha":733,"o":"m 381 252 b 281 426 316 280 281 343 b 381 600 281 509 315 571 l 381 252 m 594 286 b 494 237 566 263 533 244 l 494 615 b 573 577 520 612 545 600 l 666 702 b 494 780 626 744 566 773 l 494 909 l 381 909 l 381 775 b 83 426 209 746 83 622 b 381 75 83 225 201 98 l 381 -56 l 494 -56 l 494 75 b 676 156 556 83 623 111 l 594 286 "},"ē":{"x_min":49.625,"x_max":666.9375,"ha":719,"o":"m 49 344 b 397 -16 49 116 200 -16 b 641 61 479 -16 571 12 l 574 184 b 425 138 524 154 476 138 b 246 288 334 138 264 184 l 658 288 b 666 375 662 305 666 338 b 374 705 666 562 569 705 b 49 344 209 705 49 568 m 245 415 b 378 550 259 506 314 550 b 493 415 460 550 493 494 l 245 415 m 182 822 l 565 822 l 565 951 l 182 951 l 182 822 "},"Ẹ":{"x_min":106.9375,"x_max":687.5,"ha":761,"o":"m 106 0 l 687 0 l 687 172 l 311 172 l 311 380 l 619 380 l 619 551 l 311 551 l 311 733 l 673 733 l 673 905 l 106 905 l 106 0 m 409 -313 b 522 -206 475 -313 522 -269 b 409 -100 522 -144 475 -100 b 295 -206 343 -100 295 -144 b 409 -313 295 -269 343 -313 "},"≠":{"x_min":47,"x_max":686,"ha":733,"o":"m 72 55 l 201 55 l 301 225 l 686 225 l 686 368 l 380 368 l 481 548 l 686 548 l 686 691 l 562 691 l 662 861 l 531 861 l 431 691 l 47 691 l 47 548 l 352 548 l 251 368 l 47 368 l 47 225 l 170 225 l 72 55 "},"¥":{"x_min":16.671875,"x_max":716.671875,"ha":733,"o":"m 16 881 l 220 475 l 51 475 l 51 377 l 263 377 l 263 301 l 51 301 l 51 204 l 263 204 l 263 0 l 468 0 l 468 204 l 681 204 l 681 301 l 468 301 l 468 377 l 681 377 l 681 475 l 512 475 l 716 881 l 511 881 l 441 697 b 372 515 418 637 395 576 l 366 515 b 297 697 341 575 319 636 l 226 881 l 16 881 "},"ƀ":{"x_min":-4.171875,"x_max":741.671875,"ha":793,"o":"m 294 448 b 412 511 333 491 370 511 b 531 338 494 511 531 452 b 404 150 531 205 475 150 b 294 194 369 150 330 161 l 294 448 m 294 706 l 294 772 l 529 772 l 529 870 l 294 870 l 294 973 l 90 973 l 90 869 l -4 862 l -4 772 l 90 772 l 90 0 l 250 0 l 266 72 l 272 72 b 451 -16 326 13 390 -16 b 741 343 600 -16 741 113 b 470 677 741 545 637 677 b 288 601 406 677 341 648 l 294 706 "},"Ĥ":{"x_min":107.484375,"x_max":829.71875,"ha":936,"o":"m 107 0 l 311 0 l 311 377 l 624 377 l 624 0 l 829 0 l 829 905 l 624 905 l 624 556 l 311 556 l 311 905 l 107 905 l 107 0 m 390 975 l 464 1059 l 469 1059 l 543 975 l 700 975 l 567 1141 l 367 1141 l 233 975 l 390 975 "},"U":{"x_min":101.390625,"x_max":820.828125,"ha":924,"o":"m 101 419 b 463 -16 101 115 229 -16 b 820 419 697 -16 820 115 l 820 905 l 623 905 l 623 398 b 463 159 623 220 565 159 b 306 398 362 159 306 220 l 306 905 l 101 905 l 101 419 "},"Ñ":{"x_min":106.5625,"x_max":816.265625,"ha":924,"o":"m 106 0 l 301 0 l 301 320 b 276 648 301 427 284 548 l 281 648 l 370 451 l 606 0 l 816 0 l 816 905 l 621 905 l 621 586 b 646 255 621 479 638 351 l 641 255 l 552 455 l 316 905 l 106 905 l 106 0 m 549 976 b 699 1165 623 976 684 1038 l 595 1165 b 541 1102 584 1119 564 1102 b 374 1165 499 1102 449 1165 b 226 976 302 1165 239 1102 l 330 976 b 384 1038 339 1022 360 1038 b 549 976 426 1038 476 976 "},"F":{"x_min":106.9375,"x_max":677.78125,"ha":728,"o":"m 106 0 l 311 0 l 311 351 l 625 351 l 625 523 l 311 523 l 311 733 l 677 733 l 677 905 l 106 905 l 106 0 "},"ả":{"x_min":64.953125,"x_max":656.625,"ha":742,"o":"m 64 191 b 269 -16 64 75 144 -16 b 470 70 346 -16 412 19 l 474 70 l 489 0 l 656 0 l 656 394 b 383 705 656 605 559 705 b 88 615 274 705 176 668 l 160 480 b 344 543 227 519 285 543 b 452 443 417 543 448 504 b 64 191 180 415 64 336 m 259 206 b 452 320 259 259 306 301 l 452 200 b 338 141 416 163 385 141 b 259 206 289 141 259 162 m 339 773 b 534 916 445 780 534 822 b 299 1044 534 991 471 1038 l 276 941 b 387 895 356 937 387 922 b 324 854 387 869 359 859 l 339 773 "},"∕":{"x_min":-236.9375,"x_max":370,"ha":133,"o":"m -118 -16 l 370 922 l 251 922 l -236 -16 l -118 -16 "},"ờ":{"x_min":50.171875,"x_max":753.109375,"ha":771,"o":"m 498 796 l 375 1005 l 177 1005 l 350 796 l 498 796 m 386 148 b 259 343 301 148 259 224 b 386 539 259 463 301 539 b 512 343 469 539 512 463 b 386 148 512 224 469 148 m 574 824 b 594 760 583 809 594 785 b 518 678 594 709 562 688 b 386 705 476 695 432 705 b 50 343 211 705 50 573 b 386 -17 50 114 211 -17 b 721 343 560 -17 721 114 b 618 610 721 459 680 549 b 753 774 696 632 753 685 b 712 885 753 820 733 860 l 574 824 "},"å":{"x_min":64.953125,"x_max":656.625,"ha":742,"o":"m 64 191 b 269 -16 64 75 144 -16 b 470 70 346 -16 412 19 l 474 70 l 489 0 l 656 0 l 656 394 b 383 705 656 605 559 705 b 88 615 274 705 176 668 l 160 480 b 344 543 227 519 285 543 b 452 443 417 543 448 504 b 64 191 180 415 64 336 m 259 206 b 452 320 259 259 306 301 l 452 200 b 338 141 416 163 385 141 b 259 206 289 141 259 162 m 389 761 b 545 902 483 761 545 816 b 389 1044 545 988 483 1044 b 233 902 296 1044 233 988 b 389 761 233 816 296 761 m 389 837 b 333 902 358 837 333 863 b 389 968 333 941 358 968 b 445 902 420 968 445 941 b 389 837 445 863 420 837 "},"0":{"x_min":51.390625,"x_max":681.953125,"ha":733,"o":"m 366 -16 b 681 444 555 -16 681 144 b 366 898 681 744 555 898 b 51 444 177 898 51 744 b 366 -16 51 144 177 -16 m 366 141 b 244 444 298 141 244 204 b 366 740 244 686 298 740 b 488 444 436 740 488 686 b 366 141 488 204 436 141 "},"ō":{"x_min":50,"x_max":720.828125,"ha":771,"o":"m 50 344 b 386 -16 50 115 211 -16 b 720 344 559 -16 720 115 b 386 705 720 573 559 705 b 50 344 211 705 50 573 m 259 344 b 386 540 259 463 301 540 b 512 344 469 540 512 463 b 386 148 512 225 469 148 b 259 344 301 148 259 225 m 194 822 l 577 822 l 577 951 l 194 951 l 194 822 "},"”":{"x_min":98.609375,"x_max":669.453125,"ha":746,"o":"m 143 489 b 341 786 276 554 341 655 b 211 968 341 901 295 968 b 104 854 148 968 104 923 b 211 753 104 791 151 753 b 223 754 215 753 219 753 b 98 578 223 671 181 619 l 143 489 m 472 489 b 669 786 605 554 669 655 b 538 968 669 901 625 968 b 431 854 477 968 431 923 b 538 753 431 791 480 753 b 552 754 543 753 548 753 b 427 578 552 671 511 619 l 472 489 "},"ö":{"x_min":50,"x_max":720.828125,"ha":771,"o":"m 50 344 b 386 -16 50 115 211 -16 b 720 344 559 -16 720 115 b 386 705 720 573 559 705 b 50 344 211 705 50 573 m 259 344 b 386 540 259 463 301 540 b 512 344 469 540 512 463 b 386 148 512 225 469 148 b 259 344 301 148 259 225 m 247 793 b 344 890 305 793 344 834 b 247 986 344 944 305 986 b 151 890 190 986 151 944 b 247 793 151 834 190 793 m 523 793 b 620 890 580 793 620 834 b 523 986 620 944 580 986 b 426 890 466 986 426 944 b 523 793 426 834 466 793 "},"ć":{"x_min":50,"x_max":619.4375,"ha":649,"o":"m 50 344 b 390 -16 50 115 198 -16 b 619 69 465 -16 552 11 l 537 198 b 413 148 504 172 463 148 b 259 344 325 148 259 225 b 420 540 259 463 322 540 b 516 500 452 540 483 527 l 609 626 b 408 705 563 673 493 705 b 50 344 218 705 50 573 m 611 1005 l 412 1005 l 290 797 l 438 797 l 611 1005 "},"þ":{"x_min":90.28125,"x_max":741.671875,"ha":796,"o":"m 294 -54 l 288 48 b 451 -16 336 6 384 -16 b 741 355 600 -16 741 119 b 461 705 741 568 634 705 b 288 637 398 705 337 679 l 294 734 l 294 973 l 90 973 l 90 -255 l 294 -255 l 294 -54 m 294 194 l 294 476 b 412 539 334 519 370 539 b 531 352 494 539 531 476 b 404 149 531 211 475 149 b 294 194 369 149 330 161 "},"]":{"x_min":63.890625,"x_max":356.9375,"ha":478,"o":"m 63 -102 l 63 -211 l 356 -211 l 356 983 l 63 983 l 63 875 l 205 875 l 205 -102 l 63 -102 "},"ᵍ":{"x_min":32.453125,"x_max":485.234375,"ha":501,"o":"m 149 309 b 172 349 149 324 157 337 b 235 343 192 343 214 343 l 281 343 b 347 310 325 343 347 337 b 247 259 347 281 307 259 b 149 309 188 259 149 275 m 32 285 b 224 170 32 203 117 170 b 485 335 386 170 485 239 b 308 452 485 419 425 452 l 235 452 b 167 483 185 452 167 461 b 182 513 167 497 172 505 b 236 506 204 506 221 506 b 419 659 336 506 419 555 b 407 715 419 681 414 704 l 478 715 l 478 820 l 310 820 b 236 832 289 829 263 832 b 43 665 135 832 43 776 b 106 547 43 612 72 569 l 106 541 b 54 456 74 520 54 488 b 96 380 54 419 71 396 l 96 374 b 32 285 54 353 32 324 m 236 593 b 176 665 201 593 176 618 b 236 736 176 712 201 736 b 296 665 271 736 296 712 b 236 593 296 618 271 593 "},"′":{"x_min":110.671875,"x_max":344,"ha":417,"o":"m 110 493 l 242 493 l 307 751 l 344 952 l 139 952 l 110 493 "},"Ǒ":{"x_min":64.234375,"x_max":886.453125,"ha":950,"o":"m 475 -16 b 886 456 719 -16 886 161 b 475 922 886 751 719 922 b 64 456 230 922 64 752 b 475 -16 64 161 230 -16 m 475 159 b 273 456 351 159 273 275 b 475 745 273 637 351 745 b 676 456 598 745 676 637 b 475 159 676 275 598 159 m 551 1141 l 478 1056 l 472 1056 l 398 1141 l 242 1141 l 375 975 l 575 975 l 708 1141 l 551 1141 "},"ẁ":{"x_min":32.9375,"x_max":1044,"ha":1078,"o":"m 205 0 l 438 0 l 499 275 b 534 476 512 338 521 402 l 539 476 b 577 275 552 402 563 338 l 639 0 l 878 0 l 1044 688 l 855 688 l 789 369 b 757 165 777 301 770 234 l 752 165 b 709 369 738 234 725 301 l 631 688 l 455 688 l 378 369 b 338 165 362 304 350 234 l 332 165 b 302 369 321 234 313 301 l 235 688 l 32 688 l 205 0 m 503 797 l 653 797 l 530 1005 l 332 1005 l 503 797 "},"ệ":{"x_min":49.765625,"x_max":667.9375,"ha":719,"o":"m 49 344 b 398 -16 49 116 201 -16 b 642 61 480 -16 572 12 l 574 184 b 426 138 524 154 477 138 b 246 288 334 138 265 184 l 659 288 b 667 375 663 305 667 338 b 374 705 667 562 570 705 b 49 344 209 705 49 568 m 245 415 b 378 550 259 506 315 550 b 494 415 460 550 494 494 l 245 415 m 160 797 l 298 797 l 371 906 l 377 906 l 451 797 l 588 797 l 455 1005 l 292 1005 l 160 797 m 373 -313 b 487 -206 440 -313 487 -269 b 373 -100 487 -144 440 -100 b 260 -206 308 -100 260 -144 b 373 -313 260 -269 308 -313 "},"ĭ":{"x_min":-1.390625,"x_max":384.71875,"ha":383,"o":"m 90 0 l 294 0 l 294 688 l 90 688 l 90 0 m 191 797 b 384 990 322 797 381 890 l 270 990 b 191 909 265 945 241 909 b 112 990 143 909 119 945 l -1 990 b 191 797 2 890 62 797 "},"8":{"x_min":58.328125,"x_max":677.78125,"ha":733,"o":"m 233 248 b 301 388 233 302 262 352 b 487 234 412 341 487 312 b 369 125 487 161 437 125 b 233 248 295 125 233 170 m 420 513 b 269 655 330 548 269 583 b 368 756 269 723 313 756 b 475 643 434 756 475 711 b 420 513 475 597 455 554 m 58 225 b 365 -16 58 81 188 -16 b 677 227 552 -16 677 88 b 525 458 677 344 609 412 l 525 463 b 640 656 586 504 640 572 b 372 898 640 802 533 898 b 90 655 208 898 90 805 b 208 447 90 562 140 498 l 208 441 b 58 225 125 397 58 331 "},"₵":{"x_min":75,"x_max":716.671875,"ha":733,"o":"m 398 155 b 280 443 322 190 280 290 b 398 725 280 588 320 688 l 398 155 m 602 216 b 511 148 575 181 545 159 l 511 734 b 591 680 541 726 568 706 l 704 790 b 511 897 652 850 583 887 l 511 1022 l 398 1022 l 398 891 b 75 436 205 856 75 694 b 398 -13 75 165 209 11 l 398 -152 l 511 -152 l 511 -11 b 716 111 590 2 659 44 l 602 216 "},"Ữ":{"x_min":101.265625,"x_max":994.625,"ha":949,"o":"m 594 1165 b 540 1102 583 1119 563 1102 b 373 1165 497 1102 448 1165 b 224 976 301 1165 238 1102 l 329 976 b 381 1038 338 1022 358 1038 b 548 976 424 1038 473 976 b 697 1165 620 976 683 1038 l 594 1165 m 814 1055 b 836 991 825 1038 836 1016 b 720 905 836 919 776 906 l 623 905 l 623 398 b 463 159 623 220 565 159 b 306 398 362 159 306 220 l 306 905 l 101 905 l 101 419 b 463 -16 101 115 229 -16 b 821 419 697 -16 821 115 l 821 830 b 994 1005 918 848 994 901 b 952 1116 994 1051 973 1091 l 814 1055 "},"R":{"x_min":107,"x_max":826.453125,"ha":856,"o":"m 311 743 l 416 743 b 582 623 523 743 582 712 b 416 488 582 534 523 488 l 311 488 l 311 743 m 826 0 l 620 362 b 782 623 718 405 782 490 b 433 905 782 838 625 905 l 107 905 l 107 0 l 311 0 l 311 326 l 423 326 l 597 0 l 826 0 "},"Ḇ":{"x_min":106.9375,"x_max":794.453125,"ha":840,"o":"m 106 0 l 443 0 b 794 266 638 0 794 81 b 598 479 794 387 727 455 l 598 484 b 750 680 704 512 750 600 b 416 905 750 854 604 905 l 106 905 l 106 0 m 311 540 l 311 747 l 408 747 b 550 651 504 747 550 719 b 406 540 550 583 506 540 l 311 540 m 311 158 l 311 395 l 426 395 b 594 281 538 395 594 361 b 426 158 594 200 537 158 l 311 158 m 627 -131 l 244 -131 l 244 -262 l 627 -262 l 627 -131 "},"Ż":{"x_min":49.984375,"x_max":705.546875,"ha":751,"o":"m 49 0 l 705 0 l 705 172 l 301 172 l 701 781 l 701 905 l 87 905 l 87 733 l 449 733 l 49 123 l 49 0 m 393 973 b 511 1080 461 973 511 1018 b 393 1187 511 1143 461 1187 b 274 1080 324 1187 274 1143 b 393 973 274 1018 324 973 "},"ħ":{"x_min":-4.171875,"x_max":711.109375,"ha":793,"o":"m 294 706 l 294 772 l 529 772 l 529 870 l 294 870 l 294 973 l 90 973 l 90 869 l -4 862 l -4 772 l 90 772 l 90 0 l 294 0 l 294 437 b 422 504 338 480 370 504 b 506 373 480 504 506 473 l 506 0 l 711 0 l 711 400 b 497 677 711 572 647 677 b 284 583 404 677 336 629 l 294 706 "},"õ":{"x_min":50.140625,"x_max":721.171875,"ha":771,"o":"m 50 344 b 386 -16 50 115 211 -16 b 721 344 560 -16 721 115 b 386 705 721 573 560 705 b 50 344 211 705 50 573 m 259 344 b 386 540 259 463 301 540 b 512 344 469 540 512 463 b 386 148 512 225 469 148 b 259 344 301 148 259 225 m 155 798 l 259 798 b 308 861 269 844 283 861 b 472 798 348 861 398 798 b 615 986 546 798 601 861 l 511 986 b 464 925 501 941 487 925 b 298 986 422 925 372 986 b 155 798 226 986 169 925 "},"◉":{"x_min":55.5625,"x_max":616.671875,"ha":674,"o":"m 336 268 b 429 363 388 268 429 309 b 336 461 429 419 388 461 b 244 363 284 461 244 419 b 336 268 244 309 284 268 m 336 80 b 616 363 494 80 616 197 b 336 648 616 530 494 648 b 55 363 177 648 55 530 b 336 80 55 197 177 80 m 336 183 b 163 363 240 183 163 256 b 336 544 163 472 240 544 b 508 363 433 544 508 472 b 336 183 508 256 433 183 "},"ᶜ":{"x_min":33.328125,"x_max":416.671875,"ha":435,"o":"m 259 352 b 416 405 333 352 386 379 l 358 497 b 277 466 338 480 316 466 b 180 591 219 466 180 516 b 279 718 180 666 222 718 b 344 691 305 718 325 708 l 411 784 b 266 831 387 806 336 831 b 33 591 141 831 33 741 b 259 352 33 440 129 352 "},"ẫ":{"x_min":64.953125,"x_max":657.046875,"ha":742,"o":"m 64 191 b 269 -16 64 75 144 -16 b 471 70 347 -16 412 19 l 475 70 l 490 0 l 657 0 l 657 394 b 383 705 657 605 559 705 b 88 615 275 705 176 668 l 160 480 b 344 543 227 519 285 543 b 453 443 418 543 449 504 b 64 191 180 415 64 336 m 259 206 b 453 320 259 259 306 301 l 453 200 b 338 141 416 163 386 141 b 259 206 290 141 259 162 m 184 795 l 318 795 l 387 877 l 393 877 l 461 795 l 594 795 l 482 950 l 297 950 l 184 795 m 274 1000 b 324 1052 283 1037 299 1052 b 467 1000 362 1052 393 1000 b 594 1158 528 1000 581 1050 l 504 1158 b 456 1105 496 1120 479 1105 b 313 1158 416 1105 387 1158 b 186 1000 251 1158 198 1109 l 274 1000 "},"Ṡ":{"x_min":48.578125,"x_max":724.96875,"ha":772,"o":"m 48 113 b 383 -16 140 27 265 -16 b 724 263 599 -16 724 113 b 545 509 724 391 655 465 l 429 556 b 291 663 351 588 291 608 b 406 745 291 715 336 745 b 594 673 479 745 534 719 l 698 802 b 406 922 620 880 511 922 b 84 652 218 922 84 802 b 266 405 84 520 173 443 l 384 355 b 515 247 463 322 515 304 b 388 159 515 193 473 159 b 165 254 313 159 230 198 l 48 113 m 404 973 b 522 1080 473 973 522 1018 b 404 1187 522 1143 473 1187 b 286 1080 336 1187 286 1143 b 404 973 286 1018 336 973 "},"˙":{"x_min":272.21875,"x_max":498.609375,"ha":771,"o":"m 386 790 b 498 897 451 790 498 834 b 386 1004 498 959 451 1004 b 272 897 319 1004 272 959 b 386 790 272 834 319 790 "},"ê":{"x_min":49.765625,"x_max":667.9375,"ha":719,"o":"m 49 344 b 398 -16 49 116 201 -16 b 642 61 480 -16 572 12 l 574 184 b 426 138 524 154 477 138 b 246 288 334 138 265 184 l 659 288 b 667 375 663 305 667 338 b 374 705 667 562 570 705 b 49 344 209 705 49 568 m 245 415 b 378 550 259 506 315 550 b 494 415 460 550 494 494 l 245 415 m 160 797 l 298 797 l 371 906 l 377 906 l 451 797 l 588 797 l 455 1005 l 292 1005 l 160 797 "},"″":{"x_min":110.953125,"x_max":672,"ha":746,"o":"m 110 493 l 242 493 l 308 751 l 344 952 l 140 952 l 110 493 m 438 493 l 572 493 l 637 751 l 672 952 l 469 952 l 438 493 "},"„":{"x_min":98.609375,"x_max":669.453125,"ha":746,"o":"m 143 -234 b 341 62 276 -169 341 -68 b 211 244 341 177 295 244 b 104 130 148 244 104 199 b 211 29 104 67 151 29 b 223 30 215 29 219 29 b 98 -146 223 -52 181 -104 l 143 -234 m 472 -234 b 669 62 605 -169 669 -68 b 538 244 669 177 625 244 b 431 130 477 244 431 199 b 538 29 431 67 480 29 b 552 30 543 29 548 29 b 427 -146 552 -52 511 -104 l 472 -234 "},"Â":{"x_min":-8,"x_max":805,"ha":796,"o":"m 390 1059 l 396 1059 l 470 975 l 627 975 l 493 1141 l 293 1141 l 160 975 l 317 975 l 390 1059 m 297 375 l 319 458 b 390 750 345 548 368 654 l 396 750 b 470 458 420 655 445 548 l 490 375 l 297 375 m 588 0 l 805 0 l 521 905 l 275 905 l -8 0 l 200 0 l 256 215 l 532 215 l 588 0 "},"Į":{"x_min":58,"x_max":362.171875,"ha":418,"o":"m 106 0 l 160 0 b 58 -179 120 -29 58 -90 b 217 -309 58 -262 128 -309 b 362 -261 266 -309 327 -288 l 316 -158 b 264 -177 303 -168 284 -177 b 208 -125 237 -177 208 -161 b 310 0 208 -77 237 -30 l 310 905 l 106 905 l 106 0 "},"Ţ":{"x_min":34.5,"x_max":736.46875,"ha":772,"o":"m 487 0 l 487 733 l 736 733 l 736 905 l 34 905 l 34 733 l 283 733 l 283 0 l 331 0 l 278 -105 b 360 -163 341 -120 360 -140 b 245 -225 360 -200 312 -218 l 260 -306 b 505 -162 392 -300 505 -258 b 425 -59 505 -105 472 -75 l 450 0 l 487 0 "},"₎":{"x_min":48.609375,"x_max":284.71875,"ha":372,"o":"m 48 -433 l 159 -478 b 284 -80 238 -355 284 -247 b 159 315 284 84 238 192 l 48 270 b 143 -80 111 158 143 42 b 48 -433 143 -205 111 -319 "},"₄":{"x_min":48.609375,"x_max":511.109375,"ha":522,"o":"m 186 -134 l 244 -22 l 300 84 l 305 84 l 297 -77 l 297 -134 l 186 -134 m 511 -134 l 430 -134 l 430 188 l 244 188 l 48 -156 l 48 -231 l 297 -231 l 297 -352 l 430 -352 l 430 -231 l 511 -231 l 511 -134 "},"´":{"x_min":272,"x_max":593,"ha":771,"o":"m 593 1005 l 395 1005 l 272 797 l 420 797 l 593 1005 "},"ỏ":{"x_min":50,"x_max":720.828125,"ha":771,"o":"m 50 344 b 386 -16 50 115 211 -16 b 720 344 559 -16 720 115 b 386 705 720 573 559 705 b 50 344 211 705 50 573 m 259 344 b 386 540 259 463 301 540 b 512 344 469 540 512 463 b 386 148 512 225 469 148 b 259 344 301 148 259 225 m 336 773 b 529 916 441 780 529 822 b 295 1044 529 991 468 1038 l 272 941 b 383 895 352 937 383 922 b 320 854 383 869 355 859 l 336 773 "},"Ĉ":{"x_min":63.890625,"x_max":777.78125,"ha":808,"o":"m 63 447 b 490 -16 63 143 255 -16 b 777 116 602 -16 702 29 l 665 240 b 493 159 620 191 566 159 b 273 454 359 159 273 268 b 498 745 273 636 372 745 b 651 677 561 745 605 719 l 763 804 b 495 922 702 866 608 922 b 63 447 262 922 63 747 m 400 975 l 473 1059 l 479 1059 l 552 975 l 709 975 l 576 1141 l 376 1141 l 243 975 l 400 975 "},"Ờ":{"x_min":65.25,"x_max":911.4375,"ha":950,"o":"m 579 974 l 466 1141 l 249 1141 l 416 974 l 579 974 m 476 159 b 274 456 352 159 274 274 b 476 745 274 637 352 745 b 678 456 600 745 678 637 b 476 159 678 274 600 159 m 730 1027 b 753 963 741 1010 753 988 b 669 879 753 912 723 891 b 476 922 614 906 548 922 b 65 456 231 922 65 752 b 476 -16 65 161 231 -16 b 887 456 721 -16 887 161 b 764 810 887 610 842 730 b 911 977 853 835 911 887 b 869 1088 911 1023 892 1063 l 730 1027 "},"Ö":{"x_min":63.890625,"x_max":886.109375,"ha":950,"o":"m 475 -16 b 886 456 719 -16 886 161 b 475 922 886 751 719 922 b 63 456 230 922 63 752 b 475 -16 63 161 230 -16 m 475 159 b 273 456 351 159 273 275 b 475 745 273 637 351 745 b 676 456 598 745 676 637 b 475 159 676 275 598 159 m 337 972 b 434 1069 394 972 434 1013 b 337 1166 434 1125 394 1166 b 240 1069 280 1166 240 1125 b 337 972 240 1013 280 972 m 612 972 b 709 1069 669 972 709 1013 b 612 1166 709 1125 669 1166 b 515 1069 555 1166 515 1125 b 612 972 515 1013 555 972 "},"☑":{"x_min":102.78125,"x_max":1123.609375,"ha":1121,"o":"m 894 66 l 183 66 l 183 813 l 763 813 b 540 302 672 661 594 486 l 534 302 b 391 612 497 406 454 511 l 261 527 b 455 150 347 401 404 291 l 647 172 b 894 738 709 400 797 587 l 894 66 m 998 1129 b 843 937 945 1073 893 1009 l 206 937 l 102 847 l 102 -13 l 927 -13 l 1018 90 l 1018 906 b 1123 1019 1052 948 1088 986 l 998 1129 "},"ḏ":{"x_min":54.171875,"x_max":705.5625,"ha":796,"o":"m 54 344 b 336 -16 54 119 165 -16 b 519 68 402 -16 470 19 l 525 68 l 538 0 l 705 0 l 705 973 l 501 973 l 501 739 l 509 633 b 340 705 462 678 416 705 b 54 344 194 705 54 569 m 263 347 b 387 539 263 478 322 539 b 501 494 425 539 465 528 l 501 212 b 388 150 468 166 433 150 b 263 347 309 150 263 211 m 625 -131 l 241 -131 l 241 -262 l 625 -262 l 625 -131 "},"z":{"x_min":53.09375,"x_max":605.875,"ha":639,"o":"m 53 0 l 605 0 l 605 159 l 307 159 l 596 580 l 596 688 l 85 688 l 85 529 l 341 529 l 53 109 l 53 0 "},"™":{"x_min":5.515625,"x_max":915.15625,"ha":947,"o":"m 438 502 l 568 502 l 568 636 l 552 795 l 558 795 l 631 566 l 722 566 l 795 795 l 801 795 l 786 636 l 786 502 l 915 502 l 915 938 l 759 938 l 708 813 l 679 720 l 673 720 l 645 813 l 593 938 l 438 938 l 438 502 m 126 502 l 258 502 l 258 818 l 379 818 l 379 938 l 5 938 l 5 818 l 126 818 l 126 502 "},"ặ":{"x_min":64.953125,"x_max":656.625,"ha":742,"o":"m 64 191 b 269 -16 64 75 144 -16 b 470 70 346 -16 412 19 l 474 70 l 489 0 l 656 0 l 656 394 b 383 705 656 605 559 705 b 88 615 274 705 176 668 l 160 480 b 344 543 227 519 285 543 b 452 443 417 543 448 504 b 64 191 180 415 64 336 m 259 206 b 452 320 259 259 306 301 l 452 200 b 338 141 416 163 385 141 b 259 206 289 141 259 162 m 389 797 b 583 990 519 797 578 890 l 469 990 b 389 909 462 945 438 909 b 310 990 339 909 316 945 l 196 990 b 389 797 199 890 259 797 m 366 -313 b 478 -206 431 -313 478 -269 b 366 -100 478 -144 431 -100 b 252 -206 299 -100 252 -144 b 366 -313 252 -269 299 -313 "},"Ř":{"x_min":106.921875,"x_max":826.4375,"ha":856,"o":"m 530 975 l 663 1141 l 506 1141 l 433 1056 l 427 1056 l 354 1141 l 197 1141 l 330 975 l 530 975 m 311 743 l 416 743 b 582 623 523 743 582 712 b 416 488 582 534 523 488 l 311 488 l 311 743 m 826 0 l 620 362 b 782 623 718 405 782 490 b 433 905 782 838 625 905 l 106 905 l 106 0 l 311 0 l 311 326 l 423 326 l 597 0 l 826 0 "},"Ň":{"x_min":106.71875,"x_max":816.375,"ha":924,"o":"m 106 0 l 301 0 l 301 320 b 276 648 301 427 284 548 l 281 648 l 370 451 l 606 0 l 816 0 l 816 905 l 621 905 l 621 586 b 646 255 621 479 638 351 l 641 255 l 552 455 l 316 905 l 106 905 l 106 0 m 539 1141 l 464 1056 l 459 1056 l 385 1141 l 230 1141 l 363 975 l 562 975 l 695 1141 l 539 1141 "},"ừ":{"x_min":82.921875,"x_max":830.59375,"ha":789,"o":"m 492 797 l 370 1005 l 173 1005 l 344 797 l 492 797 m 651 838 b 672 775 661 823 672 800 b 559 688 672 702 612 691 l 495 688 l 495 233 b 373 156 455 179 424 156 b 287 287 313 156 287 188 l 287 688 l 82 688 l 82 261 b 296 -16 82 88 146 -16 b 513 95 391 -16 455 26 l 517 95 l 533 0 l 700 0 l 700 626 b 830 788 773 648 830 700 b 790 900 830 834 811 875 l 651 838 "},"Ợ":{"x_min":65.5625,"x_max":911.4375,"ha":950,"o":"m 475 -100 b 362 -207 408 -100 362 -144 b 475 -314 362 -269 408 -314 b 589 -207 541 -314 589 -269 b 475 -100 589 -144 541 -100 m 476 159 b 275 456 353 159 275 274 b 476 745 275 637 353 745 b 678 456 600 745 678 637 b 476 159 678 274 600 159 m 730 1027 b 753 963 741 1010 753 988 b 669 879 753 912 723 891 b 476 922 614 906 548 922 b 65 456 232 922 65 752 b 476 -16 65 161 232 -16 b 887 456 721 -16 887 161 b 764 810 887 610 842 730 b 911 977 853 835 911 887 b 869 1088 911 1023 892 1063 l 730 1027 "},"É":{"x_min":106.84375,"x_max":687.40625,"ha":761,"o":"m 106 0 l 687 0 l 687 172 l 311 172 l 311 380 l 619 380 l 619 551 l 311 551 l 311 733 l 673 733 l 673 905 l 106 905 l 106 0 m 624 1141 l 408 1141 l 297 975 l 459 975 l 624 1141 "},"ṅ":{"x_min":90.28125,"x_max":711.109375,"ha":794,"o":"m 90 0 l 294 0 l 294 465 b 422 531 338 508 370 531 b 506 401 480 531 506 501 l 506 0 l 711 0 l 711 427 b 497 705 711 600 647 705 b 276 601 404 705 334 656 l 270 601 l 256 688 l 90 688 l 90 0 m 427 790 b 540 897 494 790 540 834 b 427 1004 540 959 494 1004 b 313 897 361 1004 313 959 b 427 790 313 834 361 790 "},"³":{"x_min":36.59375,"x_max":467.140625,"ha":522,"o":"m 36 704 b 257 594 83 633 162 594 b 467 762 368 594 467 662 b 368 893 467 826 424 870 b 447 1018 418 922 447 961 b 258 1169 447 1112 358 1169 b 58 1076 174 1169 118 1140 l 143 1001 b 232 1055 168 1031 197 1055 b 300 997 274 1055 300 1033 b 190 930 300 951 257 930 l 190 844 b 319 773 278 844 319 820 b 242 708 319 731 285 708 b 126 775 196 708 160 729 l 36 704 "},"[":{"x_min":120.828125,"x_max":413.890625,"ha":478,"o":"m 120 -211 l 413 -211 l 413 -102 l 273 -102 l 273 875 l 413 875 l 413 983 l 120 983 l 120 -211 "},"‖":{"x_min":119.4375,"x_max":508.328125,"ha":628,"o":"m 119 -347 l 252 -347 l 252 1041 l 119 1041 l 119 -347 m 375 -347 l 508 -347 l 508 1041 l 375 1041 l 375 -347 "},"Ḗ":{"x_min":106.84375,"x_max":687.40625,"ha":761,"o":"m 106 0 l 687 0 l 687 172 l 311 172 l 311 380 l 619 380 l 619 551 l 311 551 l 311 733 l 673 733 l 673 905 l 106 905 l 106 0 m 295 1186 l 458 1186 l 622 1352 l 408 1352 l 295 1186 m 204 1000 l 595 1000 l 595 1129 l 204 1129 l 204 1000 "},"∏":{"x_min":111.109375,"x_max":875,"ha":986,"o":"m 111 -166 l 315 -166 l 315 704 l 670 704 l 670 -166 l 875 -166 l 875 881 l 111 881 l 111 -166 "},"Ḥ":{"x_min":106.9375,"x_max":829.171875,"ha":936,"o":"m 106 0 l 311 0 l 311 377 l 623 377 l 623 0 l 829 0 l 829 905 l 623 905 l 623 556 l 311 556 l 311 905 l 106 905 l 106 0 m 466 -313 b 579 -206 533 -313 579 -269 b 466 -100 579 -144 533 -100 b 354 -206 400 -100 354 -144 b 466 -313 354 -269 400 -313 "},"ḥ":{"x_min":90.28125,"x_max":711.109375,"ha":793,"o":"m 90 0 l 294 0 l 294 465 b 422 532 338 508 370 532 b 506 401 480 532 506 501 l 506 0 l 711 0 l 711 427 b 497 705 711 600 647 705 b 284 611 404 705 336 657 l 294 734 l 294 973 l 90 973 l 90 0 m 406 -313 b 520 -206 473 -313 520 -269 b 406 -99 520 -144 473 -99 b 294 -206 341 -99 294 -144 b 406 -313 294 -269 341 -313 "},"ˋ":{"x_min":-43.828125,"x_max":277,"ha":328,"o":"m 128 797 l 277 797 l 153 1005 l -43 1005 l 128 797 "},"ğ":{"x_min":46.046875,"x_max":719.65625,"ha":742,"o":"m 214 -85 b 251 -17 214 -60 226 -39 b 348 -25 273 -23 301 -25 l 419 -25 b 525 -80 487 -25 525 -37 b 366 -164 525 -127 458 -164 b 214 -85 275 -164 214 -137 m 46 -117 b 334 -292 46 -239 173 -292 b 719 -45 571 -292 719 -188 b 457 129 719 78 626 129 l 346 129 b 241 180 269 129 241 145 b 266 231 241 204 248 216 b 350 218 297 222 325 218 b 621 450 501 218 621 291 b 598 540 621 486 611 519 l 708 540 l 708 688 l 457 688 b 350 705 426 700 389 705 b 65 456 201 705 65 622 b 158 277 65 376 109 311 l 158 272 b 80 143 114 241 80 193 b 144 26 80 86 108 50 l 144 21 b 46 -117 80 -14 46 -60 m 350 341 b 255 456 296 341 255 380 b 350 568 255 530 296 568 b 444 456 404 568 444 529 b 350 341 444 380 404 341 m 347 797 b 540 990 478 797 537 890 l 426 990 b 347 909 421 945 397 909 b 268 990 298 909 275 945 l 154 990 b 347 797 158 890 218 797 "},"Ở":{"x_min":65.5625,"x_max":911.4375,"ha":950,"o":"m 426 959 b 619 1104 530 967 619 1008 b 386 1230 619 1177 558 1226 l 362 1129 b 472 1081 441 1123 472 1108 b 411 1040 472 1056 444 1047 l 426 959 m 476 159 b 275 456 353 159 275 274 b 476 745 275 637 353 745 b 678 456 600 745 678 637 b 476 159 678 274 600 159 m 730 1027 b 753 963 741 1010 753 988 b 669 879 753 912 723 891 b 476 922 614 906 548 922 b 65 456 232 922 65 752 b 476 -16 65 161 232 -16 b 887 456 721 -16 887 161 b 764 810 887 610 842 730 b 911 977 853 835 911 887 b 869 1088 911 1023 892 1063 l 730 1027 "},"ª":{"x_min":40.046875,"x_max":444.4375,"ha":499,"o":"m 180 353 b 309 410 233 353 276 376 l 315 410 l 329 364 l 444 364 l 444 626 b 256 832 444 765 374 832 b 55 771 184 832 116 807 l 106 676 b 231 718 151 701 194 718 b 300 657 276 718 295 697 b 40 492 117 640 40 589 b 180 353 40 415 94 353 m 229 461 b 177 503 197 461 177 476 b 300 574 177 536 208 564 l 300 497 b 229 461 276 475 256 461 "},"ﬀ":{"x_min":33.328125,"x_max":954.171875,"ha":911,"o":"m 954 965 b 816 990 923 976 875 990 b 563 725 631 990 563 870 l 563 688 l 329 688 l 329 720 b 411 815 329 786 363 815 b 491 800 448 815 469 809 l 529 951 b 386 976 497 963 444 976 b 125 719 198 976 125 861 l 125 687 l 33 680 l 33 529 l 125 529 l 125 0 l 329 0 l 329 529 l 563 529 l 563 0 l 768 0 l 768 529 l 891 529 l 891 688 l 768 688 l 768 730 b 847 829 768 801 797 829 b 918 815 869 829 894 823 l 954 965 "},"T":{"x_min":34.71875,"x_max":737.5,"ha":772,"o":"m 283 0 l 488 0 l 488 733 l 737 733 l 737 905 l 34 905 l 34 733 l 283 733 l 283 0 "},"ᵖ":{"x_min":57.578125,"x_max":497.859375,"ha":535,"o":"m 57 178 l 202 178 l 202 308 l 193 401 b 306 353 227 369 265 353 b 497 600 404 353 497 441 b 317 832 497 739 428 832 b 186 775 270 832 218 805 l 182 775 l 172 821 l 57 821 l 57 178 m 202 493 l 202 678 b 275 715 227 704 249 715 b 350 598 325 715 350 679 b 271 466 350 505 314 466 b 202 493 249 466 225 473 "},"š":{"x_min":28.828125,"x_max":576.015625,"ha":615,"o":"m 28 79 b 292 -16 98 22 202 -16 b 576 205 477 -16 576 80 b 389 412 576 331 477 380 b 255 500 319 438 255 455 b 333 554 255 534 280 554 b 478 495 381 554 428 531 l 570 618 b 327 705 510 662 432 705 b 63 490 167 705 63 618 b 245 287 63 376 162 319 b 385 193 316 259 385 238 b 298 134 385 156 359 134 b 120 206 239 134 183 159 l 28 79 m 245 797 l 408 797 l 541 1005 l 403 1005 l 330 895 l 324 895 l 251 1005 l 113 1005 l 245 797 "},"Þ":{"x_min":106.9375,"x_max":791.671875,"ha":857,"o":"m 106 0 l 311 0 l 311 170 l 437 170 b 791 477 629 170 791 263 b 437 768 791 697 633 768 l 311 768 l 311 905 l 106 905 l 106 0 m 311 333 l 311 605 l 425 605 b 591 477 533 605 591 572 b 425 333 591 383 537 333 l 311 333 "},"✓":{"x_min":10,"x_max":900,"ha":899,"o":"m 420 -5 b 900 846 532 393 712 670 l 775 955 b 319 124 586 763 418 456 l 314 124 b 140 471 268 239 212 357 l 10 387 b 229 -28 108 249 171 128 l 420 -5 "},"j":{"x_min":-70.828125,"x_max":312.5,"ha":386,"o":"m 91 -1 b 19 -112 91 -77 73 -112 b -34 -102 0 -112 -16 -108 l -70 -252 b 50 -272 -43 -263 -6 -272 b 295 4 237 -272 295 -145 l 295 688 l 91 688 l 91 -1 m 194 790 b 312 897 262 790 312 834 b 194 1002 312 959 262 1002 b 76 897 126 1002 76 959 b 194 790 76 834 126 790 "},"1":{"x_min":97.21875,"x_max":658.328125,"ha":733,"o":"m 97 0 l 658 0 l 658 165 l 493 165 l 493 881 l 343 881 b 123 801 280 844 219 819 l 123 675 l 288 675 l 288 165 l 97 165 l 97 0 "},"ℓ":{"x_min":13.890625,"x_max":659.71875,"ha":653,"o":"m 348 689 b 416 850 348 807 381 850 b 469 763 448 850 469 821 b 348 507 469 663 429 585 l 348 689 m 586 213 b 455 152 552 183 509 152 b 348 279 397 152 348 188 l 348 314 b 633 763 548 463 633 589 b 409 999 633 910 545 999 b 150 661 259 999 150 895 l 150 356 b 13 271 108 329 63 302 l 90 146 b 156 186 113 160 136 174 b 423 -17 186 50 297 -17 b 659 89 520 -17 598 35 l 586 213 "},"ᵈ":{"x_min":35.75,"x_max":477.421875,"ha":535,"o":"m 226 352 b 345 406 271 352 313 376 l 348 406 l 359 363 l 477 363 l 477 1005 l 332 1005 l 332 856 l 339 783 b 227 831 312 812 274 831 b 35 600 134 831 35 743 b 226 352 35 443 109 352 m 264 466 b 182 600 212 466 182 505 b 263 718 182 679 220 718 b 332 688 285 718 307 711 l 332 506 b 264 466 312 477 291 466 "},"Ǜ":{"x_min":101.296875,"x_max":820.734375,"ha":924,"o":"m 101 419 b 463 -16 101 115 229 -16 b 820 419 697 -16 820 115 l 820 905 l 623 905 l 623 398 b 463 159 623 220 565 159 b 306 398 362 159 306 220 l 306 905 l 101 905 l 101 419 m 452 1352 l 238 1352 l 402 1186 l 565 1186 l 452 1352 m 598 972 b 684 1058 649 972 684 1009 b 598 1143 684 1105 649 1143 b 513 1058 548 1143 513 1105 b 598 972 513 1009 548 972 m 323 972 b 409 1058 373 972 409 1009 b 323 1143 409 1105 373 1143 b 238 1058 273 1143 238 1105 b 323 972 238 1009 273 972 "},"ǒ":{"x_min":50.359375,"x_max":721.1875,"ha":771,"o":"m 50 344 b 386 -16 50 115 211 -16 b 721 344 560 -16 721 115 b 386 705 721 573 560 705 b 50 344 211 705 50 573 m 260 344 b 386 540 260 463 301 540 b 512 344 469 540 512 463 b 386 148 512 225 469 148 b 260 344 301 148 260 225 m 304 797 l 467 797 l 600 1005 l 462 1005 l 389 895 l 383 895 l 308 1005 l 171 1005 l 304 797 "},"ĉ":{"x_min":50.1875,"x_max":619.640625,"ha":649,"o":"m 50 344 b 390 -16 50 115 198 -16 b 619 69 465 -16 552 11 l 537 198 b 414 148 504 172 464 148 b 259 344 325 148 259 225 b 421 540 259 463 322 540 b 516 500 452 540 483 527 l 609 626 b 408 705 564 673 493 705 b 50 344 218 705 50 573 m 189 797 l 326 797 l 400 906 l 405 906 l 480 797 l 618 797 l 484 1005 l 322 1005 l 189 797 "},"ᵇ":{"x_min":58.328125,"x_max":498.609375,"ha":535,"o":"m 58 363 l 169 363 l 180 412 l 186 412 b 306 352 219 372 265 352 b 498 599 405 352 498 441 b 318 831 498 738 429 831 b 197 780 275 831 231 811 l 202 849 l 202 1005 l 58 1005 l 58 363 m 202 492 l 202 677 b 276 715 227 704 250 715 b 351 598 326 715 351 679 b 272 466 351 505 315 466 b 202 492 250 466 226 473 "},"ī":{"x_min":0,"x_max":383.328125,"ha":383,"o":"m 90 0 l 294 0 l 294 688 l 90 688 l 90 0 m 0 822 l 383 822 l 383 951 l 0 951 l 0 822 "},"Ď":{"x_min":106.921875,"x_max":816.640625,"ha":882,"o":"m 106 0 l 373 0 b 816 456 638 0 816 145 b 362 905 816 768 638 905 l 106 905 l 106 0 m 311 165 l 311 740 l 349 740 b 606 456 504 740 606 673 b 349 165 606 240 504 165 l 311 165 m 518 1141 l 444 1056 l 438 1056 l 365 1141 l 208 1141 l 341 975 l 541 975 l 674 1141 l 518 1141 "},"&":{"x_min":35.25,"x_max":901.5,"ha":926,"o":"m 228 254 b 289 362 228 295 253 330 b 477 174 341 295 407 231 b 362 138 439 151 400 138 b 228 254 282 138 228 186 m 312 686 b 394 787 312 748 348 787 b 457 716 437 787 457 759 b 341 577 457 655 407 616 b 312 686 323 615 312 652 m 901 148 b 744 205 855 155 801 176 b 895 511 814 299 862 401 l 709 511 b 605 294 687 426 651 354 b 423 459 539 342 475 399 b 612 716 518 523 612 598 b 390 922 612 841 526 922 b 144 684 239 922 144 813 b 200 497 144 627 165 562 b 35 241 111 440 35 367 b 336 -16 35 102 139 -16 b 620 74 450 -16 544 17 b 852 -16 698 30 777 -1 l 901 148 "},"G":{"x_min":64.296875,"x_max":805.96875,"ha":886,"o":"m 64 447 b 503 -16 64 143 258 -16 b 805 93 629 -16 742 31 l 805 509 l 475 509 l 475 343 l 625 343 l 625 187 b 528 159 603 169 565 159 b 274 454 358 159 274 268 b 512 745 274 636 372 745 b 678 677 590 745 633 719 l 790 804 b 510 922 730 865 636 922 b 64 447 264 922 64 747 "},"ʲ":{"x_min":-45.828125,"x_max":215.28125,"ha":264,"o":"m 37 175 b 205 363 165 175 205 262 l 205 820 l 61 820 l 61 358 b 15 287 61 306 51 287 b -20 293 0 287 -12 290 l -45 186 b 37 175 -26 180 -4 175 m 133 883 b 215 955 180 883 215 913 b 133 1029 215 998 180 1029 b 51 955 84 1029 51 998 b 133 883 51 913 84 883 "},"`":{"x_min":178.171875,"x_max":499,"ha":771,"o":"m 350 797 l 499 797 l 375 1005 l 178 1005 l 350 797 "},"ỗ":{"x_min":50.171875,"x_max":721.21875,"ha":771,"o":"m 50 344 b 386 -16 50 115 211 -16 b 721 344 559 -16 721 115 b 386 705 721 573 559 705 b 50 344 211 705 50 573 m 259 344 b 386 540 259 463 301 540 b 512 344 469 540 512 463 b 386 148 512 225 469 148 b 259 344 301 148 259 225 m 180 795 l 314 795 l 383 877 l 389 877 l 457 795 l 590 795 l 477 950 l 293 950 l 180 795 m 271 1000 b 319 1052 279 1037 295 1052 b 461 1000 358 1052 389 1000 b 589 1158 523 1000 576 1050 l 500 1158 b 451 1105 491 1120 475 1105 b 309 1158 412 1105 383 1158 b 183 1000 247 1158 194 1109 l 271 1000 "},"Ễ":{"x_min":106.9375,"x_max":687.171875,"ha":761,"o":"m 106 0 l 687 0 l 687 172 l 311 172 l 311 380 l 619 380 l 619 551 l 311 551 l 311 733 l 673 733 l 673 905 l 106 905 l 106 0 m 180 975 l 324 975 l 397 1051 l 402 1051 l 476 975 l 620 975 l 488 1133 l 312 1133 l 180 975 m 283 1183 b 334 1236 291 1220 309 1236 b 478 1183 372 1236 412 1183 b 608 1341 541 1183 595 1233 l 517 1341 b 466 1287 509 1304 490 1287 b 322 1341 428 1287 388 1341 b 193 1183 259 1341 205 1291 l 283 1183 "},"ˣ":{"x_min":11,"x_max":472,"ha":483,"o":"m 11 363 l 160 363 l 194 434 l 229 505 l 234 505 l 279 434 l 319 363 l 472 363 l 330 584 l 465 820 l 315 820 l 284 748 l 256 679 l 251 679 l 212 748 l 174 820 l 20 820 l 155 601 l 11 363 "},"ằ":{"x_min":64.953125,"x_max":656.296875,"ha":742,"o":"m 64 191 b 268 -16 64 75 144 -16 b 470 70 346 -16 411 19 l 474 70 l 489 0 l 656 0 l 656 394 b 382 705 656 605 559 705 b 88 615 274 705 175 668 l 160 480 b 343 543 227 519 285 543 b 452 443 417 543 447 504 b 64 191 180 415 64 336 m 259 206 b 452 320 259 259 306 301 l 452 200 b 338 141 416 163 385 141 b 259 206 289 141 259 162 m 372 1125 l 227 1125 l 350 961 l 453 961 l 372 1125 m 389 797 b 582 990 518 797 578 890 l 491 990 b 389 897 482 938 452 897 b 286 990 325 897 295 938 l 196 990 b 389 797 199 890 259 797 "},"ŏ":{"x_min":50,"x_max":720.828125,"ha":771,"o":"m 50 344 b 386 -16 50 115 211 -16 b 720 344 559 -16 720 115 b 386 705 720 573 559 705 b 50 344 211 705 50 573 m 259 344 b 386 540 259 463 301 540 b 512 344 469 540 512 463 b 386 148 512 225 469 148 b 259 344 301 148 259 225 m 386 797 b 579 990 515 797 575 890 l 465 990 b 386 909 458 945 434 909 b 305 990 336 909 312 945 l 191 990 b 386 797 195 890 255 797 "},"Ả":{"x_min":-8.328125,"x_max":804.171875,"ha":796,"o":"m 344 959 b 537 1104 448 968 537 1008 b 304 1230 537 1177 476 1226 l 280 1129 b 390 1081 359 1123 390 1108 b 329 1040 390 1056 362 1047 l 344 959 m 297 375 l 319 458 b 390 750 344 548 368 654 l 395 750 b 469 458 419 655 444 548 l 490 375 l 297 375 m 587 0 l 804 0 l 520 905 l 275 905 l -8 0 l 200 0 l 255 215 l 531 215 l 587 0 "},"ý":{"x_min":17,"x_max":707,"ha":724,"o":"m 105 -100 l 69 -255 b 166 -269 97 -263 125 -269 b 468 -6 329 -269 402 -180 l 707 688 l 511 688 l 427 393 b 380 197 411 327 396 262 l 375 197 b 321 393 357 265 340 330 l 222 688 l 17 688 l 282 18 l 272 -18 b 151 -108 254 -72 219 -108 b 105 -100 136 -108 118 -102 m 577 1005 l 380 1005 l 257 797 l 405 797 l 577 1005 "},"º":{"x_min":33.328125,"x_max":483.328125,"ha":518,"o":"m 258 352 b 483 591 376 352 483 440 b 258 831 483 743 376 831 b 33 591 140 831 33 743 b 258 352 33 440 140 352 m 258 466 b 180 591 204 466 180 516 b 258 718 180 668 204 718 b 337 591 312 718 337 668 b 258 466 337 516 312 466 "},"❒":{"x_min":75,"x_max":501.390625,"ha":576,"o":"m 143 209 l 143 461 l 388 461 l 388 209 l 143 209 m 75 141 l 422 141 l 501 234 l 501 573 l 168 573 l 75 494 l 75 141 "},"∞":{"x_min":51.390625,"x_max":1079.171875,"ha":1131,"o":"m 287 193 b 515 320 390 193 466 256 l 520 320 b 804 156 606 206 688 156 b 1079 472 955 156 1079 270 b 815 748 1079 631 962 748 b 548 598 704 748 619 690 l 543 598 b 315 726 493 666 420 726 b 51 440 158 726 51 620 b 287 193 51 308 154 193 m 616 486 b 794 600 670 562 733 600 b 929 468 876 600 929 550 b 804 345 929 402 881 345 b 616 486 726 345 673 408 m 305 341 b 201 444 240 341 201 391 b 298 537 201 498 233 537 b 447 433 354 537 406 494 b 305 341 409 377 362 341 "},"ź":{"x_min":53.078125,"x_max":605.96875,"ha":639,"o":"m 53 0 l 605 0 l 605 159 l 307 159 l 596 580 l 596 688 l 85 688 l 85 529 l 342 529 l 53 109 l 53 0 m 549 1005 l 351 1005 l 228 797 l 376 797 l 549 1005 "},"Ư":{"x_min":101.5625,"x_max":994.625,"ha":949,"o":"m 814 1055 b 836 991 825 1038 836 1016 b 721 905 836 919 776 906 l 623 905 l 623 398 b 464 159 623 220 565 159 b 307 398 362 159 307 220 l 307 905 l 101 905 l 101 419 b 464 -16 101 115 229 -16 b 821 419 697 -16 821 115 l 821 830 b 994 1005 918 848 994 901 b 952 1116 994 1051 973 1091 l 814 1055 "},"ń":{"x_min":90.234375,"x_max":711.0625,"ha":794,"o":"m 90 0 l 294 0 l 294 465 b 422 531 338 508 370 531 b 506 401 480 531 506 501 l 506 0 l 711 0 l 711 427 b 497 705 711 600 647 705 b 276 601 404 705 334 656 l 270 601 l 256 688 l 90 688 l 90 0 m 634 1005 l 437 1005 l 313 797 l 462 797 l 634 1005 "},"Ḵ":{"x_min":107.078125,"x_max":861.25,"ha":853,"o":"m 107 0 l 311 0 l 311 243 l 416 381 l 637 0 l 861 0 l 537 544 l 811 905 l 586 905 l 316 534 l 311 534 l 311 905 l 107 905 l 107 0 m 652 -131 l 268 -131 l 268 -262 l 652 -262 l 652 -131 "},"ḹ":{"x_min":-1.390625,"x_max":381.9375,"ha":397,"o":"m 90 213 b 277 -16 90 75 137 -16 b 380 0 323 -16 358 -9 l 355 151 b 330 148 344 148 338 148 b 294 205 313 148 294 162 l 294 973 l 90 973 l 90 213 m -1 1115 l 381 1115 l 381 1245 l -1 1245 l -1 1115 m 263 -313 b 377 -206 330 -313 377 -269 b 263 -100 377 -144 330 -100 b 151 -206 198 -100 151 -144 b 263 -313 151 -269 198 -313 "},"¤":{"x_min":27.515625,"x_max":705.484375,"ha":733,"o":"m 128 115 l 226 214 b 366 181 269 192 317 181 b 506 214 413 181 463 192 l 604 115 l 705 218 l 620 304 b 667 458 649 346 667 397 b 620 609 667 518 651 569 l 705 695 l 604 798 l 508 701 b 366 735 463 723 415 735 b 224 701 317 735 267 723 l 128 798 l 27 695 l 110 609 b 65 458 81 569 65 518 b 112 304 65 397 81 346 l 27 218 l 128 115 m 247 458 b 366 594 247 540 299 594 b 485 458 433 594 485 540 b 366 322 485 375 433 322 b 247 458 299 322 247 375 "},"Ĝ":{"x_min":64.171875,"x_max":805.96875,"ha":886,"o":"m 64 447 b 503 -16 64 143 258 -16 b 805 93 629 -16 742 31 l 805 509 l 475 509 l 475 343 l 625 343 l 625 187 b 528 159 603 169 565 159 b 273 454 358 159 273 268 b 512 745 273 636 372 745 b 678 677 590 745 633 719 l 790 804 b 510 922 730 865 636 922 b 64 447 264 922 64 747 m 433 975 l 507 1059 l 512 1059 l 586 975 l 743 975 l 610 1141 l 410 1141 l 276 975 l 433 975 "},"p":{"x_min":90.28125,"x_max":741.671875,"ha":796,"o":"m 287 55 b 451 -16 336 9 391 -16 b 741 355 600 -16 741 119 b 472 705 741 568 638 705 b 276 620 400 705 330 669 l 270 620 l 256 688 l 90 688 l 90 -255 l 294 -255 l 294 -54 l 287 55 m 294 194 l 294 476 b 412 538 334 519 370 538 b 531 352 494 538 531 476 b 404 149 531 210 475 149 b 294 194 369 149 330 160 "},"S":{"x_min":48.578125,"x_max":724.96875,"ha":772,"o":"m 48 113 b 383 -16 140 27 265 -16 b 724 263 599 -16 724 113 b 545 509 724 391 655 465 l 429 556 b 291 663 351 588 291 608 b 406 745 291 715 336 745 b 594 673 479 745 534 719 l 698 802 b 406 922 620 880 511 922 b 84 652 218 922 84 802 b 266 405 84 520 173 443 l 384 355 b 515 247 463 322 515 304 b 388 159 515 193 473 159 b 165 254 313 159 230 198 l 48 113 "},"ễ":{"x_min":50.21875,"x_max":667.9375,"ha":719,"o":"m 50 344 b 398 -16 50 116 201 -16 b 642 61 480 -16 572 12 l 575 184 b 426 138 525 154 478 138 b 247 288 334 138 265 184 l 659 288 b 667 375 663 305 667 338 b 375 705 667 562 570 705 b 50 344 209 705 50 568 m 246 415 b 379 550 259 506 315 550 b 494 415 461 550 494 494 l 246 415 m 171 795 l 303 795 l 372 877 l 378 877 l 447 795 l 578 795 l 468 950 l 282 950 l 171 795 m 259 1000 b 309 1052 268 1037 286 1052 b 451 1000 348 1052 378 1000 b 578 1158 512 1000 565 1050 l 489 1158 b 440 1105 482 1120 464 1105 b 298 1158 401 1105 372 1158 b 172 1000 236 1158 183 1109 l 259 1000 "},"/":{"x_min":18,"x_max":431,"ha":471,"o":"m 18 -222 l 151 -222 l 431 986 l 297 986 l 18 -222 "},"ₔ":{"x_min":28.9375,"x_max":447.109375,"ha":481,"o":"m 227 352 b 447 591 345 352 447 445 b 224 831 447 737 358 831 b 58 780 169 831 108 813 l 108 694 b 206 722 141 713 172 722 b 309 630 266 722 298 693 l 37 630 b 28 573 31 611 28 598 b 227 352 28 456 90 352 m 226 461 b 151 550 172 461 151 500 l 311 550 b 226 461 304 487 270 461 "},"Ọ":{"x_min":63.890625,"x_max":886.109375,"ha":950,"o":"m 475 -16 b 886 456 719 -16 886 161 b 475 922 886 751 719 922 b 63 456 230 922 63 752 b 475 -16 63 161 230 -16 m 475 159 b 273 456 351 159 273 275 b 475 745 273 637 351 745 b 676 456 598 745 676 637 b 475 159 676 275 598 159 m 475 -313 b 588 -206 541 -313 588 -269 b 475 -100 588 -144 541 -100 b 362 -206 408 -100 362 -144 b 475 -313 362 -269 408 -313 "},"̨":{"x_min":-119.4375,"x_max":168.0625,"ha":0,"o":"m -119 -165 b 27 -291 -119 -248 -54 -291 b 168 -245 70 -291 131 -273 l 125 -154 b 76 -170 112 -162 94 -170 b 18 -118 47 -170 18 -155 b 93 2 18 -76 41 -37 l -22 2 b -119 -165 -58 -22 -119 -83 "},"̋":{"x_min":-174,"x_max":320,"ha":0,"o":"m -174 795 l -49 795 l 82 1005 l -79 1005 l -174 795 m 61 795 l 188 795 l 320 1005 l 157 1005 l 61 795 "},"y":{"x_min":17,"x_max":707,"ha":724,"o":"m 105 -100 l 69 -255 b 166 -269 97 -263 125 -269 b 468 -6 329 -269 402 -180 l 707 688 l 511 688 l 427 393 b 380 197 411 327 396 262 l 375 197 b 321 393 357 265 340 330 l 222 688 l 17 688 l 282 18 l 272 -18 b 151 -108 254 -72 219 -108 b 105 -100 136 -108 118 -102 "},"ˊ":{"x_min":50,"x_max":371,"ha":328,"o":"m 371 1005 l 173 1005 l 50 797 l 198 797 l 371 1005 "},"–":{"x_min":59.71875,"x_max":606.9375,"ha":667,"o":"m 59 286 l 606 286 l 606 416 l 59 416 l 59 286 "},"ë":{"x_min":49.484375,"x_max":666.9375,"ha":719,"o":"m 49 344 b 397 -16 49 116 200 -16 b 641 61 479 -16 571 12 l 573 184 b 425 138 524 154 476 138 b 246 288 334 138 264 184 l 658 288 b 666 375 662 305 666 338 b 374 705 666 562 569 705 b 49 344 209 705 49 568 m 245 415 b 378 550 259 506 314 550 b 493 415 460 550 493 494 l 245 415 m 236 793 b 334 890 293 793 334 834 b 236 986 334 944 293 986 b 139 890 180 986 139 944 b 236 793 139 834 180 793 m 511 793 b 608 890 568 793 608 834 b 511 986 608 944 568 986 b 414 890 454 986 414 944 b 511 793 414 834 454 793 "},"ƒ":{"x_min":42,"x_max":686,"ha":733,"o":"m 686 897 b 566 922 658 909 601 922 b 284 634 383 922 307 838 l 277 575 l 259 575 l 157 566 l 157 426 l 261 426 l 237 223 b 130 26 221 65 196 29 b 69 38 110 27 89 30 l 42 -112 b 161 -133 62 -125 107 -133 b 423 163 349 -133 403 -1 l 454 426 l 614 426 l 614 575 l 471 575 l 481 651 b 582 759 488 716 520 759 b 646 744 610 759 630 750 l 686 897 "},"⁽":{"x_min":87.5,"x_max":323.609375,"ha":372,"o":"m 213 486 l 323 530 b 229 883 261 644 229 758 b 323 1234 229 1006 261 1122 l 213 1279 b 87 883 133 1156 87 1048 b 213 486 87 716 133 608 "},"Ẏ":{"x_min":-11.109375,"x_max":740.28125,"ha":729,"o":"m 262 0 l 466 0 l 466 322 l 740 905 l 526 905 l 444 697 b 368 497 419 629 394 566 l 362 497 b 288 697 337 566 313 629 l 208 905 l -11 905 l 262 322 l 262 0 m 363 973 b 483 1080 433 973 483 1018 b 363 1187 483 1143 433 1187 b 245 1080 295 1187 245 1143 b 363 973 245 1018 295 973 "},"J":{"x_min":22.21875,"x_max":604.171875,"ha":707,"o":"m 22 147 b 313 -16 84 37 176 -16 b 604 301 513 -16 604 126 l 604 905 l 400 905 l 400 318 b 287 159 400 197 361 159 b 161 250 241 159 194 188 l 22 147 "},"ŷ":{"x_min":17,"x_max":707,"ha":724,"o":"m 105 -100 l 69 -255 b 166 -269 97 -263 125 -269 b 468 -6 329 -269 402 -180 l 707 688 l 511 688 l 427 393 b 380 197 411 327 396 262 l 375 197 b 321 393 357 265 340 330 l 222 688 l 17 688 l 282 18 l 272 -18 b 151 -108 254 -72 219 -108 b 105 -100 136 -108 118 -102 m 157 797 l 294 797 l 368 906 l 373 906 l 447 797 l 584 797 l 451 1005 l 289 1005 l 157 797 "},"ŕ":{"x_min":89.890625,"x_max":553.78125,"ha":553,"o":"m 89 0 l 294 0 l 294 400 b 445 526 330 493 394 526 b 520 515 474 526 495 522 l 553 691 b 471 705 534 700 510 705 b 276 568 401 705 326 661 l 270 568 l 256 688 l 89 688 l 89 0 m 549 1005 l 352 1005 l 228 797 l 377 797 l 549 1005 "},"ṝ":{"x_min":77.78125,"x_max":554.171875,"ha":553,"o":"m 90 0 l 294 0 l 294 400 b 445 526 330 493 394 526 b 520 515 475 526 495 522 l 554 691 b 472 705 534 700 511 705 b 276 568 401 705 326 661 l 270 568 l 256 688 l 90 688 l 90 0 m 151 822 l 534 822 l 534 951 l 151 951 l 151 822 m 191 -313 b 304 -206 258 -313 304 -269 b 191 -100 304 -144 258 -100 b 77 -206 125 -100 77 -144 b 191 -313 77 -269 125 -313 "},"˘":{"x_min":191.671875,"x_max":579.171875,"ha":771,"o":"m 386 797 b 579 990 515 797 575 890 l 465 990 b 386 909 458 945 434 909 b 305 990 336 909 312 945 l 191 990 b 386 797 195 890 255 797 "},"↑":{"x_min":54.171875,"x_max":802.78125,"ha":857,"o":"m 425 734 l 54 348 l 163 252 l 347 461 l 347 -35 l 509 -35 l 509 461 l 691 252 l 802 348 l 430 734 l 425 734 "},"ʸ":{"x_min":11,"x_max":479,"ha":490,"o":"m 72 306 l 47 200 b 115 191 67 194 87 191 b 323 363 227 191 277 248 l 479 820 l 341 820 l 290 630 b 258 501 279 587 266 545 l 252 501 b 217 630 240 547 231 586 l 155 820 l 11 820 l 190 377 l 183 358 b 104 301 172 325 147 301 b 72 306 94 301 87 301 "},"D":{"x_min":106.9375,"x_max":816.671875,"ha":882,"o":"m 106 0 l 373 0 b 816 456 638 0 816 145 b 362 905 816 768 638 905 l 106 905 l 106 0 m 311 165 l 311 740 l 350 740 b 606 456 504 740 606 673 b 350 165 606 240 504 165 l 311 165 "},"ĺ":{"x_min":90,"x_max":420.5625,"ha":397,"o":"m 90 213 b 277 -16 90 75 137 -16 b 380 0 323 -16 358 -9 l 355 151 b 330 148 344 148 338 148 b 294 205 313 148 294 162 l 294 973 l 90 973 l 90 213 m 420 1218 l 203 1218 l 91 1051 l 253 1051 l 420 1218 "},"ł":{"x_min":20.828125,"x_max":398.609375,"ha":421,"o":"m 398 539 l 398 703 l 308 648 l 308 973 l 104 973 l 104 547 l 20 496 l 20 333 l 104 383 l 104 214 b 291 -16 104 75 151 -16 b 394 0 337 -16 370 -9 l 369 151 b 344 148 358 148 352 148 b 308 205 327 148 308 162 l 308 484 l 398 539 "},"$":{"x_min":54.15625,"x_max":649.984375,"ha":733,"o":"m 640 780 b 433 894 586 837 522 881 l 433 1034 l 298 1034 l 298 891 b 87 634 168 865 87 770 b 454 244 87 384 454 387 b 341 148 454 180 419 148 b 143 229 274 148 213 176 l 54 91 b 298 -13 119 31 216 -4 l 298 -152 l 433 -152 l 433 -8 b 649 258 576 22 649 125 b 283 644 649 523 283 512 b 386 733 283 706 319 733 b 537 663 444 733 487 709 l 640 780 "},"w":{"x_min":32.890625,"x_max":1044,"ha":1078,"o":"m 205 0 l 438 0 l 499 275 b 534 476 512 338 521 402 l 539 476 b 577 275 552 402 563 338 l 639 0 l 878 0 l 1044 688 l 855 688 l 789 369 b 757 165 777 301 770 234 l 752 165 b 709 369 738 234 725 301 l 631 688 l 455 688 l 378 369 b 338 165 362 304 350 234 l 332 165 b 302 369 321 234 313 301 l 235 688 l 32 688 l 205 0 "},"Ç":{"x_min":63.84375,"x_max":777.734375,"ha":808,"o":"m 665 240 b 493 159 620 191 566 159 b 273 454 359 159 273 268 b 498 745 273 636 372 745 b 651 677 561 745 605 719 l 763 804 b 495 922 702 866 608 922 b 63 447 262 922 63 747 b 423 -12 63 172 219 15 l 376 -105 b 456 -163 438 -120 456 -140 b 343 -225 456 -200 408 -218 l 358 -306 b 604 -162 488 -300 604 -258 b 522 -59 604 -105 569 -75 l 543 -13 b 777 116 633 -1 715 43 l 665 240 "},"Ŝ":{"x_min":48.5,"x_max":724.96875,"ha":772,"o":"m 48 113 b 383 -16 140 27 265 -16 b 724 263 599 -16 724 113 b 545 509 724 391 655 465 l 429 556 b 291 663 351 588 291 608 b 406 745 291 715 336 745 b 594 673 479 745 534 719 l 698 802 b 406 922 620 880 511 922 b 84 652 217 922 84 802 b 266 405 84 520 173 443 l 384 355 b 515 247 463 322 515 304 b 388 159 515 193 473 159 b 165 254 313 159 230 198 l 48 113 m 327 975 l 401 1059 l 406 1059 l 481 975 l 637 975 l 504 1141 l 305 1141 l 172 975 l 327 975 "},"C":{"x_min":63.890625,"x_max":777.78125,"ha":808,"o":"m 63 447 b 490 -16 63 143 255 -16 b 777 116 602 -16 702 29 l 665 240 b 493 159 620 191 566 159 b 273 454 359 159 273 268 b 498 745 273 636 372 745 b 651 677 561 745 605 719 l 763 804 b 495 922 702 866 608 922 b 63 447 262 922 63 747 "},"̉":{"x_min":-112.5,"x_max":144.4375,"ha":0,"o":"m -48 773 b 144 916 55 780 144 822 b -88 1044 144 991 81 1038 l -112 941 b -2 895 -33 937 -2 922 b -63 854 -2 869 -30 859 l -48 773 "},"Ĵ":{"x_min":22.21875,"x_max":731.953125,"ha":707,"o":"m 22 147 b 313 -16 84 37 176 -16 b 604 301 513 -16 604 126 l 604 905 l 400 905 l 400 318 b 287 159 400 197 361 159 b 161 250 241 159 194 188 l 22 147 m 422 975 l 495 1059 l 501 1059 l 576 975 l 731 975 l 598 1141 l 400 1141 l 266 975 l 422 975 "},"Ẻ":{"x_min":106.84375,"x_max":687.40625,"ha":761,"o":"m 106 0 l 687 0 l 687 172 l 311 172 l 311 380 l 619 380 l 619 551 l 311 551 l 311 733 l 673 733 l 673 905 l 106 905 l 106 0 m 351 959 b 544 1104 456 968 544 1008 b 311 1230 544 1177 483 1226 l 287 1129 b 398 1081 366 1123 398 1108 b 336 1040 398 1056 370 1047 l 351 959 "},"È":{"x_min":106.9375,"x_max":687.5,"ha":761,"o":"m 106 0 l 687 0 l 687 172 l 311 172 l 311 380 l 619 380 l 619 551 l 311 551 l 311 733 l 673 733 l 673 905 l 106 905 l 106 0 m 341 975 l 504 975 l 391 1141 l 175 1141 l 341 975 "},"ﬁ":{"x_min":33.328125,"x_max":808.328125,"ha":882,"o":"m 125 687 l 33 680 l 33 529 l 125 529 l 125 0 l 329 0 l 329 529 l 452 529 l 452 688 l 329 688 l 329 730 b 408 828 329 801 358 828 b 479 815 430 828 455 823 l 516 965 b 379 990 486 976 436 990 b 125 724 193 990 125 870 l 125 687 m 690 790 b 808 897 759 790 808 834 b 690 1002 808 959 759 1002 b 572 897 622 1002 572 959 b 690 790 572 834 622 790 m 588 0 l 793 0 l 793 688 l 588 688 l 588 0 "},"X":{"x_min":15,"x_max":772,"ha":788,"o":"m 15 0 l 234 0 l 319 184 b 380 333 338 231 359 277 l 385 333 b 453 184 410 277 431 231 l 544 0 l 772 0 l 521 455 l 756 905 l 538 905 l 466 734 b 408 588 448 693 428 645 l 402 588 b 337 734 377 645 358 693 l 258 905 l 30 905 l 266 465 l 15 0 "},"ô":{"x_min":50.171875,"x_max":721.1875,"ha":771,"o":"m 50 344 b 386 -16 50 115 211 -16 b 721 344 560 -16 721 115 b 386 705 721 573 560 705 b 50 344 211 705 50 573 m 259 344 b 386 540 259 463 301 540 b 512 344 469 540 512 463 b 386 148 512 225 469 148 b 259 344 301 148 259 225 m 171 797 l 308 797 l 383 906 l 389 906 l 462 797 l 600 797 l 466 1005 l 304 1005 l 171 797 "},"Ė":{"x_min":106.9375,"x_max":687.5,"ha":761,"o":"m 106 0 l 687 0 l 687 172 l 311 172 l 311 380 l 619 380 l 619 551 l 311 551 l 311 733 l 673 733 l 673 905 l 106 905 l 106 0 m 400 973 b 519 1080 469 973 519 1018 b 400 1187 519 1143 469 1187 b 281 1080 331 1187 281 1143 b 400 973 281 1018 331 973 "},"℠":{"x_min":24.328125,"x_max":915.15625,"ha":947,"o":"m 193 485 b 366 628 299 485 366 554 b 275 756 366 698 332 734 l 217 781 b 166 822 184 795 166 804 b 206 852 166 839 177 852 b 302 814 236 852 272 833 l 364 898 b 213 954 324 929 271 954 b 46 815 110 954 46 890 b 132 685 46 744 85 708 l 192 659 b 243 614 224 643 243 636 b 203 585 243 595 229 585 b 92 636 164 585 124 607 l 24 553 b 193 485 75 507 132 485 m 438 502 l 568 502 l 568 635 l 552 795 l 558 795 l 631 565 l 722 565 l 795 795 l 801 795 l 786 635 l 786 502 l 915 502 l 915 939 l 759 939 l 708 813 l 679 720 l 673 720 l 645 813 l 593 939 l 438 939 l 438 502 "},"ấ":{"x_min":64.953125,"x_max":784.84375,"ha":742,"o":"m 64 191 b 269 -16 64 75 144 -16 b 470 70 346 -16 412 19 l 475 70 l 490 0 l 657 0 l 657 394 b 383 705 657 605 559 705 b 88 615 274 705 176 668 l 160 480 b 344 543 227 519 285 543 b 452 443 417 543 448 504 b 64 191 180 415 64 336 m 259 206 b 452 320 259 259 306 301 l 452 200 b 338 141 416 163 385 141 b 259 206 289 141 259 162 m 195 797 l 321 797 l 387 887 l 392 887 l 456 797 l 583 797 l 470 975 l 308 975 l 195 797 m 539 897 l 652 897 l 784 1061 l 633 1061 l 539 897 "},"Ŀ":{"x_min":106.9375,"x_max":693.0625,"ha":719,"o":"m 106 0 l 669 0 l 669 172 l 311 172 l 311 905 l 106 905 l 106 0 m 445 456 b 569 327 445 384 498 327 b 693 456 640 327 693 384 b 569 584 693 529 640 584 b 445 456 498 584 445 529 "},"Ỵ":{"x_min":-11.109375,"x_max":740.28125,"ha":729,"o":"m 262 0 l 466 0 l 466 322 l 740 905 l 526 905 l 444 697 b 368 497 419 629 394 566 l 362 497 b 288 697 337 566 313 629 l 208 905 l -11 905 l 262 322 l 262 0 m 366 -313 b 480 -206 433 -313 480 -269 b 366 -100 480 -144 433 -100 b 254 -206 301 -100 254 -144 b 366 -313 254 -269 301 -313 "},"ṇ":{"x_min":90.28125,"x_max":711.109375,"ha":794,"o":"m 90 0 l 294 0 l 294 465 b 422 531 338 508 370 531 b 506 401 480 531 506 501 l 506 0 l 711 0 l 711 427 b 497 705 711 600 647 705 b 276 601 404 705 334 656 l 270 601 l 256 688 l 90 688 l 90 0 m 404 -313 b 518 -206 470 -313 518 -269 b 404 -100 518 -144 470 -100 b 291 -206 338 -100 291 -144 b 404 -313 291 -269 338 -313 "},"ü":{"x_min":83.328125,"x_max":700,"ha":789,"o":"m 83 261 b 297 -16 83 88 147 -16 b 513 95 391 -16 455 26 l 518 95 l 533 0 l 700 0 l 700 688 l 495 688 l 495 233 b 373 156 455 179 425 156 b 287 287 313 156 287 188 l 287 688 l 83 688 l 83 261 m 258 793 b 355 890 315 793 355 834 b 258 986 355 944 315 986 b 161 890 201 986 161 944 b 258 793 161 834 201 793 m 533 793 b 630 890 590 793 630 834 b 533 986 630 944 590 986 b 436 890 476 986 436 944 b 533 793 436 834 476 793 "},"⸥":{"x_min":63.890625,"x_max":356.9375,"ha":478,"o":"m 356 386 l 205 386 l 205 -102 l 63 -102 l 63 -211 l 356 -211 l 356 386 "},"Ÿ":{"x_min":-11.109375,"x_max":740.28125,"ha":729,"o":"m 262 0 l 466 0 l 466 322 l 740 905 l 526 905 l 444 697 b 368 497 419 629 394 566 l 362 497 b 288 697 337 566 313 629 l 208 905 l -11 905 l 262 322 l 262 0 m 226 972 b 323 1069 283 972 323 1013 b 226 1166 323 1125 283 1166 b 130 1069 169 1166 130 1125 b 226 972 130 1013 169 972 m 502 972 b 598 1069 559 972 598 1013 b 502 1166 598 1125 559 1166 b 405 1069 444 1166 405 1125 b 502 972 405 1013 444 972 "},"€":{"x_min":29.390625,"x_max":721.0625,"ha":733,"o":"m 608 216 b 480 141 572 168 533 141 b 323 298 403 141 348 197 l 562 298 l 562 402 l 309 402 b 308 443 308 415 308 429 b 308 472 308 452 308 462 l 618 472 l 618 575 l 321 575 b 476 740 343 680 397 740 b 596 680 525 740 561 715 l 709 790 b 483 898 650 859 566 898 b 115 573 298 898 158 780 l 29 566 l 29 472 l 104 472 b 103 436 103 459 103 448 b 104 400 103 423 103 412 l 29 394 l 29 298 l 115 298 b 468 -16 157 91 294 -16 b 721 111 568 -16 654 29 l 608 216 "},"ß":{"x_min":90.28125,"x_max":840.28125,"ha":878,"o":"m 90 0 l 291 0 l 291 652 b 419 826 291 759 334 826 b 508 731 476 826 508 786 b 409 486 508 630 409 593 b 654 201 409 302 654 306 b 577 134 654 162 625 134 b 445 184 534 134 493 150 l 375 45 b 584 -16 441 6 502 -16 b 840 211 752 -16 840 84 b 595 511 840 425 595 419 b 704 755 595 581 704 623 b 419 987 704 875 609 987 b 90 676 195 987 90 855 l 90 0 "},"ᵐ":{"x_min":58.328125,"x_max":748.609375,"ha":801,"o":"m 58 363 l 202 363 l 202 669 b 275 711 230 697 252 711 b 331 627 318 711 331 683 l 331 363 l 475 363 l 475 669 b 547 711 504 697 526 711 b 604 627 591 711 604 683 l 604 363 l 748 363 l 748 644 b 601 831 748 758 702 831 b 456 754 538 831 494 794 b 327 831 431 804 390 831 b 188 761 265 831 225 798 l 186 761 l 175 820 l 58 820 l 58 363 "},"Ể":{"x_min":106.9375,"x_max":751.5625,"ha":761,"o":"m 106 0 l 687 0 l 687 172 l 311 172 l 311 380 l 619 380 l 619 551 l 311 551 l 311 733 l 673 733 l 673 905 l 106 905 l 106 0 m 591 1041 b 751 1162 680 1048 751 1080 b 548 1273 751 1223 701 1269 l 529 1190 b 621 1144 598 1184 621 1170 b 575 1106 621 1120 601 1112 l 591 1041 m 180 975 l 325 975 l 397 1051 l 402 1051 l 476 975 l 621 975 l 489 1133 l 312 1133 l 180 975 "},"ẳ":{"x_min":64.953125,"x_max":656.625,"ha":742,"o":"m 64 190 b 269 -17 64 73 144 -17 b 470 69 346 -17 412 18 l 474 69 l 489 -1 l 656 -1 l 656 393 b 383 704 656 604 559 704 b 88 614 274 704 176 666 l 160 479 b 344 541 227 518 285 541 b 452 441 417 541 448 502 b 64 190 180 414 64 334 m 259 205 b 452 319 259 258 306 300 l 452 198 b 338 140 416 162 385 140 b 259 205 289 140 259 161 m 389 795 b 583 989 519 795 578 889 l 491 989 b 389 895 483 937 452 895 b 287 989 326 895 295 937 l 196 989 b 389 795 199 889 259 795 m 341 968 b 503 1097 428 979 503 1007 b 298 1208 503 1162 451 1202 l 278 1122 b 370 1076 349 1116 370 1102 b 327 1037 370 1051 353 1043 l 341 968 "},"Ű":{"x_min":101.59375,"x_max":821.046875,"ha":924,"o":"m 101 419 b 464 -16 101 115 229 -16 b 821 419 697 -16 821 115 l 821 905 l 623 905 l 623 398 b 464 159 623 220 565 159 b 307 398 362 159 307 220 l 307 905 l 101 905 l 101 419 m 408 975 l 533 1141 l 358 1141 l 271 975 l 408 975 m 521 975 l 658 975 l 782 1141 l 608 1141 l 521 975 "},"c":{"x_min":50,"x_max":619.4375,"ha":649,"o":"m 50 344 b 390 -16 50 115 198 -16 b 619 69 465 -16 552 11 l 537 198 b 413 148 504 172 463 148 b 259 344 325 148 259 225 b 420 540 259 463 322 540 b 516 500 452 540 483 527 l 609 626 b 408 705 563 673 493 705 b 50 344 218 705 50 573 "},"¶":{"x_min":54.171875,"x_max":750,"ha":883,"o":"m 545 -111 l 750 -111 l 750 905 l 545 905 l 545 -111 m 412 273 l 468 273 l 468 905 l 406 905 b 54 595 213 905 54 829 b 412 273 54 383 215 273 "},"Ụ":{"x_min":101.390625,"x_max":820.828125,"ha":924,"o":"m 101 419 b 463 -16 101 115 229 -16 b 820 419 697 -16 820 115 l 820 905 l 623 905 l 623 398 b 463 159 623 220 565 159 b 306 398 362 159 306 220 l 306 905 l 101 905 l 101 419 m 461 -313 b 575 -206 527 -313 575 -269 b 461 -100 575 -144 527 -100 b 348 -206 395 -100 348 -144 b 461 -313 348 -269 395 -313 "},"­":{"x_min":59.71875,"x_max":401.390625,"ha":461,"o":"m 59 279 l 401 279 l 401 423 l 59 423 l 59 279 "},"Ẓ":{"x_min":50.1875,"x_max":705.75,"ha":751,"o":"m 50 0 l 705 0 l 705 172 l 301 172 l 701 781 l 701 905 l 87 905 l 87 733 l 450 733 l 50 123 l 50 0 m 391 -313 b 504 -206 457 -313 504 -269 b 391 -100 504 -144 457 -100 b 277 -206 325 -100 277 -144 b 391 -313 277 -269 325 -313 "},"ᵏ":{"x_min":58.328125,"x_max":509.71875,"ha":515,"o":"m 58 365 l 202 365 l 202 476 l 251 535 l 354 365 l 509 365 l 331 628 l 498 822 l 343 822 l 208 645 l 202 645 l 202 1006 l 58 1006 l 58 365 "},":":{"x_min":84.71875,"x_max":331.9375,"ha":417,"o":"m 84 561 b 208 433 84 488 137 433 b 331 561 279 433 331 488 b 208 690 331 634 279 690 b 84 561 137 690 84 634 m 84 111 b 208 -16 84 38 137 -16 b 331 111 279 -16 331 38 b 208 240 331 184 279 240 b 84 111 137 240 84 184 "},"ˢ":{"x_min":20.5625,"x_max":390.015625,"ha":413,"o":"m 20 413 b 198 352 69 377 137 352 b 390 501 321 352 390 416 b 267 638 390 584 324 616 b 176 693 221 655 176 665 b 224 727 176 713 192 727 b 321 688 256 727 288 711 l 385 773 b 220 831 345 802 294 831 b 42 687 113 831 42 770 b 165 551 42 611 106 573 b 256 493 212 531 256 520 b 202 456 256 470 238 456 b 83 504 166 456 126 473 l 20 413 "},"₫":{"x_min":90.28125,"x_max":718.0625,"ha":733,"o":"m 108 0 l 662 0 l 662 102 l 108 102 l 108 0 m 448 346 b 355 296 418 309 391 296 b 262 423 298 296 262 336 b 361 536 262 494 311 536 b 448 500 394 536 419 526 l 448 346 m 616 836 l 616 904 l 448 904 l 448 836 l 248 836 l 248 733 l 448 733 l 448 712 l 454 619 b 319 673 415 655 380 673 b 90 425 206 673 90 580 b 313 161 90 255 177 161 b 461 225 372 161 425 186 l 465 225 l 477 175 l 616 175 l 616 733 l 718 741 l 718 836 l 616 836 "},"ś":{"x_min":29.546875,"x_max":576.015625,"ha":615,"o":"m 29 79 b 293 -16 98 22 203 -16 b 576 205 477 -16 576 80 b 390 412 576 331 477 380 b 255 500 319 438 255 455 b 333 554 255 534 280 554 b 478 495 381 554 429 531 l 570 618 b 327 705 510 662 433 705 b 64 490 168 705 64 618 b 246 287 64 376 162 319 b 386 193 316 259 386 238 b 298 134 386 156 359 134 b 121 206 240 134 183 159 l 29 79 m 534 1005 l 337 1005 l 214 797 l 362 797 l 534 1005 "}," ":{"x_min":0,"x_max":0,"ha":289},"ʾ":{"x_min":36.109375,"x_max":215.28125,"ha":228,"o":"m 36 761 b 215 902 156 755 215 816 b 36 1044 215 988 156 1050 l 36 969 b 115 902 95 969 115 941 b 36 836 115 863 95 836 l 36 761 "},"¾":{"x_min":33.59375,"x_max":1123.859375,"ha":1136,"o":"m 140 753 b 229 807 165 784 194 807 b 297 749 269 807 297 785 b 187 682 297 703 254 682 l 187 596 b 316 525 273 596 316 572 b 237 460 316 484 282 460 b 123 527 193 460 157 481 l 33 456 b 254 346 80 385 158 346 b 464 513 365 346 464 413 b 365 645 464 577 419 622 b 443 770 414 674 443 711 b 255 921 443 863 355 921 b 55 828 169 921 114 891 l 140 753 m 778 921 l 289 -17 l 407 -17 l 894 921 l 778 921 m 798 217 l 857 329 l 912 436 l 918 436 l 909 274 l 909 217 l 798 217 m 1123 217 l 1043 217 l 1043 541 l 857 541 l 661 195 l 661 120 l 909 120 l 909 0 l 1043 0 l 1043 120 l 1123 120 l 1123 217 "},"ŉ":{"x_min":98.609375,"x_max":1098.609375,"ha":1183,"o":"m 143 488 b 341 786 276 554 341 655 b 211 968 341 901 295 968 b 104 854 148 968 104 923 b 211 753 104 791 151 753 b 223 754 215 753 219 753 b 98 577 223 670 181 619 l 143 488 m 658 601 l 643 688 l 476 688 l 476 0 l 680 0 l 680 465 b 808 531 725 508 756 531 b 894 401 866 531 894 501 l 894 0 l 1098 0 l 1098 427 b 884 705 1098 600 1034 705 b 662 601 790 705 720 656 l 658 601 "},"⁶":{"x_min":50.5,"x_max":472.015625,"ha":522,"o":"m 273 708 b 188 816 233 708 196 739 b 268 855 214 843 242 855 b 339 782 314 855 339 829 b 273 708 339 730 308 708 m 462 1112 b 302 1169 430 1140 380 1169 b 50 879 142 1169 50 1051 b 280 594 50 707 133 594 b 472 786 388 594 472 676 b 302 957 472 890 406 957 b 188 909 260 957 219 940 b 312 1055 197 1000 233 1055 b 404 1019 350 1055 377 1039 l 462 1112 "},"⟦":{"x_min":120.828125,"x_max":543.0625,"ha":607,"o":"m 120 -211 l 543 -211 l 543 -102 l 413 -102 l 413 875 l 543 875 l 543 983 l 120 983 l 120 -211 m 238 875 l 308 875 l 308 -102 l 238 -102 l 238 875 "},"⅓":{"x_min":64.703125,"x_max":1109.140625,"ha":1163,"o":"m 188 363 l 339 363 l 339 905 l 220 905 b 64 845 174 873 139 856 l 64 752 l 188 752 l 188 363 m 346 -16 l 835 922 l 717 922 l 228 -16 l 346 -16 m 678 93 b 899 -16 725 22 803 -16 b 1109 151 1010 -16 1109 51 b 1010 281 1109 215 1066 259 b 1088 406 1060 311 1088 350 b 900 558 1088 501 1000 558 b 700 465 814 558 759 529 l 785 390 b 874 444 810 420 839 444 b 942 386 914 444 942 422 b 832 319 942 340 899 319 l 832 233 b 961 162 920 233 961 209 b 884 97 961 120 927 97 b 768 163 838 97 802 118 l 678 93 "},"Ģ":{"x_min":64.296875,"x_max":805.96875,"ha":886,"o":"m 64 447 b 503 -16 64 143 258 -16 b 805 93 629 -16 742 31 l 805 509 l 475 509 l 475 343 l 625 343 l 625 187 b 528 159 603 169 565 159 b 274 454 358 159 274 268 b 512 745 274 636 372 745 b 678 677 590 745 633 719 l 790 804 b 510 922 730 865 636 922 b 64 447 264 922 64 747 m 454 -58 l 415 -133 b 475 -184 457 -144 475 -158 b 361 -236 475 -216 426 -229 l 376 -318 b 622 -175 507 -311 622 -269 b 454 -58 622 -105 579 -70 "},"m":{"x_min":90.28125,"x_max":1106.953125,"ha":1190,"o":"m 90 0 l 294 0 l 294 465 b 411 532 337 509 377 532 b 495 401 469 532 495 501 l 495 0 l 700 0 l 700 465 b 818 532 744 509 783 532 b 902 401 876 532 902 501 l 902 0 l 1106 0 l 1106 427 b 891 705 1106 600 1040 705 b 675 590 800 705 736 652 b 484 705 640 663 581 705 b 276 600 394 705 333 657 l 270 600 l 256 688 l 90 688 l 90 0 "},"Ị":{"x_min":95.828125,"x_max":322.21875,"ha":418,"o":"m 106 0 l 311 0 l 311 905 l 106 905 l 106 0 m 209 -313 b 322 -206 275 -313 322 -269 b 209 -100 322 -144 275 -100 b 95 -206 143 -100 95 -144 b 209 -313 95 -269 143 -313 "},"ž":{"x_min":53.09375,"x_max":605.984375,"ha":639,"o":"m 53 0 l 605 0 l 605 159 l 307 159 l 596 580 l 596 688 l 85 688 l 85 529 l 342 529 l 53 109 l 53 0 m 260 797 l 422 797 l 555 1005 l 418 1005 l 343 895 l 337 895 l 264 1005 l 126 1005 l 260 797 "},"⁵":{"x_min":37.15625,"x_max":469.109375,"ha":522,"o":"m 37 704 b 259 594 85 633 162 594 b 469 783 381 594 469 675 b 292 959 469 893 388 959 b 228 951 277 959 252 957 l 237 1026 l 446 1026 l 446 1153 l 119 1153 l 95 883 l 159 839 b 239 871 185 861 208 871 b 321 790 284 871 321 843 b 242 708 321 746 288 708 b 127 775 195 708 162 729 l 37 704 "},"ớ":{"x_min":50.40625,"x_max":753.109375,"ha":771,"o":"m 593 1005 l 396 1005 l 272 796 l 421 796 l 593 1005 m 386 148 b 260 343 301 148 260 224 b 386 539 260 463 301 539 b 512 343 469 539 512 463 b 386 148 512 224 469 148 m 574 824 b 594 760 583 809 594 785 b 518 678 594 709 562 688 b 386 705 476 695 432 705 b 50 343 211 705 50 573 b 386 -17 50 114 211 -17 b 721 343 560 -17 721 114 b 618 610 721 459 680 549 b 753 774 696 632 753 685 b 712 885 753 820 733 860 l 574 824 "},"á":{"x_min":64.953125,"x_max":657.046875,"ha":742,"o":"m 64 191 b 269 -16 64 75 144 -16 b 470 70 347 -16 412 19 l 475 70 l 490 0 l 657 0 l 657 394 b 383 705 657 605 559 705 b 88 615 274 705 176 668 l 160 480 b 344 543 227 519 285 543 b 452 443 418 543 448 504 b 64 191 180 415 64 336 m 259 206 b 452 320 259 259 306 301 l 452 200 b 338 141 416 163 386 141 b 259 206 290 141 259 162 m 597 1005 l 399 1005 l 276 797 l 424 797 l 597 1005 "},"×":{"x_min":67,"x_max":667,"ha":733,"o":"m 168 156 l 367 355 l 565 156 l 667 258 l 469 457 l 667 657 l 565 760 l 367 560 l 168 760 l 67 657 l 264 457 l 67 258 l 168 156 "},"ḍ":{"x_min":54.171875,"x_max":705.5625,"ha":796,"o":"m 54 344 b 336 -16 54 119 165 -16 b 519 68 402 -16 470 19 l 525 68 l 538 0 l 705 0 l 705 973 l 501 973 l 501 739 l 509 633 b 340 705 462 678 416 705 b 54 344 194 705 54 569 m 263 347 b 387 539 263 478 322 539 b 501 494 425 539 465 528 l 501 212 b 388 150 468 166 433 150 b 263 347 309 150 263 211 m 433 -313 b 547 -206 500 -313 547 -269 b 433 -99 547 -144 500 -99 b 320 -206 366 -99 320 -144 b 433 -313 320 -269 366 -313 "},"K":{"x_min":106.9375,"x_max":861.109375,"ha":853,"o":"m 106 0 l 311 0 l 311 243 l 416 381 l 637 0 l 861 0 l 537 544 l 811 905 l 586 905 l 316 534 l 311 534 l 311 905 l 106 905 l 106 0 "},"7":{"x_min":61.109375,"x_max":675,"ha":733,"o":"m 220 0 l 426 0 b 675 756 441 344 470 509 l 675 881 l 61 881 l 61 709 l 456 709 b 220 0 290 479 237 293 "},"̈":{"x_min":-234.71875,"x_max":234.71875,"ha":0,"o":"m -137 793 b -40 890 -80 793 -40 834 b -137 986 -40 944 -80 986 b -234 890 -194 986 -234 944 b -137 793 -234 834 -194 793 m 137 793 b 234 890 194 793 234 834 b 137 986 234 944 194 986 b 40 890 80 986 40 944 b 137 793 40 834 80 793 "},"¨":{"x_min":151.390625,"x_max":620.828125,"ha":771,"o":"m 247 793 b 344 890 305 793 344 834 b 247 986 344 944 305 986 b 151 890 190 986 151 944 b 247 793 151 834 190 793 m 523 793 b 620 890 580 793 620 834 b 523 986 620 944 580 986 b 426 890 466 986 426 944 b 523 793 426 834 466 793 "},"Y":{"x_min":-11.109375,"x_max":740.28125,"ha":729,"o":"m 262 0 l 466 0 l 466 322 l 740 905 l 526 905 l 444 697 b 368 497 419 629 394 566 l 362 497 b 288 697 337 566 313 629 l 208 905 l -11 905 l 262 322 l 262 0 "},"E":{"x_min":106.9375,"x_max":687.5,"ha":761,"o":"m 106 0 l 687 0 l 687 172 l 311 172 l 311 380 l 619 380 l 619 551 l 311 551 l 311 733 l 673 733 l 673 905 l 106 905 l 106 0 "},"Ô":{"x_min":63.546875,"x_max":885.765625,"ha":950,"o":"m 474 -16 b 885 456 719 -16 885 161 b 474 922 885 751 719 922 b 63 456 230 922 63 752 b 474 -16 63 161 230 -16 m 474 159 b 273 456 351 159 273 275 b 474 745 273 637 351 745 b 676 456 598 745 676 637 b 474 159 676 275 598 159 m 398 975 l 471 1059 l 477 1059 l 551 975 l 707 975 l 574 1141 l 374 1141 l 241 975 l 398 975 "},"ổ":{"x_min":50.1875,"x_max":739.28125,"ha":771,"o":"m 50 344 b 386 -16 50 115 211 -16 b 721 344 560 -16 721 115 b 386 705 721 573 560 705 b 50 344 211 705 50 573 m 259 344 b 386 540 259 463 301 540 b 512 344 469 540 512 463 b 386 148 512 224 469 148 b 259 344 301 148 259 224 m 191 797 l 318 797 l 383 887 l 389 887 l 453 797 l 579 797 l 467 974 l 304 974 l 191 797 m 576 872 b 739 1002 665 884 739 910 b 533 1112 739 1066 686 1108 l 515 1026 b 605 980 585 1022 605 1006 b 562 941 605 956 589 947 l 576 872 "},"Ï":{"x_min":-25,"x_max":444.4375,"ha":418,"o":"m 106 0 l 311 0 l 311 905 l 106 905 l 106 0 m 72 972 b 168 1069 129 972 168 1013 b 72 1166 168 1125 129 1166 b -25 1069 13 1166 -25 1125 b 72 972 -25 1013 13 972 m 347 972 b 444 1069 404 972 444 1013 b 347 1166 444 1125 404 1166 b 250 1069 290 1166 250 1125 b 347 972 250 1013 290 972 "},"ġ":{"x_min":46.046875,"x_max":719.65625,"ha":742,"o":"m 214 -85 b 251 -17 214 -60 226 -39 b 348 -25 273 -23 301 -25 l 419 -25 b 525 -80 487 -25 525 -37 b 366 -164 525 -127 458 -164 b 214 -85 275 -164 214 -137 m 46 -117 b 334 -292 46 -239 173 -292 b 719 -45 571 -292 719 -188 b 457 129 719 78 626 129 l 346 129 b 241 180 269 129 241 145 b 266 231 241 204 248 216 b 350 218 297 222 325 218 b 621 450 501 218 621 291 b 598 540 621 486 611 519 l 708 540 l 708 688 l 457 688 b 350 705 426 700 389 705 b 65 456 201 705 65 622 b 158 277 65 376 109 311 l 158 272 b 80 143 114 241 80 193 b 144 26 80 86 108 50 l 144 21 b 46 -117 80 -14 46 -60 m 350 341 b 255 456 296 341 255 380 b 350 568 255 530 296 568 b 444 456 404 568 444 529 b 350 341 444 380 404 341 m 347 790 b 461 897 414 790 461 834 b 347 1004 461 959 414 1004 b 234 897 282 1004 234 959 b 347 790 234 834 282 790 "},"Ẳ":{"x_min":-8.328125,"x_max":804.171875,"ha":796,"o":"m 348 1119 b 508 1240 437 1126 508 1158 b 305 1352 508 1301 458 1347 l 286 1268 b 377 1222 355 1262 377 1248 b 331 1184 377 1198 358 1190 l 348 1119 m 488 1141 b 393 1066 477 1097 454 1066 b 297 1141 331 1066 308 1097 l 204 1141 b 393 975 213 1041 273 975 b 581 1141 513 975 572 1041 l 488 1141 m 297 375 l 319 458 b 390 750 344 548 368 654 l 395 750 b 469 458 419 655 444 548 l 490 375 l 297 375 m 587 0 l 804 0 l 520 905 l 275 905 l -8 0 l 200 0 l 255 215 l 531 215 l 587 0 "},"ứ":{"x_min":82.859375,"x_max":830.59375,"ha":789,"o":"m 587 1005 l 390 1005 l 266 797 l 415 797 l 587 1005 m 651 838 b 672 775 661 823 672 800 b 559 688 672 702 612 691 l 495 688 l 495 233 b 373 156 455 179 424 156 b 287 287 313 156 287 188 l 287 688 l 82 688 l 82 261 b 296 -16 82 88 146 -16 b 513 95 391 -16 455 26 l 518 95 l 533 0 l 700 0 l 700 626 b 830 788 773 648 830 700 b 790 900 830 834 811 875 l 651 838 "},"Ấ":{"x_min":-8,"x_max":805,"ha":796,"o":"m 803 1236 l 646 1236 l 550 1069 l 666 1069 l 803 1236 m 390 1051 l 396 1051 l 468 975 l 613 975 l 482 1133 l 306 1133 l 174 975 l 318 975 l 390 1051 m 297 375 l 319 458 b 390 750 345 548 368 654 l 396 750 b 470 458 420 655 445 548 l 490 375 l 297 375 m 588 0 l 805 0 l 521 905 l 275 905 l -8 0 l 200 0 l 256 215 l 532 215 l 588 0 "},"ể":{"x_min":49.578125,"x_max":727.65625,"ha":719,"o":"m 49 344 b 398 -16 49 116 200 -16 b 642 60 480 -16 572 12 l 574 184 b 425 138 524 154 477 138 b 246 288 334 138 264 184 l 659 288 b 667 374 663 305 667 338 b 374 705 667 562 570 705 b 49 344 209 705 49 567 m 245 415 b 378 549 259 506 314 549 b 494 415 460 549 494 494 l 245 415 m 181 797 l 306 797 l 371 887 l 377 887 l 441 797 l 567 797 l 455 974 l 292 974 l 181 797 m 565 872 b 727 1002 653 884 727 910 b 521 1112 727 1066 674 1108 l 503 1026 b 594 980 573 1022 594 1006 b 552 941 594 956 577 947 l 565 872 "},"b":{"x_min":90.28125,"x_max":741.671875,"ha":796,"o":"m 90 0 l 250 0 l 266 72 l 272 72 b 451 -16 326 14 390 -16 b 741 357 600 -16 741 119 b 470 705 741 568 637 705 b 288 629 406 705 341 676 l 294 734 l 294 973 l 90 973 l 90 0 m 294 194 l 294 476 b 412 539 333 519 370 539 b 531 353 494 539 531 476 b 404 150 531 211 475 150 b 294 194 369 150 330 161 "},"̃":{"x_min":-231,"x_max":230,"ha":0,"o":"m -231 798 l -126 798 b -78 861 -115 844 -101 861 b 85 798 -36 861 12 798 b 230 986 159 798 216 861 l 125 986 b 77 925 114 941 100 925 b -86 986 37 925 -13 986 b -231 798 -160 986 -217 925 "},"ﬂ":{"x_min":33.328125,"x_max":854.171875,"ha":871,"o":"m 125 687 l 33 680 l 33 529 l 125 529 l 125 0 l 329 0 l 329 529 l 452 529 l 452 688 l 329 688 l 329 730 b 408 829 329 801 358 829 b 479 815 430 829 455 823 l 516 965 b 379 990 486 976 436 990 b 125 725 193 990 125 870 l 125 687 m 829 151 b 804 148 818 148 812 148 b 768 205 787 148 768 162 l 768 973 l 563 973 l 563 213 b 751 -16 563 75 611 -16 b 854 0 797 -16 831 -9 l 829 151 "},"Ḡ":{"x_min":64.296875,"x_max":805.96875,"ha":886,"o":"m 64 447 b 503 -16 64 143 258 -16 b 805 93 629 -16 742 31 l 805 509 l 475 509 l 475 343 l 625 343 l 625 187 b 528 159 603 169 565 159 b 274 454 358 159 274 268 b 512 745 274 636 372 745 b 678 677 590 745 633 719 l 790 804 b 510 922 730 865 636 922 b 64 447 264 922 64 747 m 314 1000 l 705 1000 l 705 1129 l 314 1129 l 314 1000 "},"Ǔ":{"x_min":101.265625,"x_max":820.71875,"ha":924,"o":"m 101 419 b 463 -16 101 115 229 -16 b 820 419 697 -16 820 115 l 820 905 l 623 905 l 623 398 b 463 159 623 220 565 159 b 306 398 362 159 306 220 l 306 905 l 101 905 l 101 419 m 538 1141 l 463 1056 l 458 1056 l 384 1141 l 229 1141 l 362 975 l 560 975 l 694 1141 l 538 1141 "},"Ũ":{"x_min":101.265625,"x_max":821.140625,"ha":924,"o":"m 101 419 b 463 -16 101 115 229 -16 b 821 419 697 -16 821 115 l 821 905 l 623 905 l 623 398 b 463 159 623 220 565 159 b 306 398 362 159 306 220 l 306 905 l 101 905 l 101 419 m 548 976 b 697 1165 621 976 683 1038 l 594 1165 b 540 1102 583 1119 564 1102 b 373 1165 498 1102 448 1165 b 224 976 301 1165 238 1102 l 329 976 b 383 1038 338 1022 359 1038 b 548 976 425 1038 475 976 "},"L":{"x_min":106.9375,"x_max":669.453125,"ha":719,"o":"m 106 0 l 669 0 l 669 172 l 311 172 l 311 905 l 106 905 l 106 0 "},"ᵉ":{"x_min":33.28125,"x_max":449.984375,"ha":481,"o":"m 268 352 b 436 404 323 352 386 370 l 387 490 b 287 461 354 469 320 461 b 170 554 227 461 181 487 l 443 554 b 449 612 448 575 449 587 b 252 831 449 726 390 831 b 33 591 136 831 33 738 b 268 352 33 441 136 352 m 168 636 b 254 722 177 695 211 722 b 329 636 309 722 329 681 l 168 636 "},"ď":{"x_min":54.171875,"x_max":890.28125,"ha":853,"o":"m 54 344 b 336 -16 54 119 165 -16 b 519 68 402 -16 470 19 l 525 68 l 538 0 l 705 0 l 705 973 l 501 973 l 501 739 l 509 633 b 340 705 462 678 416 705 b 54 344 194 705 54 569 m 263 347 b 387 539 263 478 322 539 b 501 494 425 539 465 528 l 501 212 b 388 150 468 166 433 150 b 263 347 309 150 263 211 m 854 761 l 887 973 l 890 1069 l 758 1069 l 766 761 l 854 761 "},"ṯ":{"x_min":23.5625,"x_max":518,"ha":532,"o":"m 118 250 b 355 -16 118 90 184 -16 b 508 8 422 -16 472 -2 l 476 156 b 411 143 458 150 433 143 b 322 252 356 143 322 175 l 322 529 l 487 529 l 487 688 l 322 688 l 322 872 l 152 872 l 129 688 l 23 680 l 23 529 l 118 529 l 118 250 m 518 -131 l 134 -131 l 134 -262 l 518 -262 l 518 -131 "},"Ĭ":{"x_min":19.4375,"x_max":398.609375,"ha":418,"o":"m 106 0 l 311 0 l 311 905 l 106 905 l 106 0 m 209 975 b 398 1141 330 975 388 1043 l 287 1141 b 209 1077 279 1105 256 1077 b 130 1141 161 1077 138 1105 l 19 1141 b 209 975 30 1043 87 975 "},"♪":{"x_min":34.71875,"x_max":734.71875,"ha":756,"o":"m 34 80 b 190 -38 34 -2 113 -38 b 465 237 356 -38 465 57 l 465 739 b 618 541 562 707 618 623 b 598 414 618 491 612 457 l 666 386 b 734 591 701 434 734 513 b 561 872 734 702 691 783 b 461 964 491 919 477 932 l 352 964 l 352 247 b 270 264 340 255 306 264 b 34 80 138 264 34 180 "},"À":{"x_min":-8,"x_max":805,"ha":796,"o":"m 497 975 l 385 1141 l 168 1141 l 335 975 l 497 975 m 297 375 l 319 458 b 390 750 345 548 368 654 l 396 750 b 470 458 420 655 445 548 l 490 375 l 297 375 m 588 0 l 805 0 l 521 905 l 275 905 l -8 0 l 200 0 l 256 215 l 532 215 l 588 0 "},"̊":{"x_min":-156.9375,"x_max":156.9375,"ha":0,"o":"m 0 761 b 156 902 93 761 156 816 b 0 1044 156 988 93 1044 b -156 902 -93 1044 -156 988 b 0 761 -156 816 -93 761 m 0 837 b -56 902 -31 837 -56 863 b 0 968 -56 941 -31 968 b 56 902 31 968 56 941 b 0 837 56 863 31 837 "},"½":{"x_min":63.875,"x_max":1115.15625,"ha":1175,"o":"m 187 363 l 338 363 l 338 905 l 219 905 b 63 845 173 873 138 856 l 63 752 l 187 752 l 187 363 m 354 -16 l 843 922 l 724 922 l 236 -16 l 354 -16 m 713 0 l 1115 0 l 1115 125 l 952 125 b 1095 375 1027 209 1095 287 b 895 558 1095 491 1015 558 b 688 447 812 558 744 520 l 773 369 b 872 434 804 409 836 434 b 951 350 922 434 951 402 b 713 80 951 281 852 194 l 713 0 "},"'":{"x_min":105.5625,"x_max":311.109375,"ha":417,"o":"m 152 491 l 263 491 l 304 768 l 311 952 l 105 952 l 112 768 l 152 491 "},"Ḷ":{"x_min":106.9375,"x_max":669.453125,"ha":719,"o":"m 106 0 l 669 0 l 669 172 l 311 172 l 311 905 l 106 905 l 106 0 m 402 -313 b 516 -206 469 -313 516 -269 b 402 -100 516 -144 469 -100 b 290 -206 336 -100 290 -144 b 402 -313 290 -269 336 -313 "},"˛":{"x_min":265.28125,"x_max":552.78125,"ha":771,"o":"m 265 -165 b 412 -291 265 -248 330 -291 b 552 -245 456 -291 518 -273 l 511 -154 b 461 -170 498 -162 479 -170 b 402 -118 431 -170 402 -155 b 477 2 402 -76 427 -37 l 363 2 b 265 -165 326 -22 265 -83 "},"⁷":{"x_min":69.625,"x_max":477.96875,"ha":522,"o":"m 162 611 l 321 611 b 477 1072 330 794 354 915 l 477 1152 l 69 1152 l 69 1027 l 311 1027 b 162 611 216 884 172 779 "},"ǔ":{"x_min":83.40625,"x_max":700.078125,"ha":789,"o":"m 83 261 b 297 -16 83 88 147 -16 b 513 95 391 -16 455 26 l 518 95 l 533 0 l 700 0 l 700 688 l 495 688 l 495 233 b 373 156 455 179 425 156 b 287 287 313 156 287 188 l 287 688 l 83 688 l 83 261 m 315 797 l 477 797 l 609 1005 l 472 1005 l 398 895 l 393 895 l 319 1005 l 182 1005 l 315 797 "},"Ć":{"x_min":63.890625,"x_max":777.78125,"ha":808,"o":"m 63 447 b 490 -16 63 143 255 -16 b 777 116 602 -16 702 29 l 665 240 b 493 159 620 191 566 159 b 273 454 359 159 273 268 b 498 745 273 636 372 745 b 651 677 561 745 605 719 l 763 804 b 495 922 702 866 608 922 b 63 447 262 922 63 747 m 701 1141 l 484 1141 l 372 975 l 536 975 l 701 1141 "},"ẓ":{"x_min":52.859375,"x_max":605.640625,"ha":639,"o":"m 52 0 l 605 0 l 605 159 l 307 159 l 595 580 l 595 688 l 84 688 l 84 529 l 341 529 l 52 109 l 52 0 m 340 -313 b 454 -206 407 -313 454 -269 b 340 -100 454 -144 407 -100 b 227 -206 275 -100 227 -144 b 340 -313 227 -269 275 -313 "},"£":{"x_min":66.90625,"x_max":690.21875,"ha":733,"o":"m 330 177 b 393 337 374 227 393 270 b 390 376 393 350 391 363 l 569 376 l 569 502 l 363 502 b 348 602 355 536 348 569 b 469 733 348 691 395 733 b 579 675 513 733 547 713 l 690 786 b 449 898 627 858 552 898 b 153 613 277 898 153 788 b 175 502 153 577 162 540 l 166 502 l 72 495 l 72 376 l 211 376 b 214 338 212 363 214 351 b 66 126 214 240 150 163 l 66 0 l 690 0 l 690 172 l 330 172 l 330 177 "},"ẹ":{"x_min":49.875,"x_max":667.9375,"ha":719,"o":"m 49 344 b 398 -16 49 116 201 -16 b 642 61 480 -16 572 12 l 574 184 b 426 138 524 154 477 138 b 247 288 334 138 265 184 l 659 288 b 667 375 663 305 667 338 b 374 705 667 562 570 705 b 49 344 209 705 49 568 m 245 415 b 379 550 259 506 315 550 b 494 415 461 550 494 494 l 245 415 m 373 -313 b 487 -206 440 -313 487 -269 b 373 -100 487 -144 440 -100 b 261 -206 308 -100 261 -144 b 373 -313 261 -269 308 -313 "},"ů":{"x_min":83.328125,"x_max":700,"ha":789,"o":"m 83 261 b 297 -16 83 88 147 -16 b 513 95 391 -16 455 26 l 518 95 l 533 0 l 700 0 l 700 688 l 495 688 l 495 233 b 373 156 455 179 425 156 b 287 287 313 156 287 188 l 287 688 l 83 688 l 83 261 m 395 761 b 552 902 488 761 552 816 b 395 1044 552 988 488 1044 b 238 902 302 1044 238 988 b 395 761 238 816 302 761 m 395 837 b 338 902 363 837 338 863 b 395 968 338 941 363 968 b 452 902 427 968 452 941 b 395 837 452 863 427 837 "},"ɡ":{"x_min":61.015625,"x_max":712.390625,"ha":810,"o":"m 172 -58 l 105 -193 b 362 -269 184 -244 287 -269 b 712 6 586 -269 712 -172 l 712 688 l 548 688 l 533 625 l 527 625 b 351 705 476 681 420 705 b 61 356 206 705 61 568 b 342 18 61 158 172 18 b 513 87 406 18 467 45 l 508 1 b 362 -109 501 -63 463 -109 b 172 -58 306 -109 237 -94 m 395 181 b 267 359 316 181 267 245 b 394 538 267 475 326 538 b 508 494 431 538 472 527 l 508 247 b 395 181 472 198 440 181 "},"Ō":{"x_min":63.890625,"x_max":886.109375,"ha":950,"o":"m 475 -16 b 886 456 719 -16 886 161 b 475 922 886 751 719 922 b 63 456 230 922 63 752 b 475 -16 63 161 230 -16 m 475 159 b 273 456 351 159 273 275 b 475 745 273 637 351 745 b 676 456 598 745 676 637 b 475 159 676 275 598 159 m 279 1000 l 670 1000 l 670 1129 l 279 1129 l 279 1000 "},"Ğ":{"x_min":64.078125,"x_max":805.96875,"ha":886,"o":"m 64 447 b 502 -16 64 143 258 -16 b 805 93 629 -16 742 31 l 805 509 l 475 509 l 475 343 l 625 343 l 625 187 b 527 159 602 169 565 159 b 273 454 358 159 273 268 b 512 745 273 636 372 745 b 677 677 590 745 633 719 l 790 804 b 509 922 730 865 636 922 b 64 447 264 922 64 747 m 509 975 b 700 1141 630 975 689 1043 l 587 1141 b 509 1077 579 1105 557 1077 b 432 1141 462 1077 440 1105 l 319 1141 b 509 975 330 1043 389 975 "},"v":{"x_min":16.9375,"x_max":710,"ha":726,"o":"m 248 0 l 485 0 l 710 688 l 514 688 l 423 363 b 371 151 405 295 387 223 l 365 151 b 311 363 347 223 329 295 l 222 688 l 16 688 l 248 0 "},"û":{"x_min":82.921875,"x_max":700.078125,"ha":789,"o":"m 82 261 b 296 -16 82 88 146 -16 b 513 95 391 -16 455 26 l 518 95 l 533 0 l 700 0 l 700 688 l 495 688 l 495 233 b 373 156 455 179 424 156 b 287 287 313 156 287 188 l 287 688 l 82 688 l 82 261 m 181 797 l 319 797 l 392 906 l 398 906 l 472 797 l 609 797 l 477 1005 l 315 1005 l 181 797 "},"Ź":{"x_min":50.15625,"x_max":705.9375,"ha":751,"o":"m 50 0 l 705 0 l 705 172 l 301 172 l 701 781 l 701 905 l 87 905 l 87 733 l 450 733 l 50 123 l 50 0 m 618 1141 l 401 1141 l 289 975 l 453 975 l 618 1141 "},"ʻ":{"x_min":76.390625,"x_max":318.0625,"ha":417,"o":"m 273 947 b 76 650 140 882 76 781 b 206 468 76 536 120 468 b 313 582 268 468 313 513 b 206 684 313 645 265 684 b 193 682 202 684 197 684 b 318 859 193 765 234 817 l 273 947 "},"ˉ":{"x_min":22.21875,"x_max":405.5625,"ha":428,"o":"m 22 822 l 405 822 l 405 951 l 22 951 l 22 822 "},"ḻ":{"x_min":71.734375,"x_max":455.0625,"ha":397,"o":"m 89 213 b 277 -16 89 75 137 -16 b 380 0 323 -16 357 -9 l 355 151 b 330 148 343 148 338 148 b 293 205 313 148 293 162 l 293 973 l 89 973 l 89 213 m 455 -131 l 71 -131 l 71 -262 l 455 -262 l 455 -131 "},"Ĺ":{"x_min":107,"x_max":669.5,"ha":719,"o":"m 107 0 l 669 0 l 669 172 l 311 172 l 311 905 l 107 905 l 107 0 m 438 1141 l 222 1141 l 109 975 l 273 975 l 438 1141 "},"ỵ":{"x_min":16.375,"x_max":733.046875,"ha":724,"o":"m 105 -100 l 69 -255 b 166 -269 96 -264 124 -269 b 467 -7 328 -269 402 -180 l 706 688 l 510 688 l 427 393 b 380 197 410 327 395 262 l 374 197 b 320 393 356 265 340 330 l 221 688 l 16 688 l 281 17 l 271 -18 b 151 -108 253 -72 219 -108 b 105 -100 135 -108 117 -102 m 620 -302 b 733 -195 687 -302 733 -258 b 620 -89 733 -133 687 -89 b 506 -195 553 -89 506 -133 b 620 -302 506 -258 553 -302 "},"₤":{"x_min":66.890625,"x_max":690.5625,"ha":733,"o":"m 330 177 b 391 301 366 218 385 254 l 569 301 l 569 404 l 386 404 b 372 470 382 426 378 448 l 569 470 l 569 575 l 350 575 b 348 602 348 584 348 593 b 469 733 348 691 396 733 b 579 675 514 733 547 713 l 690 786 b 450 898 628 858 553 898 b 153 613 278 898 153 788 b 157 575 153 601 154 587 l 153 575 l 72 566 l 72 470 l 186 470 b 205 404 193 448 200 426 l 175 404 l 72 397 l 72 301 l 211 301 b 66 126 197 220 139 158 l 66 0 l 690 0 l 690 172 l 330 172 l 330 177 "},"‒":{"x_min":59.71875,"x_max":673.609375,"ha":733,"o":"m 59 286 l 673 286 l 673 416 l 59 416 l 59 286 "},"ḇ":{"x_min":90.28125,"x_max":741.671875,"ha":796,"o":"m 90 0 l 250 0 l 266 72 l 272 72 b 451 -16 326 14 390 -16 b 741 357 600 -16 741 119 b 470 705 741 568 637 705 b 288 629 406 705 341 676 l 294 734 l 294 973 l 90 973 l 90 0 m 294 194 l 294 476 b 412 539 333 519 370 539 b 531 353 494 539 531 476 b 404 150 531 211 475 150 b 294 194 369 150 330 161 m 598 -131 l 215 -131 l 215 -262 l 598 -262 l 598 -131 "},"Č":{"x_min":64.234375,"x_max":778.125,"ha":808,"o":"m 64 447 b 490 -16 64 143 255 -16 b 778 116 603 -16 703 29 l 665 240 b 493 159 621 191 567 159 b 273 454 360 159 273 268 b 498 745 273 636 372 745 b 651 677 561 745 605 719 l 764 804 b 496 922 703 866 608 922 b 64 447 262 922 64 747 m 553 1141 l 479 1056 l 473 1056 l 400 1141 l 243 1141 l 376 975 l 576 975 l 710 1141 l 553 1141 "},"x":{"x_min":19,"x_max":694,"ha":714,"o":"m 19 0 l 230 0 l 284 113 b 337 233 300 154 320 194 l 342 233 b 407 113 364 194 385 152 l 474 0 l 694 0 l 481 334 l 681 688 l 470 688 l 423 577 b 375 459 407 538 389 498 l 370 459 b 312 577 350 498 330 538 l 250 688 l 31 688 l 230 358 l 19 0 "},"è":{"x_min":49.875,"x_max":667.9375,"ha":719,"o":"m 49 344 b 398 -16 49 116 201 -16 b 642 61 480 -16 572 12 l 574 184 b 426 138 524 154 477 138 b 247 288 334 138 265 184 l 659 288 b 667 375 663 305 667 338 b 374 705 667 562 570 705 b 49 344 209 705 49 568 m 245 415 b 379 550 259 506 315 550 b 494 415 461 550 494 494 l 245 415 m 338 797 l 488 797 l 365 1005 l 167 1005 l 338 797 "},"Ń":{"x_min":106.625,"x_max":816.296875,"ha":924,"o":"m 106 0 l 301 0 l 301 320 b 276 648 301 427 284 548 l 281 648 l 370 451 l 606 0 l 816 0 l 816 905 l 621 905 l 621 586 b 646 255 621 479 638 351 l 641 255 l 552 455 l 316 905 l 106 905 l 106 0 m 687 1141 l 470 1141 l 359 975 l 521 975 l 687 1141 "},"Ṇ":{"x_min":106.625,"x_max":816.375,"ha":924,"o":"m 106 0 l 301 0 l 301 320 b 276 648 301 427 284 548 l 281 648 l 370 451 l 606 0 l 816 0 l 816 905 l 621 905 l 621 586 b 646 255 621 479 638 351 l 641 255 l 552 455 l 316 905 l 106 905 l 106 0 m 477 -313 b 589 -206 544 -313 589 -269 b 477 -100 589 -144 544 -100 b 363 -206 410 -100 363 -144 b 477 -313 363 -269 410 -313 "},".":{"x_min":84.71875,"x_max":331.9375,"ha":417,"o":"m 84 111 b 208 -16 84 38 137 -16 b 331 111 279 -16 331 38 b 208 240 331 184 279 240 b 84 111 137 240 84 184 "},"ṣ":{"x_min":27.78125,"x_max":575.015625,"ha":615,"o":"m 27 79 b 291 -16 97 22 201 -16 b 575 205 476 -16 575 80 b 388 412 575 331 476 380 b 254 500 318 438 254 455 b 331 554 254 534 279 554 b 477 495 380 554 427 531 l 569 618 b 326 705 509 662 431 705 b 62 490 166 705 62 618 b 244 287 62 376 161 319 b 384 193 315 259 384 238 b 297 134 384 156 358 134 b 119 206 238 134 181 159 l 27 79 m 320 -313 b 434 -206 387 -313 434 -269 b 320 -100 434 -144 387 -100 b 208 -206 255 -100 208 -144 b 320 -313 208 -269 255 -313 "},"Ǎ":{"x_min":-8,"x_max":805,"ha":796,"o":"m 493 975 l 627 1141 l 470 1141 l 396 1056 l 390 1056 l 317 1141 l 160 1141 l 293 975 l 493 975 m 297 375 l 319 458 b 390 750 345 548 368 654 l 396 750 b 470 458 420 655 445 548 l 490 375 l 297 375 m 588 0 l 805 0 l 521 905 l 275 905 l -8 0 l 200 0 l 256 215 l 532 215 l 588 0 "},"‘":{"x_min":76.390625,"x_max":318.0625,"ha":417,"o":"m 273 947 b 76 650 140 882 76 781 b 206 468 76 536 120 468 b 313 582 268 468 313 513 b 206 684 313 645 265 684 b 193 682 202 684 197 684 b 318 859 193 765 234 817 l 273 947 "},"π":{"x_min":25,"x_max":804.171875,"ha":842,"o":"m 144 0 l 345 0 l 347 527 l 506 527 l 506 219 b 698 -16 506 77 555 -16 b 804 1 745 -16 780 -9 l 780 151 b 752 148 768 148 761 148 b 711 211 731 148 711 165 l 711 527 l 804 527 l 804 688 l 127 688 l 25 680 l 25 527 l 144 527 l 144 0 "},"Ỏ":{"x_min":63.890625,"x_max":886.109375,"ha":950,"o":"m 475 -16 b 886 456 719 -16 886 161 b 475 922 886 751 719 922 b 63 456 230 922 63 752 b 475 -16 63 161 230 -16 m 475 159 b 273 456 351 159 273 275 b 475 745 273 637 351 745 b 676 456 598 745 676 637 b 475 159 676 275 598 159 m 426 959 b 619 1104 530 968 619 1008 b 386 1230 619 1177 558 1226 l 362 1129 b 472 1081 441 1123 472 1108 b 411 1040 472 1056 444 1047 l 426 959 "},"Ớ":{"x_min":65.53125,"x_max":911.4375,"ha":950,"o":"m 700 1141 l 483 1141 l 371 974 l 534 974 l 700 1141 m 476 159 b 275 456 353 159 275 274 b 476 745 275 637 353 745 b 678 456 600 745 678 637 b 476 159 678 274 600 159 m 730 1027 b 753 963 741 1010 753 988 b 669 879 753 912 723 891 b 476 922 614 906 548 922 b 65 456 232 922 65 752 b 476 -16 65 161 232 -16 b 887 456 721 -16 887 161 b 764 810 887 610 842 730 b 911 977 853 835 911 887 b 869 1088 911 1023 892 1063 l 730 1027 "},"9":{"x_min":47,"x_max":674.78125,"ha":733,"o":"m 349 475 b 233 602 283 475 233 509 b 344 745 233 702 284 745 b 481 562 406 745 463 701 b 349 475 442 498 394 475 m 59 89 b 317 -16 115 33 201 -16 b 674 461 502 -16 674 132 b 340 898 674 770 510 898 b 47 602 180 898 47 786 b 309 330 47 416 159 330 b 485 423 363 330 440 365 b 303 148 478 218 402 148 b 167 211 252 148 197 177 l 59 89 "},"Ṟ":{"x_min":107,"x_max":826.453125,"ha":856,"o":"m 311 743 l 416 743 b 582 623 523 743 582 712 b 416 488 582 534 523 488 l 311 488 l 311 743 m 311 326 l 423 326 l 597 0 l 826 0 l 620 362 b 782 623 718 405 782 490 b 433 905 782 838 625 905 l 107 905 l 107 0 l 311 0 l 311 326 m 262 -262 l 645 -262 l 645 -131 l 262 -131 l 262 -262 "},"l":{"x_min":90.28125,"x_max":380.5625,"ha":397,"o":"m 90 213 b 277 -16 90 75 137 -16 b 380 0 323 -16 358 -9 l 355 151 b 330 148 344 148 338 148 b 294 205 313 148 294 162 l 294 973 l 90 973 l 90 213 "},"⅔":{"x_min":40.515625,"x_max":1125.140625,"ha":1179,"o":"m 64 364 l 466 364 l 466 489 l 303 489 b 447 739 379 573 447 650 b 247 922 447 855 366 922 b 40 811 164 922 96 883 l 125 733 b 223 798 155 773 186 798 b 303 712 273 798 303 766 b 64 444 303 645 204 558 l 64 364 m 415 -16 l 904 922 l 786 922 l 297 -16 l 415 -16 m 694 93 b 914 -16 741 22 819 -16 b 1125 151 1026 -16 1125 51 b 1026 282 1125 215 1080 259 b 1104 407 1075 311 1104 350 b 915 558 1104 501 1016 558 b 716 465 830 558 775 529 l 801 390 b 890 444 826 420 855 444 b 957 386 930 444 957 422 b 848 319 957 340 915 319 l 848 233 b 977 162 934 233 977 209 b 898 97 977 120 943 97 b 784 164 852 97 818 118 l 694 93 "},"Ẫ":{"x_min":-8.4375,"x_max":804.0625,"ha":796,"o":"m 509 1341 b 459 1287 502 1304 483 1287 b 313 1341 420 1287 380 1341 b 186 1183 252 1341 197 1291 l 276 1183 b 326 1236 284 1220 302 1236 b 472 1183 365 1236 405 1183 b 599 1341 533 1183 588 1233 l 509 1341 m 390 1051 l 395 1051 l 467 975 l 612 975 l 481 1133 l 305 1133 l 173 975 l 317 975 l 390 1051 m 297 375 l 319 458 b 390 750 344 548 367 654 l 395 750 b 469 458 419 655 444 548 l 490 375 l 297 375 m 587 0 l 804 0 l 520 905 l 274 905 l -8 0 l 199 0 l 255 215 l 531 215 l 587 0 "},"‽":{"x_min":22.671875,"x_max":608.921875,"ha":667,"o":"m 303 240 b 181 111 232 240 181 184 b 303 -16 181 39 232 -16 b 426 111 374 -16 426 39 b 303 240 426 184 374 240 m 135 718 b 296 794 183 768 231 794 b 424 679 368 794 424 751 b 357 519 424 608 390 566 l 357 557 l 363 707 l 199 707 l 214 557 l 239 320 l 297 320 l 358 320 l 381 320 b 608 716 363 444 608 491 b 310 947 608 859 481 947 b 22 820 204 947 93 900 l 135 718 "},"Ś":{"x_min":48.484375,"x_max":724.96875,"ha":772,"o":"m 48 113 b 383 -16 140 27 265 -16 b 724 263 599 -16 724 113 b 545 509 724 391 655 465 l 429 556 b 291 663 351 588 291 608 b 406 745 291 715 336 745 b 594 673 479 745 534 719 l 698 802 b 406 922 620 880 511 922 b 84 652 217 922 84 802 b 266 405 84 520 173 443 l 384 355 b 515 247 463 322 515 304 b 388 159 515 193 473 159 b 165 254 313 159 230 198 l 48 113 m 629 1141 l 412 1141 l 299 975 l 463 975 l 629 1141 "},"Ü":{"x_min":101.390625,"x_max":820.828125,"ha":924,"o":"m 101 419 b 463 -16 101 115 229 -16 b 820 419 697 -16 820 115 l 820 905 l 623 905 l 623 398 b 463 159 623 220 565 159 b 306 398 362 159 306 220 l 306 905 l 101 905 l 101 419 m 323 972 b 420 1069 380 972 420 1013 b 323 1166 420 1125 380 1166 b 226 1069 266 1166 226 1125 b 323 972 226 1013 266 972 m 598 972 b 695 1069 655 972 695 1013 b 598 1166 695 1125 655 1166 b 501 1069 541 1166 501 1125 b 598 972 501 1013 541 972 "},"à":{"x_min":64.953125,"x_max":657.125,"ha":742,"o":"m 64 191 b 269 -16 64 75 144 -16 b 470 70 347 -16 412 19 l 475 70 l 490 0 l 657 0 l 657 394 b 383 705 657 605 559 705 b 88 615 274 705 176 668 l 160 480 b 344 543 227 519 286 543 b 452 443 418 543 448 504 b 64 191 180 415 64 336 m 259 206 b 452 320 259 259 306 301 l 452 200 b 338 141 416 163 386 141 b 259 206 290 141 259 162 m 354 797 l 502 797 l 380 1005 l 181 1005 l 354 797 "},"ó":{"x_min":50.359375,"x_max":721.203125,"ha":771,"o":"m 50 344 b 386 -16 50 115 211 -16 b 721 344 560 -16 721 115 b 386 705 721 573 560 705 b 50 344 211 705 50 573 m 260 344 b 386 540 260 463 301 540 b 512 344 469 540 512 463 b 386 148 512 225 469 148 b 260 344 301 148 260 225 m 593 1005 l 396 1005 l 272 797 l 421 797 l 593 1005 "},"₀":{"x_min":36.109375,"x_max":487.5,"ha":522,"o":"m 261 -369 b 487 -80 391 -369 487 -262 b 261 205 487 100 391 205 b 36 -80 130 205 36 100 b 261 -369 36 -262 130 -369 m 261 -255 b 177 -80 215 -255 177 -209 b 261 91 177 48 215 91 b 344 -80 306 91 344 48 b 261 -255 344 -209 306 -255 "},"⟧":{"x_min":63.890625,"x_max":486.109375,"ha":607,"o":"m 486 983 l 63 983 l 63 875 l 193 875 l 193 -102 l 63 -102 l 63 -211 l 486 -211 l 486 983 m 368 875 l 368 -102 l 298 -102 l 298 875 l 368 875 "},"¦":{"x_min":119.4375,"x_max":252.78125,"ha":372,"o":"m 119 433 l 252 433 l 252 1041 l 119 1041 l 119 433 m 119 283 l 119 -347 l 252 -347 l 252 283 l 119 283 "},"̛":{"x_min":-13.890625,"x_max":237.5,"ha":0,"o":"m 1 592 b 237 774 130 599 237 652 b 197 886 237 820 218 861 l 56 824 b 79 761 68 808 79 786 b -13 674 79 702 41 684 l 1 592 "},"ᵃ":{"x_min":40.046875,"x_max":444.4375,"ha":499,"o":"m 180 353 b 309 410 233 353 276 376 l 315 410 l 329 364 l 444 364 l 444 626 b 256 832 444 765 374 832 b 55 771 184 832 116 807 l 106 676 b 231 718 151 701 194 718 b 300 657 276 718 295 697 b 40 492 117 640 40 589 b 180 353 40 415 94 353 m 229 461 b 177 503 197 461 177 476 b 300 574 177 536 208 564 l 300 497 b 229 461 276 475 256 461 "},"Ỷ":{"x_min":-11.109375,"x_max":740.28125,"ha":729,"o":"m 262 0 l 466 0 l 466 322 l 740 905 l 526 905 l 444 697 b 368 497 419 629 394 566 l 362 497 b 288 697 337 566 313 629 l 208 905 l -11 905 l 262 322 l 262 0 m 315 959 b 508 1104 420 968 508 1008 b 275 1230 508 1177 447 1226 l 251 1129 b 362 1081 330 1123 362 1108 b 300 1040 362 1056 334 1047 l 315 959 "},"Ő":{"x_min":63.65625,"x_max":885.890625,"ha":950,"o":"m 474 -16 b 885 456 719 -16 885 161 b 474 922 885 751 719 922 b 63 456 230 922 63 752 b 474 -16 63 161 230 -16 m 474 159 b 273 456 351 159 273 275 b 474 745 273 637 351 745 b 676 456 598 745 676 637 b 474 159 676 275 598 159 m 422 975 l 545 1141 l 372 1141 l 284 975 l 422 975 m 534 975 l 670 975 l 795 1141 l 622 1141 l 534 975 "},"ṭ":{"x_min":23.609375,"x_max":508.328125,"ha":532,"o":"m 118 250 b 355 -16 118 90 184 -16 b 508 8 422 -16 472 -2 l 476 156 b 411 143 458 150 433 143 b 322 252 356 143 322 175 l 322 529 l 487 529 l 487 688 l 322 688 l 322 872 l 152 872 l 129 688 l 23 680 l 23 529 l 118 529 l 118 250 m 327 -313 b 440 -206 393 -313 440 -269 b 327 -100 440 -144 393 -100 b 213 -206 261 -100 213 -144 b 327 -313 213 -269 261 -313 "},"Ž":{"x_min":50.078125,"x_max":705.734375,"ha":751,"o":"m 50 0 l 705 0 l 705 172 l 301 172 l 701 781 l 701 905 l 87 905 l 87 733 l 450 733 l 50 123 l 50 0 m 469 1141 l 396 1056 l 390 1056 l 316 1141 l 159 1141 l 293 975 l 493 975 l 626 1141 l 469 1141 "},"Î":{"x_min":-23.609375,"x_max":441.671875,"ha":418,"o":"m 106 0 l 311 0 l 311 905 l 106 905 l 106 0 m 131 975 l 206 1059 l 212 1059 l 286 975 l 441 975 l 308 1141 l 109 1141 l -23 975 l 131 975 "},"e":{"x_min":49.875,"x_max":667.9375,"ha":719,"o":"m 49 344 b 398 -16 49 116 201 -16 b 642 61 480 -16 572 12 l 574 184 b 426 138 524 154 477 138 b 247 288 334 138 265 184 l 659 288 b 667 375 663 305 667 338 b 374 705 667 562 570 705 b 49 344 209 705 49 568 m 245 415 b 379 550 259 506 315 550 b 494 415 461 550 494 494 l 245 415 "},"Ề":{"x_min":106.9375,"x_max":730.546875,"ha":761,"o":"m 106 0 l 687 0 l 687 172 l 311 172 l 311 380 l 619 380 l 619 551 l 311 551 l 311 733 l 673 733 l 673 905 l 106 905 l 106 0 m 636 1236 l 477 1236 l 615 1069 l 730 1069 l 636 1236 m 180 975 l 324 975 l 397 1051 l 402 1051 l 476 975 l 620 975 l 488 1133 l 312 1133 l 180 975 "},"Ĕ":{"x_min":106.90625,"x_max":687.46875,"ha":761,"o":"m 106 0 l 687 0 l 687 172 l 311 172 l 311 380 l 619 380 l 619 551 l 311 551 l 311 733 l 673 733 l 673 905 l 106 905 l 106 0 m 399 975 b 590 1141 522 975 579 1043 l 479 1141 b 399 1077 470 1105 448 1077 b 322 1141 352 1077 330 1105 l 211 1141 b 399 975 220 1043 279 975 "},"ļ":{"x_min":89.96875,"x_max":383,"ha":397,"o":"m 89 213 b 277 -16 89 75 137 -16 b 380 0 323 -16 358 -9 l 355 151 b 330 148 344 148 338 148 b 294 205 313 148 294 162 l 294 973 l 89 973 l 89 213 m 214 -58 l 176 -133 b 235 -184 216 -144 235 -158 b 120 -236 235 -216 187 -229 l 135 -318 b 383 -175 267 -311 383 -269 b 214 -58 383 -105 338 -70 "},"ị":{"x_min":73.609375,"x_max":309.71875,"ha":383,"o":"m 191 790 b 309 897 261 790 309 834 b 191 1002 309 959 261 1002 b 73 897 123 1002 73 959 b 191 790 73 834 123 790 m 90 0 l 294 0 l 294 688 l 90 688 l 90 0 m 191 -313 b 305 -206 258 -313 305 -269 b 191 -100 305 -144 258 -100 b 79 -206 126 -100 79 -144 b 191 -313 79 -269 126 -313 "},"Ṃ":{"x_min":107.4375,"x_max":951.234375,"ha":1058,"o":"m 107 0 l 294 0 l 294 331 b 269 640 294 420 279 552 l 275 640 l 347 430 l 486 79 l 568 79 l 706 430 l 781 640 l 787 640 b 760 331 777 552 760 420 l 760 0 l 951 0 l 951 905 l 736 905 l 588 498 l 534 340 l 529 340 l 475 498 l 324 905 l 107 905 l 107 0 m 532 -313 b 644 -206 598 -313 644 -269 b 532 -100 644 -144 598 -100 b 419 -206 465 -100 419 -144 b 532 -313 419 -269 465 -313 "},"ò":{"x_min":50,"x_max":720.828125,"ha":771,"o":"m 50 344 b 386 -16 50 115 211 -16 b 720 344 559 -16 720 115 b 386 705 720 573 559 705 b 50 344 211 705 50 573 m 259 344 b 386 540 259 463 301 540 b 512 344 469 540 512 463 b 386 148 512 225 469 148 b 259 344 301 148 259 225 m 350 797 l 498 797 l 375 1005 l 177 1005 l 350 797 "},"^":{"x_min":69,"x_max":663,"ha":733,"o":"m 69 380 l 236 380 l 300 558 l 363 745 l 368 745 l 431 558 l 495 380 l 663 380 l 447 930 l 284 930 l 69 380 "},"∙":{"x_min":243.0625,"x_max":488.890625,"ha":735,"o":"m 243 456 b 366 327 243 384 295 327 b 488 456 437 327 488 384 b 366 584 488 529 437 584 b 243 456 295 584 243 529 "},"ⁿ":{"x_min":58.328125,"x_max":480.5625,"ha":533,"o":"m 58 363 l 202 363 l 202 668 b 281 711 230 695 252 711 b 336 627 329 711 336 683 l 336 363 l 480 363 l 480 644 b 336 831 480 758 440 831 b 188 761 275 831 226 798 l 186 761 l 173 820 l 58 820 l 58 363 "},"ǘ":{"x_min":83.9375,"x_max":699.078125,"ha":789,"o":"m 83 261 b 297 -16 83 88 147 -16 b 513 95 391 -16 455 26 l 517 95 l 532 0 l 699 0 l 699 688 l 495 688 l 495 233 b 373 156 455 179 424 156 b 288 287 314 156 288 188 l 288 688 l 83 688 l 83 261 m 302 1023 l 431 1023 l 590 1177 l 416 1177 l 302 1023 m 258 793 b 344 877 308 793 344 830 b 258 963 344 926 308 963 b 172 877 208 963 172 926 b 258 793 172 830 208 793 m 532 793 b 618 877 582 793 618 830 b 532 963 618 926 582 963 b 447 877 482 963 447 926 b 532 793 447 830 483 793 "},"ᵒ":{"x_min":33.328125,"x_max":483.328125,"ha":518,"o":"m 258 352 b 483 591 376 352 483 440 b 258 831 483 743 376 831 b 33 591 140 831 33 743 b 258 352 33 440 140 352 m 258 466 b 180 591 204 466 180 516 b 258 718 180 668 204 718 b 337 591 312 718 337 668 b 258 466 337 516 312 466 "},"ṉ":{"x_min":90.28125,"x_max":711.109375,"ha":794,"o":"m 90 0 l 294 0 l 294 465 b 422 531 338 508 370 531 b 506 401 480 531 506 501 l 506 0 l 711 0 l 711 427 b 497 705 711 600 647 705 b 276 601 404 705 334 656 l 270 601 l 256 688 l 90 688 l 90 0 m 595 -131 l 212 -131 l 212 -262 l 595 -262 l 595 -131 "},"ū":{"x_min":83.328125,"x_max":700,"ha":789,"o":"m 83 261 b 297 -16 83 88 147 -16 b 513 95 391 -16 455 26 l 518 95 l 533 0 l 700 0 l 700 688 l 495 688 l 495 233 b 373 156 455 179 425 156 b 287 287 313 156 287 188 l 287 688 l 83 688 l 83 261 m 202 822 l 586 822 l 586 951 l 202 951 l 202 822 "},"ˆ":{"x_min":171,"x_max":600,"ha":771,"o":"m 171 797 l 308 797 l 383 906 l 388 906 l 462 797 l 600 797 l 466 1005 l 304 1005 l 171 797 "},"ȷ":{"x_min":-70.828125,"x_max":295.828125,"ha":386,"o":"m 91 -1 b 19 -112 91 -77 73 -112 b -34 -102 0 -112 -16 -108 l -70 -252 b 50 -272 -43 -263 -6 -272 b 295 4 237 -272 295 -145 l 295 688 l 91 688 l 91 -1 "},"Ẅ":{"x_min":19.4375,"x_max":1111.109375,"ha":1129,"o":"m 187 0 l 440 0 l 525 411 b 562 620 540 480 551 554 l 568 620 b 604 411 577 554 588 480 l 693 0 l 950 0 l 1111 905 l 915 905 l 852 481 b 815 195 840 388 827 293 l 809 195 b 755 481 791 293 773 390 l 658 905 l 484 905 l 387 481 b 333 195 369 387 351 291 l 327 195 b 291 481 316 291 302 387 l 229 905 l 19 905 l 187 0 m 427 972 b 525 1069 484 972 525 1013 b 427 1166 525 1125 484 1166 b 330 1069 370 1166 330 1125 b 427 972 330 1013 370 972 m 702 972 b 800 1069 759 972 800 1013 b 702 1166 800 1125 759 1166 b 605 1069 645 1166 605 1125 b 702 972 605 1013 645 972 "},"č":{"x_min":50,"x_max":619.4375,"ha":649,"o":"m 50 344 b 390 -16 50 115 198 -16 b 619 69 465 -16 552 11 l 537 198 b 413 148 504 172 463 148 b 259 344 325 148 259 225 b 420 540 259 463 322 540 b 516 500 452 540 483 527 l 609 626 b 408 705 563 673 493 705 b 50 344 218 705 50 573 m 322 797 l 484 797 l 618 1005 l 480 1005 l 405 895 l 400 895 l 326 1005 l 188 1005 l 322 797 "},"’":{"x_min":98.609375,"x_max":341.671875,"ha":417,"o":"m 143 489 b 341 786 276 554 341 655 b 211 968 341 901 295 968 b 104 854 148 968 104 923 b 211 753 104 791 151 753 b 223 754 215 753 219 753 b 98 578 223 671 181 619 l 143 489 "},"-":{"x_min":59.71875,"x_max":401.390625,"ha":461,"o":"m 59 279 l 401 279 l 401 423 l 59 423 l 59 279 "},"Q":{"x_min":63.890625,"x_max":933.328125,"ha":950,"o":"m 273 456 b 475 745 273 637 351 745 b 676 456 598 745 676 637 b 475 150 676 263 598 150 b 273 456 351 150 273 263 m 897 -68 b 797 -84 870 -77 836 -84 b 598 0 720 -84 640 -62 b 886 456 773 50 886 213 b 475 922 886 751 719 922 b 63 456 230 922 63 752 b 381 -6 63 201 188 33 b 773 -247 445 -148 581 -247 b 933 -218 843 -247 900 -234 l 897 -68 "},"▼":{"x_min":26.390625,"x_max":794.453125,"ha":822,"o":"m 408 26 l 413 26 l 794 751 l 794 754 l 26 754 l 26 751 l 408 26 "},"ě":{"x_min":49.765625,"x_max":667.9375,"ha":719,"o":"m 49 344 b 398 -16 49 116 201 -16 b 642 61 480 -16 572 12 l 574 184 b 426 138 524 154 477 138 b 246 288 334 138 265 184 l 659 288 b 667 375 663 305 667 338 b 374 705 667 562 570 705 b 49 344 209 705 49 568 m 245 415 b 378 550 259 506 315 550 b 494 415 460 550 494 494 l 245 415 m 292 797 l 455 797 l 588 1005 l 451 1005 l 377 895 l 371 895 l 298 1005 l 160 1005 l 292 797 "},"œ":{"x_min":50.28125,"x_max":1092,"ha":1142,"o":"m 257 344 b 375 540 257 463 300 540 b 496 344 450 540 496 463 b 375 148 496 224 450 148 b 257 344 300 148 257 224 m 50 344 b 371 -17 50 114 194 -17 b 600 103 472 -17 543 24 b 822 -17 657 27 739 -17 b 1067 60 903 -17 996 11 l 996 192 b 850 142 946 163 901 142 b 685 284 766 142 700 188 l 1083 284 b 1092 370 1087 301 1092 333 b 816 705 1092 558 998 705 b 598 584 733 705 654 661 b 375 705 546 659 472 705 b 50 344 200 705 50 573 m 685 409 b 810 550 696 505 746 550 b 916 409 885 550 916 493 l 685 409 "},"̦":{"x_min":-143.0625,"x_max":118.0625,"ha":0,"o":"m -50 -58 l -88 -133 b -27 -184 -47 -144 -27 -158 b -143 -235 -27 -216 -76 -228 l -127 -317 b 118 -174 4 -310 118 -269 b -50 -58 118 -105 75 -70 "},"Ộ":{"x_min":63.546875,"x_max":885.765625,"ha":950,"o":"m 474 -16 b 885 456 719 -16 885 161 b 474 922 885 751 719 922 b 63 456 230 922 63 752 b 474 -16 63 161 230 -16 m 474 159 b 273 456 351 159 273 275 b 474 745 273 637 351 745 b 676 456 598 745 676 637 b 474 159 676 275 598 159 m 398 975 l 471 1059 l 477 1059 l 551 975 l 707 975 l 574 1141 l 374 1141 l 241 975 l 398 975 m 474 -313 b 588 -206 541 -313 588 -269 b 474 -100 588 -144 541 -100 b 362 -206 407 -100 362 -144 b 474 -313 362 -269 407 -313 "},"Ậ":{"x_min":-7.921875,"x_max":804.578125,"ha":796,"o":"m 390 1059 l 396 1059 l 469 975 l 626 975 l 493 1141 l 293 1141 l 160 975 l 317 975 l 390 1059 m 393 -100 b 280 -206 326 -100 280 -144 b 393 -313 280 -269 326 -313 b 507 -206 460 -313 507 -269 b 393 -100 507 -144 460 -100 m 297 375 l 319 458 b 390 750 344 548 368 654 l 396 750 b 469 458 419 655 444 548 l 490 375 l 297 375 m 804 0 l 521 905 l 275 905 l -7 0 l 200 0 l 255 215 l 532 215 l 587 0 l 804 0 "},"#":{"x_min":46.953125,"x_max":691.046875,"ha":733,"o":"m 119 0 l 237 0 l 269 259 l 412 259 l 381 0 l 499 0 l 531 259 l 663 259 l 663 390 l 546 390 l 564 543 l 691 543 l 691 673 l 581 673 l 609 902 l 492 902 l 463 673 l 319 673 l 346 902 l 230 902 l 201 673 l 74 673 l 74 543 l 184 543 l 164 390 l 46 390 l 46 259 l 149 259 l 119 0 m 284 390 l 302 543 l 446 543 l 427 390 l 284 390 "},"Ǧ":{"x_min":64.296875,"x_max":805.96875,"ha":886,"o":"m 64 447 b 503 -16 64 143 258 -16 b 805 93 629 -16 742 31 l 805 509 l 475 509 l 475 343 l 625 343 l 625 187 b 528 159 603 169 565 159 b 274 454 358 159 274 268 b 512 745 274 636 372 745 b 678 677 590 745 633 719 l 790 804 b 510 922 730 865 636 922 b 64 447 264 922 64 747 m 586 1141 l 512 1056 l 507 1056 l 433 1141 l 276 1141 l 410 975 l 610 975 l 743 1141 l 586 1141 "},"ᵛ":{"x_min":11.171875,"x_max":482,"ha":493,"o":"m 163 363 l 330 363 l 482 820 l 344 820 l 287 609 l 251 469 l 248 469 l 209 609 l 154 820 l 11 820 l 163 363 "},"Å":{"x_min":-8.453125,"x_max":804.046875,"ha":796,"o":"m 392 1163 b 449 1104 423 1163 449 1140 b 392 1044 449 1066 423 1044 b 336 1104 361 1044 336 1066 b 392 1163 336 1140 361 1163 m 392 968 b 549 1104 486 968 549 1020 b 392 1240 549 1186 486 1240 b 236 1104 299 1240 236 1186 b 392 968 236 1020 299 968 m 297 375 l 319 458 b 390 750 344 548 367 654 l 395 750 b 469 458 419 655 444 548 l 490 375 l 297 375 m 587 0 l 804 0 l 520 905 l 274 905 l -8 0 l 199 0 l 255 215 l 531 215 l 587 0 "},"ș":{"x_min":29.484375,"x_max":575.015625,"ha":615,"o":"m 29 79 b 293 -16 98 22 202 -16 b 575 205 476 -16 575 80 b 389 412 575 331 476 380 b 255 500 319 438 255 455 b 333 554 255 534 280 554 b 478 495 381 554 428 531 l 569 618 b 327 705 510 662 432 705 b 64 490 168 705 64 618 b 245 287 64 376 162 319 b 385 193 316 259 385 238 b 298 134 385 156 359 134 b 121 206 240 134 183 159 l 29 79 m 273 -58 l 235 -133 b 294 -184 275 -144 294 -158 b 179 -236 294 -216 246 -229 l 194 -318 b 440 -175 326 -311 440 -269 b 273 -58 440 -105 396 -70 "},"ǎ":{"x_min":64.953125,"x_max":657.046875,"ha":742,"o":"m 64 191 b 269 -16 64 75 144 -16 b 470 70 347 -16 412 19 l 475 70 l 490 0 l 657 0 l 657 394 b 383 705 657 605 559 705 b 88 615 274 705 176 668 l 160 480 b 344 543 227 519 285 543 b 452 443 418 543 448 504 b 64 191 180 415 64 336 m 259 206 b 452 320 259 259 306 301 l 452 200 b 338 141 416 163 386 141 b 259 206 290 141 259 162 m 308 797 l 470 797 l 604 1005 l 466 1005 l 392 895 l 387 895 l 312 1005 l 174 1005 l 308 797 "},"ˈ":{"x_min":20.828125,"x_max":184.71875,"ha":204,"o":"m 29 750 l 176 750 l 184 1027 l 20 1027 l 29 750 "},"₈":{"x_min":52.78125,"x_max":468.0625,"ha":522,"o":"m 188 -201 b 236 -120 188 -170 205 -141 b 333 -202 290 -147 333 -159 b 261 -269 333 -238 301 -269 b 188 -201 219 -269 188 -238 m 283 -22 b 204 52 238 -4 204 13 b 259 102 204 81 229 102 b 318 45 293 102 318 81 b 283 -22 318 25 306 0 m 52 -215 b 261 -369 52 -300 138 -369 b 468 -213 381 -369 468 -300 b 370 -68 468 -145 425 -97 l 370 -62 b 451 56 413 -37 451 5 b 261 205 451 150 368 205 b 72 56 156 205 72 150 b 152 -69 72 1 105 -36 l 152 -75 b 52 -215 102 -102 52 -152 "},"¸":{"x_min":244.609375,"x_max":507.09375,"ha":771,"o":"m 279 -105 b 359 -163 340 -120 359 -140 b 244 -225 359 -200 311 -218 l 259 -306 b 507 -162 391 -300 507 -258 b 425 -59 507 -105 472 -75 l 452 5 l 334 5 l 279 -105 "},"=":{"x_min":47.21875,"x_max":686.109375,"ha":733,"o":"m 47 548 l 686 548 l 686 691 l 47 691 l 47 548 m 47 225 l 686 225 l 686 368 l 47 368 l 47 225 "},"Ǖ":{"x_min":101.390625,"x_max":820.828125,"ha":924,"o":"m 101 419 b 463 -16 101 115 229 -16 b 820 419 697 -16 820 115 l 820 905 l 623 905 l 623 398 b 463 159 623 220 565 159 b 306 398 362 159 306 220 l 306 905 l 101 905 l 101 419 m 265 1211 l 658 1211 l 658 1306 l 265 1306 l 265 1211 m 323 972 b 409 1058 373 972 409 1009 b 323 1143 409 1105 373 1143 b 238 1058 273 1143 238 1105 b 323 972 238 1009 273 972 m 598 972 b 684 1058 650 972 684 1009 b 598 1143 684 1105 650 1143 b 513 1058 548 1143 513 1105 b 598 972 513 1009 548 972 "},"ạ":{"x_min":64.953125,"x_max":656.625,"ha":742,"o":"m 64 191 b 269 -16 64 75 144 -16 b 470 70 346 -16 412 19 l 474 70 l 489 0 l 656 0 l 656 394 b 383 705 656 605 559 705 b 88 615 274 705 176 668 l 160 480 b 344 543 227 519 285 543 b 452 443 417 543 448 504 b 64 191 180 415 64 336 m 259 206 b 452 320 259 259 306 301 l 452 200 b 338 141 416 163 385 141 b 259 206 289 141 259 162 m 366 -313 b 478 -206 431 -313 478 -269 b 366 -100 478 -144 431 -100 b 252 -206 299 -100 252 -144 b 366 -313 252 -269 299 -313 "},"ú":{"x_min":82.84375,"x_max":700.078125,"ha":789,"o":"m 82 261 b 296 -16 82 88 146 -16 b 513 95 391 -16 455 26 l 517 95 l 533 0 l 700 0 l 700 688 l 495 688 l 495 233 b 373 156 455 179 424 156 b 287 287 313 156 287 188 l 287 688 l 82 688 l 82 261 m 602 1005 l 405 1005 l 281 797 l 431 797 l 602 1005 "},"˚":{"x_min":229.171875,"x_max":541.671875,"ha":771,"o":"m 386 761 b 541 902 479 761 541 816 b 386 1044 541 988 479 1044 b 229 902 291 1044 229 988 b 386 761 229 816 291 761 m 386 837 b 329 902 354 837 329 863 b 386 968 329 941 354 968 b 441 902 416 968 441 941 b 386 837 441 863 416 837 "},"¯":{"x_min":194.4375,"x_max":577.78125,"ha":771,"o":"m 194 822 l 577 822 l 577 951 l 194 951 l 194 822 "},"u":{"x_min":83.328125,"x_max":700,"ha":789,"o":"m 83 261 b 297 -16 83 88 147 -16 b 513 95 391 -16 455 26 l 518 95 l 533 0 l 700 0 l 700 688 l 495 688 l 495 233 b 373 156 455 179 425 156 b 287 287 313 156 287 188 l 287 688 l 83 688 l 83 261 "},"ṛ":{"x_min":77.78125,"x_max":554.171875,"ha":553,"o":"m 90 0 l 294 0 l 294 400 b 445 526 330 493 394 526 b 520 515 475 526 495 522 l 554 691 b 472 705 534 700 511 705 b 276 568 401 705 326 661 l 270 568 l 256 688 l 90 688 l 90 0 m 191 -313 b 304 -206 258 -313 304 -269 b 191 -100 304 -144 258 -100 b 77 -206 125 -100 77 -144 b 191 -313 77 -269 125 -313 "},"⅝":{"x_min":37.15625,"x_max":1124.65625,"ha":1179,"o":"m 37 457 b 259 347 85 386 162 347 b 469 535 381 347 469 428 b 292 712 469 646 388 712 b 228 703 277 712 252 710 l 237 779 l 446 779 l 446 905 l 119 905 l 95 636 l 159 592 b 239 624 185 614 208 624 b 321 542 284 624 321 594 b 242 461 321 497 288 461 b 127 528 195 461 162 482 l 37 457 m 403 -16 l 891 922 l 774 922 l 285 -16 l 403 -16 m 845 153 b 891 232 845 182 862 211 b 988 150 946 206 988 193 b 916 83 988 114 958 83 b 845 153 874 83 845 114 m 939 331 b 860 406 895 349 860 367 b 916 456 860 435 885 456 b 974 400 948 456 974 435 b 939 331 974 378 963 353 m 709 137 b 916 -16 709 53 795 -16 b 1124 139 1037 -16 1124 53 b 1026 285 1124 207 1081 256 l 1026 290 b 1108 410 1070 315 1108 358 b 916 558 1108 503 1024 558 b 727 410 812 558 727 503 b 808 283 727 354 760 317 l 808 278 b 709 137 759 250 709 200 "},"ẻ":{"x_min":48.875,"x_max":666.9375,"ha":719,"o":"m 48 344 b 397 -16 48 116 200 -16 b 641 61 479 -16 571 12 l 573 184 b 425 138 523 154 476 138 b 246 288 333 138 264 184 l 658 288 b 666 375 662 305 666 338 b 373 705 666 562 569 705 b 48 344 208 705 48 568 m 244 415 b 378 550 258 506 314 550 b 493 415 460 550 493 494 l 244 415 m 325 773 b 518 916 429 780 518 822 b 283 1044 518 991 455 1038 l 261 941 b 371 895 340 937 371 922 b 308 854 371 869 343 859 l 325 773 "},"ẗ":{"x_min":-2.78125,"x_max":508.328125,"ha":532,"o":"m 118 250 b 355 -16 118 90 184 -16 b 508 8 422 -16 472 -2 l 476 156 b 411 143 458 150 433 143 b 322 252 356 143 322 175 l 322 529 l 487 529 l 487 688 l 322 688 l 322 872 l 152 872 l 129 688 l 23 680 l 23 529 l 118 529 l 118 250 m 94 987 b 191 1084 151 987 191 1029 b 94 1181 191 1138 151 1181 b -2 1084 37 1181 -2 1138 b 94 987 -2 1029 37 987 m 369 987 b 466 1084 426 987 466 1029 b 369 1181 466 1138 426 1181 b 272 1084 312 1181 272 1138 b 369 987 272 1029 312 987 "},"ʿ":{"x_min":18.0625,"x_max":197.21875,"ha":233,"o":"m 197 1044 b 18 902 75 1050 18 988 b 197 761 18 816 75 755 l 197 836 b 118 902 137 836 118 863 b 197 969 118 941 137 969 l 197 1044 "},"ẵ":{"x_min":64.953125,"x_max":657.890625,"ha":742,"o":"m 64 191 b 269 -16 64 75 144 -16 b 471 70 347 -16 412 19 l 475 70 l 490 0 l 657 0 l 657 394 b 383 705 657 605 560 705 b 88 615 274 705 176 668 l 160 480 b 344 543 227 519 285 543 b 453 443 418 543 449 504 b 64 191 180 415 64 336 m 259 206 b 453 320 259 259 306 301 l 453 200 b 338 141 416 163 386 141 b 259 206 290 141 259 162 m 390 797 b 582 962 520 797 580 875 l 486 962 b 390 893 478 926 453 893 b 292 962 327 893 301 926 l 196 962 b 390 797 200 875 259 797 m 186 1000 l 274 1000 b 324 1052 283 1037 299 1052 b 467 1000 362 1052 393 1000 b 594 1158 528 1000 581 1050 l 504 1158 b 455 1105 496 1120 479 1105 b 313 1158 416 1105 387 1158 b 186 1000 251 1158 198 1109 "},"ữ":{"x_min":83.328125,"x_max":830.59375,"ha":789,"o":"m 506 986 b 458 925 495 941 481 925 b 294 986 418 925 368 986 b 150 798 220 986 163 925 l 254 798 b 302 861 263 844 279 861 b 466 798 343 861 393 798 b 611 986 540 798 595 861 l 506 986 m 651 838 b 672 775 661 823 672 800 b 559 688 672 702 612 691 l 495 688 l 495 233 b 373 156 455 179 425 156 b 287 287 313 156 287 188 l 287 688 l 83 688 l 83 261 b 297 -16 83 88 147 -16 b 513 95 391 -16 455 26 l 518 95 l 533 0 l 700 0 l 700 626 b 830 788 773 648 830 700 b 790 900 830 834 811 875 l 651 838 "},"é":{"x_min":49.765625,"x_max":667.9375,"ha":719,"o":"m 49 344 b 398 -16 49 116 201 -16 b 642 61 480 -16 572 12 l 574 184 b 426 138 524 154 477 138 b 246 288 334 138 265 184 l 659 288 b 667 375 663 305 667 338 b 374 705 667 562 570 705 b 49 344 209 705 49 568 m 245 415 b 378 550 259 506 315 550 b 494 415 460 550 494 494 l 245 415 m 581 1005 l 384 1005 l 260 797 l 409 797 l 581 1005 "},"Ş":{"x_min":48.9375,"x_max":724.96875,"ha":772,"o":"m 429 556 b 291 663 351 588 291 608 b 407 745 291 715 336 745 b 594 673 479 745 534 719 l 698 802 b 407 922 620 880 511 922 b 85 652 218 922 85 802 b 266 405 85 520 173 443 l 384 355 b 515 247 464 322 515 304 b 389 159 515 193 473 159 b 165 254 314 159 230 198 l 48 113 b 325 -12 125 41 225 -1 l 279 -105 b 359 -163 340 -120 359 -140 b 244 -225 359 -200 311 -218 l 260 -306 b 507 -162 391 -300 507 -258 b 425 -59 507 -105 472 -75 l 444 -12 b 724 263 623 9 724 129 b 545 509 724 391 655 465 l 429 556 "},"↓":{"x_min":54.171875,"x_max":802.78125,"ha":857,"o":"m 430 -35 l 802 350 l 691 447 l 509 239 l 509 734 l 347 734 l 347 239 l 163 447 l 54 350 l 425 -35 l 430 -35 "},"B":{"x_min":106.9375,"x_max":794.453125,"ha":840,"o":"m 106 0 l 443 0 b 794 266 638 0 794 81 b 598 479 794 387 727 455 l 598 484 b 750 680 704 512 750 600 b 416 905 750 854 604 905 l 106 905 l 106 0 m 311 540 l 311 747 l 408 747 b 550 651 504 747 550 719 b 406 540 550 583 506 540 l 311 540 m 311 158 l 311 395 l 426 395 b 594 281 538 395 594 361 b 426 158 594 200 537 158 l 311 158 "},"…":{"x_min":106.9375,"x_max":1273.609375,"ha":1358,"o":"m 106 111 b 229 -16 106 38 158 -16 b 352 111 300 -16 352 38 b 229 240 352 184 300 240 b 106 111 158 240 106 184 m 566 111 b 690 -16 566 38 619 -16 b 813 111 761 -16 813 38 b 690 240 813 184 761 240 b 566 111 619 240 566 184 m 1027 111 b 1150 -16 1027 38 1079 -16 b 1273 111 1220 -16 1273 38 b 1150 240 1273 184 1220 240 b 1027 111 1079 240 1027 184 "},"Ủ":{"x_min":101.390625,"x_max":820.828125,"ha":924,"o":"m 101 419 b 463 -16 101 115 229 -16 b 820 419 697 -16 820 115 l 820 905 l 623 905 l 623 398 b 463 159 623 220 565 159 b 306 398 362 159 306 220 l 306 905 l 101 905 l 101 419 m 412 959 b 605 1104 516 968 605 1008 b 372 1230 605 1177 544 1226 l 348 1129 b 458 1081 427 1123 458 1108 b 397 1040 458 1056 431 1047 l 412 959 "},"H":{"x_min":106.9375,"x_max":829.171875,"ha":936,"o":"m 106 0 l 311 0 l 311 377 l 623 377 l 623 0 l 829 0 l 829 905 l 623 905 l 623 556 l 311 556 l 311 905 l 106 905 l 106 0 "},"î":{"x_min":-22.21875,"x_max":405.5625,"ha":383,"o":"m 90 0 l 294 0 l 294 688 l 90 688 l 90 0 m -22 797 l 115 797 l 188 906 l 194 906 l 268 797 l 405 797 l 273 1005 l 111 1005 l -22 797 "},"ư":{"x_min":83.359375,"x_max":830.59375,"ha":789,"o":"m 651 838 b 672 775 661 823 672 800 b 559 688 672 702 612 691 l 495 688 l 495 233 b 373 156 455 179 425 156 b 287 287 313 156 287 188 l 287 688 l 83 688 l 83 261 b 297 -16 83 88 147 -16 b 513 95 391 -16 455 26 l 518 95 l 533 0 l 700 0 l 700 626 b 830 788 773 648 830 700 b 790 900 830 834 811 875 l 651 838 "},"−":{"x_min":47.21875,"x_max":686.109375,"ha":733,"o":"m 47 386 l 686 386 l 686 530 l 47 530 l 47 386 "},"⅜":{"x_min":36.59375,"x_max":1124.09375,"ha":1179,"o":"m 36 456 b 257 347 83 386 162 347 b 467 513 368 347 467 413 b 368 645 467 577 424 623 b 447 770 418 675 447 712 b 258 922 447 863 358 922 b 58 829 174 922 118 891 l 143 754 b 232 808 168 784 197 808 b 300 750 274 808 300 786 b 190 683 300 704 257 683 l 190 597 b 319 526 278 597 319 573 b 242 461 319 484 285 461 b 126 527 196 461 160 481 l 36 456 m 403 -16 l 890 922 l 774 922 l 285 -16 l 403 -16 m 844 152 b 890 231 844 181 861 211 b 987 150 946 205 987 193 b 915 83 987 113 957 83 b 844 152 874 83 844 113 m 939 330 b 860 405 894 348 860 366 b 915 455 860 434 885 455 b 974 400 947 455 974 434 b 939 330 974 377 962 352 m 708 137 b 915 -16 708 52 794 -16 b 1124 138 1036 -16 1124 52 b 1025 284 1124 206 1081 255 l 1025 290 b 1107 409 1069 315 1107 358 b 915 558 1107 502 1024 558 b 726 409 811 558 726 502 b 807 283 726 354 760 316 l 807 277 b 708 137 758 250 708 200 "},"ǫ":{"x_min":50,"x_max":721.28125,"ha":771,"o":"m 265 -165 b 412 -291 265 -248 330 -291 b 553 -245 457 -291 518 -273 l 511 -154 b 461 -170 497 -162 479 -170 b 402 -118 432 -170 402 -155 b 496 0 402 -77 427 -30 b 721 344 630 63 721 161 b 386 705 721 573 560 705 b 50 344 211 705 50 573 b 341 -13 50 134 184 5 b 265 -165 309 -41 265 -95 m 259 344 b 386 540 259 463 301 540 b 512 344 469 540 512 463 b 386 148 512 225 469 148 b 259 344 301 148 259 225 "},"̒":{"x_min":-93.9375,"x_max":74.109375,"ha":0,"o":"m 43 1050 b -93 870 -50 1013 -93 948 b -2 755 -93 795 -63 755 b 71 834 38 755 71 786 b -2 907 71 879 36 907 b -12 905 -5 907 -9 907 b 74 987 -6 943 22 969 l 43 1050 "},"⌝":{"x_min":63.890625,"x_max":356.9375,"ha":478,"o":"m 356 959 l 63 959 l 63 851 l 205 851 l 205 0 l 356 0 l 356 959 "},"ā":{"x_min":64.953125,"x_max":656.625,"ha":742,"o":"m 64 191 b 269 -16 64 75 144 -16 b 470 70 346 -16 412 19 l 474 70 l 489 0 l 656 0 l 656 394 b 383 705 656 605 559 705 b 88 615 274 705 176 668 l 160 480 b 344 543 227 519 285 543 b 452 443 417 543 448 504 b 64 191 180 415 64 336 m 259 206 b 452 320 259 259 306 301 l 452 200 b 338 141 416 163 385 141 b 259 206 289 141 259 162 m 198 822 l 581 822 l 581 951 l 198 951 l 198 822 "},"ĵ":{"x_min":-70.828125,"x_max":408.328125,"ha":386,"o":"m 91 -1 b 19 -112 91 -77 73 -112 b -34 -102 0 -112 -16 -108 l -70 -252 b 50 -272 -43 -263 -6 -272 b 295 4 237 -272 295 -145 l 295 688 l 91 688 l 91 -1 m -19 797 l 118 797 l 191 906 l 197 906 l 270 797 l 408 797 l 275 1005 l 112 1005 l -19 797 "},"Ĩ":{"x_min":-28,"x_max":446,"ha":418,"o":"m 106 0 l 311 0 l 311 905 l 106 905 l 106 0 m 297 976 b 446 1165 369 976 432 1038 l 341 1165 b 287 1102 332 1119 311 1102 b 122 1165 245 1102 195 1165 b -28 976 48 1165 -12 1102 l 76 976 b 130 1038 85 1022 106 1038 b 297 976 172 1038 222 976 "},"←":{"x_min":31.0625,"x_max":801.9375,"ha":857,"o":"m 31 347 l 417 -23 l 513 86 l 304 269 l 801 269 l 801 430 l 304 430 l 513 613 l 417 723 l 31 352 l 31 347 "},"*":{"x_min":52.78125,"x_max":581.9375,"ha":635,"o":"m 205 485 l 318 608 l 429 485 l 513 546 l 431 690 l 581 758 l 548 858 l 388 823 l 370 989 l 263 989 l 245 825 l 84 858 l 52 758 l 202 690 l 120 546 l 205 485 "},"ă":{"x_min":64.953125,"x_max":656.625,"ha":742,"o":"m 64 191 b 269 -16 64 75 144 -16 b 470 70 346 -16 412 19 l 474 70 l 489 0 l 656 0 l 656 394 b 383 705 656 605 559 705 b 88 615 274 705 176 668 l 160 480 b 344 543 227 519 285 543 b 452 443 417 543 448 504 b 64 191 180 415 64 336 m 259 206 b 452 320 259 259 306 301 l 452 200 b 338 141 416 163 385 141 b 259 206 289 141 259 162 m 389 797 b 583 990 519 797 578 890 l 469 990 b 389 909 462 945 438 909 b 310 990 339 909 316 945 l 196 990 b 389 797 199 890 259 797 "},"†":{"x_min":61.109375,"x_max":647.21875,"ha":708,"o":"m 272 -111 l 436 -111 l 423 608 l 647 597 l 647 761 l 423 748 l 436 988 l 272 988 l 284 748 l 61 761 l 61 597 l 284 608 l 272 -111 "},"°":{"x_min":54.171875,"x_max":455.5625,"ha":507,"o":"m 254 552 b 455 752 366 552 455 636 b 254 952 455 869 366 952 b 54 752 143 952 54 869 b 254 552 54 636 143 552 m 254 650 b 161 752 200 650 161 691 b 254 854 161 812 200 854 b 347 752 309 854 347 812 b 254 650 347 691 309 650 "},"ồ":{"x_min":50.1875,"x_max":732.34375,"ha":771,"o":"m 50 344 b 386 -16 50 115 211 -16 b 721 344 560 -16 721 115 b 386 705 721 573 560 705 b 50 344 211 705 50 573 m 259 344 b 386 540 259 463 301 540 b 512 344 469 540 512 463 b 386 148 512 225 469 148 b 259 344 301 148 259 225 m 191 797 l 318 797 l 383 887 l 389 887 l 453 797 l 579 797 l 467 975 l 304 975 l 191 797 m 637 1061 l 486 1061 l 618 897 l 732 897 l 637 1061 "},"Ķ":{"x_min":106.828125,"x_max":861,"ha":853,"o":"m 106 0 l 311 0 l 311 243 l 416 381 l 637 0 l 861 0 l 537 544 l 811 905 l 586 905 l 316 534 l 311 534 l 311 905 l 106 905 l 106 0 m 411 -58 l 372 -133 b 431 -184 413 -144 431 -158 b 317 -236 431 -216 384 -229 l 333 -318 b 579 -175 463 -311 579 -269 b 411 -58 579 -105 536 -70 "},"ŵ":{"x_min":32.953125,"x_max":1044,"ha":1078,"o":"m 205 0 l 438 0 l 499 275 b 534 476 512 338 521 402 l 539 476 b 577 275 552 402 563 338 l 639 0 l 878 0 l 1044 688 l 855 688 l 789 369 b 757 165 777 301 770 234 l 752 165 b 709 369 738 234 725 301 l 631 688 l 455 688 l 378 369 b 338 165 362 304 351 234 l 332 165 b 302 369 321 234 313 301 l 235 688 l 32 688 l 205 0 m 326 797 l 463 797 l 537 906 l 542 906 l 616 797 l 753 797 l 620 1005 l 457 1005 l 326 797 "},"Ļ":{"x_min":106.875,"x_max":669.375,"ha":719,"o":"m 106 0 l 669 0 l 669 172 l 311 172 l 311 905 l 106 905 l 106 0 m 354 -58 l 313 -133 b 374 -184 355 -144 374 -158 b 259 -236 374 -216 326 -229 l 274 -318 b 520 -175 406 -311 520 -269 b 354 -58 520 -105 477 -70 "},"Õ":{"x_min":64,"x_max":885.765625,"ha":950,"o":"m 474 -16 b 885 456 719 -16 885 161 b 474 922 885 751 719 922 b 64 456 230 922 64 752 b 474 -16 64 161 230 -16 m 474 159 b 273 456 351 159 273 275 b 474 745 273 637 351 745 b 676 456 598 745 676 637 b 474 159 676 275 598 159 m 562 976 b 710 1165 634 976 696 1038 l 608 1165 b 553 1102 596 1119 577 1102 b 387 1165 510 1102 462 1165 b 239 976 315 1165 252 1102 l 343 976 b 395 1038 352 1022 372 1038 b 562 976 438 1038 487 976 "},"ẏ":{"x_min":16.671875,"x_max":706.953125,"ha":724,"o":"m 105 -100 l 69 -255 b 166 -269 97 -263 125 -269 b 468 -6 329 -269 402 -180 l 706 688 l 511 688 l 427 393 b 380 197 411 327 395 262 l 375 197 b 320 393 356 265 340 330 l 222 688 l 16 688 l 281 18 l 272 -18 b 151 -108 254 -72 219 -108 b 105 -100 136 -108 118 -102 m 370 790 b 483 897 437 790 483 834 b 370 1004 483 959 437 1004 b 256 897 304 1004 256 959 b 370 790 256 834 304 790 "},"⌞":{"x_min":120.828125,"x_max":413.890625,"ha":478,"o":"m 120 -77 l 413 -77 l 413 30 l 273 30 l 273 881 l 120 881 l 120 -77 "},"Ľ":{"x_min":106.9375,"x_max":669.453125,"ha":719,"o":"m 106 0 l 669 0 l 669 172 l 311 172 l 311 905 l 106 905 l 106 0 m 577 708 l 611 919 l 613 1016 l 481 1016 l 490 708 l 577 708 "},"ť":{"x_min":23.515625,"x_max":511.015625,"ha":532,"o":"m 117 250 b 355 -16 117 90 184 -16 b 508 8 422 -16 472 -2 l 476 156 b 411 143 458 150 433 143 b 322 252 356 143 322 175 l 322 529 l 487 529 l 487 688 l 322 688 l 322 872 l 152 872 l 129 688 l 23 680 l 23 529 l 117 529 l 117 250 m 474 761 l 509 973 l 511 1069 l 380 1069 l 387 761 l 474 761 "},"ḵ":{"x_min":90.28125,"x_max":752.78125,"ha":761,"o":"m 90 0 l 288 0 l 288 169 l 376 268 l 531 0 l 752 0 l 493 405 l 734 688 l 512 688 l 294 415 l 288 415 l 288 973 l 90 973 l 90 0 m 601 -131 l 216 -131 l 216 -262 l 601 -262 l 601 -131 "},"5":{"x_min":32.109375,"x_max":666.84375,"ha":733,"o":"m 32 106 b 343 -16 101 37 198 -16 b 666 291 515 -16 666 95 b 386 565 666 478 537 565 b 287 544 350 565 321 559 l 302 709 l 626 709 l 626 881 l 126 881 l 101 435 l 193 377 b 323 421 246 410 272 421 b 462 285 405 421 462 374 b 314 148 462 195 404 148 b 123 235 239 148 176 187 l 32 106 "},"o":{"x_min":50,"x_max":720.828125,"ha":771,"o":"m 50 344 b 386 -16 50 115 211 -16 b 720 344 559 -16 720 115 b 386 705 720 573 559 705 b 50 344 211 705 50 573 m 259 344 b 386 540 259 463 301 540 b 512 344 469 540 512 463 b 386 148 512 225 469 148 b 259 344 301 148 259 225 "},"̆":{"x_min":-193.0625,"x_max":193.0625,"ha":0,"o":"m 0 797 b 193 990 129 797 188 890 l 79 990 b 0 909 73 945 48 909 b -79 990 -48 909 -73 945 l -193 990 b 0 797 -188 890 -129 797 "},"Ǐ":{"x_min":-23.609375,"x_max":441.671875,"ha":418,"o":"m 106 0 l 311 0 l 311 905 l 106 905 l 106 0 m 286 1141 l 212 1056 l 206 1056 l 131 1141 l -23 1141 l 109 975 l 308 975 l 441 1141 l 286 1141 "},"̧":{"x_min":-143.203125,"x_max":117.9375,"ha":0,"o":"m -109 -105 b -27 -163 -47 -120 -27 -140 b -143 -225 -27 -200 -76 -218 l -127 -306 b 117 -162 4 -300 117 -258 b 37 -59 117 -105 84 -75 l 65 5 l -54 5 l -109 -105 "},"₲":{"x_min":53.28125,"x_max":688,"ha":733,"o":"m 410 336 l 506 336 l 506 166 b 440 148 490 155 465 148 b 257 443 324 148 257 251 b 436 740 257 629 319 740 b 575 675 494 740 533 715 l 688 786 b 494 894 633 843 567 881 l 494 1034 l 358 1034 l 358 890 b 53 436 175 852 53 690 b 358 -11 53 173 179 19 l 358 -152 l 494 -152 l 494 -11 b 688 86 567 2 632 36 l 688 502 l 410 502 l 410 336 "},"d":{"x_min":54.171875,"x_max":705.5625,"ha":796,"o":"m 54 344 b 336 -16 54 119 165 -16 b 519 68 402 -16 470 19 l 525 68 l 538 0 l 705 0 l 705 973 l 501 973 l 501 739 l 509 633 b 340 705 462 678 416 705 b 54 344 194 705 54 569 m 263 347 b 387 539 263 478 322 539 b 501 494 425 539 465 528 l 501 212 b 388 150 468 166 433 150 b 263 347 309 150 263 211 "},",":{"x_min":63.890625,"x_max":355.5625,"ha":417,"o":"m 105 -269 b 355 47 268 -220 355 -105 b 213 240 355 168 305 240 b 86 123 143 240 86 194 b 209 8 86 50 144 8 b 220 8 213 8 216 8 b 63 -161 220 -62 165 -125 l 105 -269 "},"▽":{"x_min":25.953125,"x_max":794.015625,"ha":822,"o":"m 566 620 l 410 312 l 256 620 l 566 620 m 25 751 l 407 25 l 413 25 l 794 751 l 794 754 l 25 754 l 25 751 "},"\"":{"x_min":105.5625,"x_max":640.28125,"ha":746,"o":"m 152 491 l 263 491 l 304 768 l 311 952 l 105 952 l 112 768 l 152 491 m 481 491 l 593 491 l 633 768 l 640 952 l 434 952 l 440 768 l 481 491 "},"ľ":{"x_min":89.890625,"x_max":477.390625,"ha":442,"o":"m 89 213 b 277 -16 89 75 137 -16 b 380 0 323 -16 357 -9 l 355 151 b 330 148 344 148 338 148 b 294 205 313 148 294 162 l 294 973 l 89 973 l 89 213 m 441 761 l 474 973 l 477 1069 l 346 1069 l 353 761 l 441 761 "},"ė":{"x_min":49.875,"x_max":667.9375,"ha":719,"o":"m 49 344 b 398 -16 49 116 201 -16 b 642 61 480 -16 572 12 l 574 184 b 426 138 524 154 477 138 b 247 288 334 138 265 184 l 659 288 b 667 375 663 305 667 338 b 374 705 667 562 570 705 b 49 344 209 705 49 568 m 245 415 b 379 550 259 506 315 550 b 494 415 461 550 494 494 l 245 415 m 374 790 b 487 897 441 790 487 834 b 374 1004 487 959 441 1004 b 261 897 308 1004 261 959 b 374 790 261 834 308 790 "},"ề":{"x_min":49.71875,"x_max":720.71875,"ha":719,"o":"m 49 344 b 398 -16 49 116 201 -16 b 642 61 480 -16 572 12 l 574 184 b 426 138 524 154 477 138 b 246 288 334 138 265 184 l 659 288 b 667 375 663 305 667 338 b 374 705 667 562 570 705 b 49 344 209 705 49 568 m 245 415 b 378 550 259 506 315 550 b 494 415 460 550 494 494 l 245 415 m 181 797 l 306 797 l 371 887 l 377 887 l 441 797 l 567 797 l 455 975 l 292 975 l 181 797 m 626 1061 l 474 1061 l 606 897 l 720 897 l 626 1061 "},"₺":{"x_min":19.4375,"x_max":693.0625,"ha":733,"o":"m 329 173 l 329 405 l 531 512 l 531 625 l 329 518 l 329 594 l 531 701 l 531 813 l 329 706 l 329 881 l 125 881 l 125 606 l 19 550 l 19 437 l 125 494 l 125 418 l 19 361 l 19 248 l 125 305 l 125 -16 b 693 362 484 -26 693 109 b 683 433 693 377 690 405 l 515 394 b 518 352 518 373 518 361 b 329 173 518 254 431 184 "},"Í":{"x_min":105.5625,"x_max":434.71875,"ha":418,"o":"m 106 0 l 311 0 l 311 905 l 106 905 l 106 0 m 434 1141 l 218 1141 l 105 975 l 268 975 l 434 1141 "},"⁾":{"x_min":48.609375,"x_max":284.71875,"ha":372,"o":"m 48 530 l 159 486 b 284 883 238 608 284 716 b 159 1279 284 1048 238 1156 l 48 1234 b 143 883 111 1122 143 1006 b 48 530 143 758 111 644 "},"Ú":{"x_min":101.703125,"x_max":821.140625,"ha":924,"o":"m 101 419 b 464 -16 101 115 229 -16 b 821 419 697 -16 821 115 l 821 905 l 623 905 l 623 398 b 464 159 623 220 565 159 b 307 398 362 159 307 220 l 307 905 l 101 905 l 101 419 m 686 1141 l 469 1141 l 357 975 l 521 975 l 686 1141 "},"Ơ":{"x_min":65.5625,"x_max":911.4375,"ha":950,"o":"m 476 159 b 275 456 353 159 275 274 b 476 745 275 637 353 745 b 678 456 600 745 678 637 b 476 159 678 274 600 159 m 730 1027 b 753 963 741 1010 753 988 b 669 879 753 912 723 891 b 476 922 614 906 548 922 b 65 456 232 922 65 752 b 476 -16 65 161 232 -16 b 887 456 721 -16 887 161 b 764 810 887 610 842 730 b 911 977 853 835 911 887 b 869 1088 911 1023 892 1063 l 730 1027 "},"Ŷ":{"x_min":-11.109375,"x_max":740.28125,"ha":729,"o":"m 262 0 l 466 0 l 466 322 l 740 905 l 526 905 l 444 697 b 368 497 419 629 394 566 l 362 497 b 288 697 337 566 313 629 l 208 905 l -11 905 l 262 322 l 262 0 m 287 975 l 361 1059 l 366 1059 l 441 975 l 597 975 l 463 1141 l 265 1141 l 131 975 l 287 975 "},"Ự":{"x_min":101.5625,"x_max":994.625,"ha":949,"o":"m 461 -100 b 348 -206 394 -100 348 -144 b 461 -313 348 -269 394 -313 b 575 -206 527 -313 575 -269 b 461 -100 575 -144 527 -100 m 814 1055 b 836 991 825 1038 836 1016 b 721 905 836 919 776 906 l 623 905 l 623 398 b 464 159 623 220 565 159 b 307 398 362 159 307 220 l 307 905 l 101 905 l 101 419 b 464 -16 101 115 229 -16 b 821 419 697 -16 821 115 l 821 830 b 994 1005 918 848 994 901 b 952 1116 994 1051 973 1091 l 814 1055 "},"Ý":{"x_min":-11.109375,"x_max":740.28125,"ha":729,"o":"m 262 0 l 466 0 l 466 322 l 740 905 l 526 905 l 444 697 b 368 497 419 629 394 566 l 362 497 b 288 697 337 566 313 629 l 208 905 l -11 905 l 262 322 l 262 0 m 590 1141 l 372 1141 l 261 975 l 423 975 l 590 1141 "},"ŝ":{"x_min":29.375,"x_max":576.015625,"ha":615,"o":"m 29 79 b 293 -16 98 22 202 -16 b 576 205 477 -16 576 80 b 390 412 576 331 477 380 b 255 500 319 438 255 455 b 333 554 255 534 280 554 b 478 495 381 554 428 531 l 570 618 b 327 705 510 662 433 705 b 64 490 168 705 64 618 b 245 287 64 376 162 319 b 385 193 316 259 385 238 b 298 134 385 156 359 134 b 121 206 240 134 183 159 l 29 79 m 114 797 l 251 797 l 324 906 l 330 906 l 404 797 l 541 797 l 408 1005 l 245 1005 l 114 797 "},"ǧ":{"x_min":47.125,"x_max":720.65625,"ha":742,"o":"m 215 -85 b 252 -17 215 -60 227 -39 b 349 -25 274 -23 302 -25 l 420 -25 b 526 -80 488 -25 526 -37 b 367 -164 526 -127 459 -164 b 215 -85 276 -164 215 -137 m 47 -117 b 336 -292 47 -239 174 -292 b 720 -45 572 -292 720 -188 b 458 129 720 78 627 129 l 347 129 b 242 180 270 129 242 145 b 267 231 242 204 249 216 b 351 218 298 222 326 218 b 622 450 502 218 622 291 b 599 540 622 486 612 519 l 709 540 l 709 688 l 458 688 b 351 705 427 700 390 705 b 66 456 202 705 66 622 b 159 277 66 376 111 311 l 159 272 b 81 143 115 241 81 193 b 145 26 81 86 109 50 l 145 21 b 47 -117 81 -14 47 -60 m 351 341 b 256 456 297 341 256 380 b 351 568 256 530 297 568 b 445 456 405 568 445 529 b 351 341 445 380 405 341 m 267 797 l 430 797 l 563 1005 l 426 1005 l 351 895 l 345 895 l 272 1005 l 134 1005 l 267 797 "},"Ƀ":{"x_min":36.109375,"x_max":827.78125,"ha":872,"o":"m 344 145 l 344 243 l 519 243 l 519 341 l 344 341 l 344 430 l 458 430 b 631 293 570 430 631 388 b 458 145 631 197 569 145 l 344 145 m 344 758 l 441 758 b 587 663 536 758 587 730 b 440 551 587 594 538 551 l 344 551 l 344 758 m 630 508 b 783 687 737 534 783 611 b 450 905 783 851 637 905 l 138 905 l 138 341 l 36 333 l 36 243 l 138 243 l 138 0 l 475 0 b 827 277 672 0 827 86 b 630 502 827 405 759 477 l 630 508 "},"₁":{"x_min":105.5625,"x_max":380.5625,"ha":522,"o":"m 229 -352 l 380 -352 l 380 188 l 261 188 b 105 129 215 156 180 140 l 105 37 l 229 37 l 229 -352 "},"ą":{"x_min":64.953125,"x_max":684.859375,"ha":742,"o":"m 259 206 b 452 320 259 259 306 301 l 452 200 b 338 141 416 163 386 141 b 259 206 290 141 259 162 m 64 190 b 269 -16 64 75 144 -16 b 470 70 347 -16 412 19 l 475 70 l 493 -2 b 397 -165 457 -26 397 -83 b 544 -291 397 -248 462 -291 b 684 -245 589 -291 650 -273 l 643 -154 b 593 -170 630 -162 611 -170 b 534 -118 564 -170 534 -155 b 657 0 534 -76 566 -25 l 657 394 b 383 705 657 605 559 705 b 88 615 274 705 176 668 l 160 480 b 344 543 227 519 286 543 b 452 443 418 543 448 504 b 64 190 180 415 64 336 "},"ã":{"x_min":64.953125,"x_max":657.03125,"ha":742,"o":"m 64 191 b 269 -16 64 75 144 -16 b 470 70 346 -16 412 19 l 474 70 l 490 0 l 657 0 l 657 394 b 383 705 657 605 559 705 b 88 615 274 705 176 668 l 160 480 b 344 543 227 519 285 543 b 452 443 417 543 448 504 b 64 191 180 415 64 336 m 259 206 b 452 320 259 259 306 301 l 452 200 b 338 141 416 163 385 141 b 259 206 289 141 259 162 m 159 798 l 263 798 b 312 861 273 844 288 861 b 476 798 352 861 402 798 b 619 986 550 798 605 861 l 515 986 b 467 925 505 941 491 925 b 302 986 426 925 376 986 b 159 798 230 986 173 925 "},"Ắ":{"x_min":-8,"x_max":805,"ha":796,"o":"m 574 1287 l 420 1287 l 331 1122 l 435 1122 l 574 1287 m 489 1141 b 393 1066 478 1097 454 1066 b 297 1141 332 1066 308 1097 l 204 1141 b 393 975 214 1041 274 975 b 582 1141 514 975 572 1041 l 489 1141 m 297 375 l 319 458 b 390 750 345 548 368 654 l 396 750 b 470 458 420 655 445 548 l 490 375 l 297 375 m 588 0 l 805 0 l 521 905 l 275 905 l -8 0 l 200 0 l 256 215 l 532 215 l 588 0 "},"æ":{"x_min":65.65625,"x_max":1040.9375,"ha":1092,"o":"m 260 207 b 447 321 260 261 312 301 l 449 291 b 468 200 451 261 458 227 b 339 141 430 163 386 141 b 260 207 290 141 260 162 m 161 481 b 342 544 228 520 286 544 b 449 445 418 544 444 505 b 65 190 178 417 65 336 b 269 -16 65 74 144 -16 b 535 90 361 -16 437 12 b 772 -16 593 26 669 -16 b 1015 60 853 -16 945 12 l 946 193 b 800 143 896 163 851 143 b 635 284 717 143 650 188 l 1032 284 b 1040 371 1036 301 1040 333 b 767 706 1040 559 949 706 b 562 602 685 706 621 669 b 371 706 522 667 455 706 b 89 616 271 706 176 669 l 161 481 m 635 410 b 760 550 646 506 696 550 b 867 410 835 550 867 493 l 635 410 "},"ĩ":{"x_min":-38.890625,"x_max":422.21875,"ha":383,"o":"m 90 0 l 294 0 l 294 688 l 90 688 l 90 0 m -38 798 l 65 798 b 113 861 76 844 90 861 b 277 798 155 861 204 798 b 422 986 351 798 408 861 l 318 986 b 269 925 308 941 293 925 b 105 986 229 925 179 986 b -38 798 31 986 -23 925 "},"~":{"x_min":40.21875,"x_max":693,"ha":733,"o":"m 145 357 b 245 438 174 409 208 438 b 484 332 322 438 369 332 b 693 475 554 332 624 371 l 587 557 b 487 476 558 505 526 476 b 248 582 411 476 363 582 b 40 439 179 582 108 543 l 145 357 "},"ŀ":{"x_min":90.28125,"x_max":629.171875,"ha":629,"o":"m 90 213 b 277 -16 90 75 137 -16 b 380 0 323 -16 358 -9 l 355 151 b 330 148 344 148 338 148 b 294 205 313 148 294 162 l 294 973 l 90 973 l 90 213 m 383 456 b 505 327 383 384 434 327 b 629 456 576 327 629 384 b 505 584 629 529 576 584 b 383 456 434 584 383 529 "},"Ċ":{"x_min":63.890625,"x_max":777.78125,"ha":808,"o":"m 63 447 b 490 -16 63 143 255 -16 b 777 116 602 -16 702 29 l 665 240 b 493 159 620 191 566 159 b 273 454 359 159 273 268 b 498 745 273 636 372 745 b 651 677 561 745 605 719 l 763 804 b 495 922 702 866 608 922 b 63 447 262 922 63 747 m 476 973 b 594 1080 544 973 594 1018 b 476 1187 594 1143 544 1187 b 358 1080 408 1187 358 1143 b 476 973 358 1018 408 973 "},"¡":{"x_min":112.5,"x_max":359.71875,"ha":472,"o":"m 302 368 l 169 368 l 140 -56 l 133 -241 l 338 -241 l 331 -56 l 302 368 m 359 577 b 236 705 359 650 306 705 b 112 577 165 705 112 650 b 236 448 112 504 165 448 b 359 577 306 448 359 504 "},"ẅ":{"x_min":33.328125,"x_max":1044.453125,"ha":1078,"o":"m 205 0 l 438 0 l 500 275 b 534 476 512 338 522 402 l 540 476 b 577 275 552 402 563 338 l 640 0 l 879 0 l 1044 688 l 855 688 l 790 369 b 758 165 777 301 770 234 l 752 165 b 709 369 738 234 726 301 l 631 688 l 455 688 l 379 369 b 338 165 362 304 351 234 l 333 165 b 302 369 322 234 313 301 l 236 688 l 33 688 l 205 0 m 402 793 b 500 890 459 793 500 834 b 402 986 500 944 459 986 b 305 890 345 986 305 944 b 402 793 305 834 345 793 m 677 793 b 775 890 734 793 775 834 b 677 986 775 944 734 986 b 580 890 620 986 580 944 b 677 793 580 834 620 793 "},"ậ":{"x_min":64.953125,"x_max":656.046875,"ha":742,"o":"m 64 191 b 268 -16 64 75 144 -16 b 470 70 346 -16 411 19 l 474 70 l 489 0 l 656 0 l 656 394 b 382 705 656 605 558 705 b 88 615 274 705 175 668 l 160 480 b 343 543 227 519 285 543 b 452 443 417 543 447 504 b 64 191 180 415 64 336 m 259 206 b 452 320 259 259 306 301 l 452 200 b 338 141 415 163 385 141 b 259 206 289 141 259 162 m 174 797 l 311 797 l 386 906 l 392 906 l 465 797 l 603 797 l 470 1005 l 307 1005 l 174 797 m 365 -313 b 478 -206 431 -313 478 -269 b 365 -100 478 -144 431 -100 b 252 -206 299 -100 252 -144 b 365 -313 252 -269 299 -313 "},"ᵘ":{"x_min":54.171875,"x_max":476.390625,"ha":532,"o":"m 200 352 b 343 420 262 352 311 387 l 345 420 l 361 363 l 476 363 l 476 820 l 331 820 l 331 515 b 255 473 305 486 281 473 b 197 555 205 473 197 498 l 197 820 l 54 820 l 54 536 b 200 352 54 425 97 352 "},"Ử":{"x_min":101.5625,"x_max":994.625,"ha":949,"o":"m 412 959 b 605 1104 516 968 605 1008 b 372 1230 605 1177 544 1226 l 348 1129 b 458 1081 427 1123 458 1108 b 397 1040 458 1056 430 1047 l 412 959 m 814 1055 b 836 991 825 1038 836 1016 b 721 905 836 919 776 906 l 623 905 l 623 398 b 464 159 623 220 565 159 b 307 398 362 159 307 220 l 307 905 l 101 905 l 101 419 b 464 -16 101 115 229 -16 b 821 419 697 -16 821 115 l 821 830 b 994 1005 918 848 994 901 b 952 1116 994 1051 973 1091 l 814 1055 "},"P":{"x_min":106.9375,"x_max":791.671875,"ha":842,"o":"m 106 0 l 311 0 l 311 306 l 437 306 b 791 613 629 306 791 401 b 437 905 791 833 633 905 l 106 905 l 106 0 m 311 469 l 311 743 l 425 743 b 591 613 533 743 591 708 b 425 469 591 519 537 469 l 311 469 "},"%":{"x_min":36.109375,"x_max":1155.5625,"ha":1190,"o":"m 261 347 b 487 636 391 347 487 454 b 261 922 487 816 391 922 b 36 636 130 922 36 816 b 261 347 36 454 130 347 m 261 461 b 177 636 215 461 177 506 b 261 808 177 763 215 808 b 344 636 306 808 344 763 b 261 461 344 506 306 461 m 411 -16 l 898 922 l 781 922 l 293 -16 l 411 -16 m 929 -16 b 1155 272 1059 -16 1155 90 b 929 558 1155 452 1059 558 b 702 272 798 558 702 452 b 929 -16 702 90 798 -16 m 929 97 b 845 272 883 97 845 143 b 929 444 845 401 883 444 b 1012 272 975 444 1012 401 b 929 97 1012 143 975 97 "},"_":{"x_min":16.671875,"x_max":677.78125,"ha":694,"o":"m 16 -79 l 16 -194 l 677 -194 l 677 -79 l 16 -79 "},"ñ":{"x_min":90.0625,"x_max":711.046875,"ha":794,"o":"m 90 0 l 294 0 l 294 465 b 422 531 338 508 370 531 b 506 401 480 531 506 501 l 506 0 l 711 0 l 711 427 b 497 705 711 600 647 705 b 276 601 404 705 334 656 l 270 601 l 256 688 l 90 688 l 90 0 m 197 798 l 301 798 b 349 861 310 844 326 861 b 513 798 390 861 440 798 b 658 986 587 798 642 861 l 554 986 b 505 925 542 941 529 925 b 341 986 465 925 415 986 b 197 798 267 986 210 925 "},"Ŕ":{"x_min":107,"x_max":826.4375,"ha":856,"o":"m 655 1141 l 438 1141 l 326 975 l 488 975 l 655 1141 m 311 743 l 416 743 b 582 623 523 743 582 712 b 416 488 582 534 523 488 l 311 488 l 311 743 m 826 0 l 620 362 b 782 623 718 405 782 490 b 433 905 782 838 625 905 l 107 905 l 107 0 l 311 0 l 311 326 l 423 326 l 597 0 l 826 0 "},"‚":{"x_min":98.609375,"x_max":341.671875,"ha":417,"o":"m 143 -234 b 341 62 276 -169 341 -68 b 211 244 341 177 295 244 b 104 130 148 244 104 199 b 211 29 104 67 151 29 b 223 30 215 29 219 29 b 98 -146 223 -52 181 -104 l 143 -234 "},"⅞":{"x_min":41.625,"x_max":1096.921875,"ha":1151,"o":"m 134 363 l 293 363 b 449 825 302 547 326 668 l 449 905 l 41 905 l 41 779 l 283 779 b 134 363 188 637 144 531 m 334 -16 l 821 922 l 705 922 l 216 -16 l 334 -16 m 817 152 b 863 231 817 181 834 211 b 960 150 919 205 960 193 b 888 83 960 113 930 83 b 817 152 846 83 817 113 m 912 330 b 833 405 867 348 833 366 b 888 455 833 434 858 455 b 946 400 920 455 946 434 b 912 330 946 377 935 352 m 681 137 b 888 -16 681 52 767 -16 b 1096 138 1009 -16 1096 52 b 998 284 1096 206 1053 255 l 998 290 b 1080 409 1042 315 1080 358 b 888 558 1080 502 996 558 b 699 409 784 558 699 502 b 780 283 699 354 733 316 l 780 277 b 681 137 731 250 681 200 "},"Æ":{"x_min":-19.4375,"x_max":1101.390625,"ha":1174,"o":"m 362 365 l 420 494 b 530 751 456 573 493 662 l 536 751 l 536 365 l 362 365 m 740 172 l 740 380 l 1033 380 l 1033 551 l 740 551 l 740 733 l 1087 733 l 1087 905 l 411 905 l -19 0 l 195 0 l 290 206 l 536 206 l 536 0 l 1101 0 l 1101 172 l 740 172 "},"Ū":{"x_min":101.390625,"x_max":820.828125,"ha":924,"o":"m 101 419 b 463 -16 101 115 229 -16 b 820 419 697 -16 820 115 l 820 905 l 623 905 l 623 398 b 463 159 623 220 565 159 b 306 398 362 159 306 220 l 306 905 l 101 905 l 101 419 m 265 1000 l 658 1000 l 658 1129 l 265 1129 l 265 1000 "},"Ṯ":{"x_min":34.71875,"x_max":737.5,"ha":772,"o":"m 283 0 l 488 0 l 488 733 l 737 733 l 737 905 l 34 905 l 34 733 l 283 733 l 283 0 m 577 -131 l 194 -131 l 194 -262 l 577 -262 l 577 -131 "},"Œ":{"x_min":63.890625,"x_max":1136.109375,"ha":1210,"o":"m 63 456 b 518 0 63 145 259 0 l 1136 0 l 1136 172 l 779 172 l 779 380 l 1068 380 l 1068 551 l 779 551 l 779 733 l 1122 733 l 1122 905 l 529 905 b 63 456 259 905 63 768 m 273 456 b 541 740 273 674 383 740 l 573 740 l 573 165 l 541 165 b 273 456 383 165 273 237 "},"Ą":{"x_min":-7.59375,"x_max":835.46875,"ha":796,"o":"m 297 375 l 320 458 b 391 750 345 548 368 654 l 396 750 b 470 458 420 655 445 548 l 491 375 l 297 375 m 788 -158 b 734 -177 774 -168 754 -177 b 679 -125 704 -177 679 -159 b 804 0 679 -69 728 -6 l 521 905 l 275 905 l -7 0 l 200 0 l 256 215 l 532 215 l 588 0 l 643 0 b 531 -179 597 -26 531 -93 b 689 -309 531 -262 600 -309 b 835 -261 738 -309 799 -288 l 788 -158 "},"Ạ":{"x_min":-7.921875,"x_max":804.578125,"ha":796,"o":"m 393 -100 b 280 -206 326 -100 280 -144 b 393 -313 280 -269 326 -313 b 507 -206 460 -313 507 -269 b 393 -100 507 -144 460 -100 m 297 375 l 319 458 b 390 750 344 548 368 654 l 396 750 b 469 458 419 655 444 548 l 490 375 l 297 375 m 804 0 l 521 905 l 275 905 l -7 0 l 200 0 l 255 215 l 532 215 l 587 0 l 804 0 "},"ṡ":{"x_min":27.78125,"x_max":575.015625,"ha":615,"o":"m 27 79 b 291 -16 97 22 201 -16 b 575 205 476 -16 575 80 b 388 412 575 331 476 380 b 254 500 318 438 254 455 b 331 554 254 534 279 554 b 477 495 380 554 427 531 l 569 618 b 326 705 509 662 431 705 b 62 490 166 705 62 618 b 244 287 62 376 161 319 b 384 193 315 259 384 238 b 297 134 384 156 358 134 b 119 206 238 134 181 159 l 27 79 m 326 790 b 438 897 393 790 438 834 b 326 1004 438 959 393 1004 b 212 897 259 1004 212 959 b 326 790 212 834 259 790 "},"ỷ":{"x_min":16.671875,"x_max":706.953125,"ha":724,"o":"m 105 -100 l 69 -255 b 166 -269 97 -263 125 -269 b 468 -6 329 -269 402 -180 l 706 688 l 511 688 l 427 393 b 380 197 411 327 395 262 l 375 197 b 320 393 356 265 340 330 l 222 688 l 16 688 l 281 18 l 272 -18 b 151 -108 254 -72 219 -108 b 105 -100 136 -108 118 -102 m 322 773 b 515 916 426 780 515 822 b 280 1044 515 991 452 1038 l 258 941 b 368 895 337 937 368 922 b 305 854 368 869 340 859 l 322 773 "},"⌟":{"x_min":63.890625,"x_max":356.9375,"ha":478,"o":"m 356 881 l 205 881 l 205 30 l 63 30 l 63 -77 l 356 -77 l 356 881 "},"›":{"x_min":75,"x_max":337.5,"ha":406,"o":"m 75 139 l 151 78 l 337 277 l 337 422 l 151 622 l 75 560 l 229 350 l 75 139 "},"→":{"x_min":56.0625,"x_max":826.9375,"ha":857,"o":"m 826 352 l 440 723 l 343 613 l 551 430 l 56 430 l 56 269 l 551 269 l 343 86 l 440 -23 l 826 347 l 826 352 "},"<":{"x_min":47.21875,"x_max":686.109375,"ha":733,"o":"m 47 389 l 686 144 l 686 311 l 441 392 l 254 457 l 254 463 l 441 528 l 686 609 l 686 777 l 47 531 l 47 389 "},"⸤":{"x_min":120.828125,"x_max":413.890625,"ha":478,"o":"m 120 -211 l 413 -211 l 413 -102 l 273 -102 l 273 386 l 120 386 l 120 -211 "},"¬":{"x_min":47.21875,"x_max":686.109375,"ha":733,"o":"m 47 386 l 536 386 l 536 130 l 686 130 l 686 530 l 47 530 l 47 386 "},"t":{"x_min":23.609375,"x_max":508.328125,"ha":532,"o":"m 118 250 b 355 -16 118 90 184 -16 b 508 8 422 -16 472 -2 l 476 156 b 411 143 458 150 433 143 b 322 252 356 143 322 175 l 322 529 l 487 529 l 487 688 l 322 688 l 322 872 l 152 872 l 129 688 l 23 680 l 23 529 l 118 529 l 118 250 "},"ù":{"x_min":83.484375,"x_max":700.15625,"ha":789,"o":"m 83 261 b 297 -16 83 88 147 -16 b 514 95 391 -16 455 26 l 518 95 l 533 0 l 700 0 l 700 688 l 495 688 l 495 233 b 373 156 455 179 425 156 b 287 287 314 156 287 188 l 287 688 l 83 688 l 83 261 m 361 797 l 509 797 l 386 1005 l 189 1005 l 361 797 "},"̮":{"x_min":-193.0625,"x_max":193.0625,"ha":0,"o":"m 0 -291 b 193 -98 129 -291 188 -200 l 79 -98 b 0 -180 73 -144 48 -180 b -79 -98 -48 -180 -73 -144 l -193 -98 b 0 -291 -188 -200 -129 -291 "},"ï":{"x_min":-43.0625,"x_max":426.390625,"ha":383,"o":"m 90 0 l 294 0 l 294 688 l 90 688 l 90 0 m 54 793 b 151 890 111 793 151 834 b 54 986 151 944 111 986 b -43 890 -2 986 -43 944 b 54 793 -43 834 -2 793 m 329 793 b 426 890 386 793 426 834 b 329 986 426 944 386 986 b 231 890 272 986 231 944 b 329 793 231 834 272 793 "},"Ò":{"x_min":63.890625,"x_max":886.109375,"ha":950,"o":"m 475 -16 b 886 456 719 -16 886 161 b 475 922 886 751 719 922 b 63 456 230 922 63 752 b 475 -16 63 161 230 -16 m 475 159 b 273 456 351 159 273 275 b 475 745 273 637 351 745 b 676 456 598 745 676 637 b 475 159 676 275 598 159 m 416 975 l 579 975 l 466 1141 l 250 1141 l 416 975 "},"ầ":{"x_min":64.953125,"x_max":736.234375,"ha":742,"o":"m 64 191 b 269 -16 64 75 144 -16 b 470 70 347 -16 412 19 l 475 70 l 490 0 l 657 0 l 657 394 b 383 705 657 605 559 705 b 88 615 274 705 176 668 l 160 480 b 344 543 227 519 285 543 b 452 443 418 543 448 504 b 64 191 180 415 64 336 m 259 206 b 452 320 259 259 306 301 l 452 200 b 338 141 416 163 386 141 b 259 206 289 141 259 162 m 195 797 l 321 797 l 387 887 l 392 887 l 457 797 l 583 797 l 470 975 l 308 975 l 195 797 m 641 1061 l 490 1061 l 622 897 l 736 897 l 641 1061 "},"Ồ":{"x_min":64.25,"x_max":885.75,"ha":950,"o":"m 475 -16 b 885 456 719 -16 885 161 b 475 922 885 751 719 922 b 64 456 230 922 64 752 b 475 -16 64 161 230 -16 m 475 159 b 273 456 351 159 273 275 b 475 745 273 637 351 745 b 676 456 598 745 676 637 b 475 159 676 275 598 159 m 709 1236 l 552 1236 l 689 1069 l 805 1069 l 709 1236 m 255 975 l 400 975 l 472 1051 l 477 1051 l 549 975 l 695 975 l 563 1133 l 387 1133 l 255 975 "},"I":{"x_min":106.9375,"x_max":311.109375,"ha":418,"o":"m 106 0 l 311 0 l 311 905 l 106 905 l 106 0 "},"˝":{"x_min":211,"x_max":705,"ha":771,"o":"m 211 795 l 335 795 l 469 1005 l 306 1005 l 211 795 m 448 795 l 573 795 l 705 1005 l 544 1005 l 448 795 "},"ə":{"x_min":50,"x_max":669.828125,"ha":719,"o":"m 50 316 b 346 -16 50 126 150 -16 b 669 344 518 -16 669 120 b 347 705 669 569 529 705 b 94 627 261 705 169 676 l 162 504 b 312 550 211 533 259 550 b 471 402 398 550 455 504 l 58 402 b 50 316 55 386 50 352 m 225 276 l 474 276 b 341 138 460 179 408 138 b 225 276 259 138 225 193 "},"₉":{"x_min":48.96875,"x_max":472.5,"ha":522,"o":"m 253 -55 b 182 17 208 -55 182 -29 b 247 91 182 69 212 91 b 335 -15 287 91 325 62 b 253 -55 308 -43 282 -55 m 60 -312 b 219 -369 92 -340 140 -369 b 472 -79 379 -369 472 -251 b 241 205 472 92 389 205 b 48 13 133 205 48 123 b 218 -157 48 -90 114 -157 b 335 -109 262 -157 303 -140 b 210 -255 325 -200 289 -255 b 118 -219 172 -255 144 -239 l 60 -312 "},"·":{"x_min":84.71875,"x_max":331.9375,"ha":417,"o":"m 84 444 b 208 316 84 372 137 316 b 331 444 279 316 331 372 b 208 573 331 518 279 573 b 84 444 137 573 84 518 "},"Ṝ":{"x_min":107,"x_max":826.453125,"ha":856,"o":"m 626 1129 l 234 1129 l 234 1000 l 626 1000 l 626 1129 m 454 -100 b 341 -206 387 -100 341 -144 b 454 -313 341 -269 387 -313 b 568 -206 520 -313 568 -269 b 454 -100 568 -144 520 -100 m 311 743 l 416 743 b 582 623 523 743 582 712 b 416 488 582 534 523 488 l 311 488 l 311 743 m 620 362 b 782 623 718 405 782 490 b 433 905 782 838 625 905 l 107 905 l 107 0 l 311 0 l 311 326 l 423 326 l 597 0 l 826 0 l 620 362 "},"¿":{"x_min":58.15625,"x_max":586.390625,"ha":643,"o":"m 429 368 l 251 368 b 58 -19 266 204 58 151 b 333 -258 58 -184 176 -258 b 586 -131 436 -258 523 -206 l 473 -29 b 347 -93 436 -66 398 -93 b 254 -5 293 -93 254 -62 b 429 368 254 98 457 177 m 464 577 b 340 705 464 650 411 705 b 216 577 269 705 216 650 b 340 448 216 504 269 448 b 464 577 411 448 464 504 "},"Ứ":{"x_min":101.703125,"x_max":994.625,"ha":949,"o":"m 686 1141 l 469 1141 l 357 975 l 521 975 l 686 1141 m 814 1055 b 836 991 825 1038 836 1016 b 721 905 836 919 776 906 l 623 905 l 623 398 b 464 159 623 220 565 159 b 307 398 362 159 307 220 l 307 905 l 101 905 l 101 419 b 464 -16 101 115 229 -16 b 821 419 697 -16 821 115 l 821 830 b 994 1005 918 848 994 901 b 952 1116 994 1051 973 1091 l 814 1055 "},"ű":{"x_min":82.890625,"x_max":716.21875,"ha":789,"o":"m 82 261 b 296 -16 82 88 146 -16 b 513 95 391 -16 455 26 l 517 95 l 532 0 l 699 0 l 699 688 l 495 688 l 495 233 b 373 156 455 179 424 156 b 287 287 313 156 287 188 l 287 688 l 82 688 l 82 261 m 221 795 l 346 795 l 478 1005 l 316 1005 l 221 795 m 457 795 l 584 795 l 716 1005 l 553 1005 l 457 795 "},"Ḍ":{"x_min":106.9375,"x_max":816.671875,"ha":882,"o":"m 106 0 l 373 0 b 816 456 638 0 816 145 b 362 905 816 768 638 905 l 106 905 l 106 0 m 311 165 l 311 740 l 350 740 b 606 456 504 740 606 673 b 350 165 606 240 504 165 l 311 165 m 434 -313 b 547 -206 500 -313 547 -269 b 434 -100 547 -144 500 -100 b 320 -206 368 -100 320 -144 b 434 -313 320 -269 368 -313 "},"₃":{"x_min":36.59375,"x_max":467.140625,"ha":522,"o":"m 36 -259 b 257 -369 83 -330 162 -369 b 467 -201 368 -369 467 -301 b 368 -70 467 -137 424 -93 b 447 54 418 -41 447 -2 b 258 205 447 148 358 205 b 58 112 174 205 118 176 l 143 37 b 232 91 168 68 197 91 b 300 33 274 91 300 69 b 190 -33 300 -12 257 -33 l 190 -119 b 319 -190 278 -119 319 -143 b 242 -255 319 -231 285 -255 b 126 -188 196 -255 160 -234 l 36 -259 "},"₱":{"x_min":4.40625,"x_max":721.078125,"ha":733,"o":"m 283 561 l 283 623 l 454 623 b 455 586 455 612 455 600 b 454 561 455 577 455 569 l 283 561 m 283 423 l 283 480 l 429 480 b 318 423 407 444 369 423 l 283 423 m 318 754 b 428 704 368 754 404 738 l 283 704 l 283 754 l 318 754 m 721 704 l 628 704 b 329 881 584 833 468 881 l 90 881 l 90 702 l 4 695 l 4 623 l 90 623 l 90 559 l 4 552 l 4 480 l 90 480 l 90 0 l 283 0 l 283 294 l 329 294 b 628 480 465 294 586 354 l 721 480 l 721 561 l 643 561 b 644 586 644 569 644 577 b 643 623 644 598 644 611 l 721 623 l 721 704 "},";":{"x_min":63.890625,"x_max":355.5625,"ha":417,"o":"m 208 433 b 331 561 279 433 331 488 b 208 690 331 634 279 690 b 84 561 137 690 84 634 b 208 433 84 488 137 433 m 105 -269 b 355 47 268 -220 355 -105 b 213 240 355 168 305 240 b 86 123 143 240 86 194 b 209 8 86 50 144 8 b 220 8 213 8 216 8 b 63 -161 220 -62 165 -125 l 105 -269 "},"Ș":{"x_min":48.9375,"x_max":724.96875,"ha":772,"o":"m 48 113 b 383 -16 140 27 265 -16 b 724 263 600 -16 724 113 b 545 509 724 391 655 465 l 429 556 b 291 663 351 588 291 608 b 407 745 291 715 336 745 b 594 673 479 745 534 719 l 698 802 b 407 922 620 880 511 922 b 85 652 218 922 85 802 b 266 405 85 520 173 443 l 384 355 b 515 247 464 322 515 304 b 389 159 515 193 473 159 b 165 254 314 159 230 198 l 48 113 m 339 -58 l 300 -133 b 359 -184 340 -144 359 -158 b 244 -236 359 -216 311 -229 l 260 -318 b 507 -175 391 -311 507 -269 b 339 -58 507 -105 462 -70 "},"Ġ":{"x_min":64.296875,"x_max":805.96875,"ha":886,"o":"m 64 447 b 503 -16 64 143 258 -16 b 805 93 629 -16 742 31 l 805 509 l 475 509 l 475 343 l 625 343 l 625 187 b 528 159 603 169 565 159 b 274 454 358 159 274 268 b 512 745 274 636 372 745 b 678 677 590 745 633 719 l 790 804 b 510 922 730 865 636 922 b 64 447 264 922 64 747 m 510 973 b 628 1080 578 973 628 1018 b 510 1187 628 1143 578 1187 b 392 1080 442 1187 392 1143 b 510 973 392 1018 442 973 "},"6":{"x_min":56.609375,"x_max":683,"ha":733,"o":"m 385 136 b 248 319 324 136 266 180 b 381 406 288 383 337 406 b 496 279 448 406 496 372 b 385 136 496 179 446 136 m 670 793 b 413 898 614 850 530 898 b 56 420 227 898 56 749 b 389 -16 56 111 219 -16 b 683 279 549 -16 683 95 b 420 551 683 465 571 551 b 244 458 366 551 289 516 b 426 733 251 663 328 733 b 563 670 477 733 533 704 l 670 793 "},"n":{"x_min":90.28125,"x_max":711.109375,"ha":794,"o":"m 90 0 l 294 0 l 294 465 b 422 531 338 508 370 531 b 506 401 480 531 506 501 l 506 0 l 711 0 l 711 427 b 497 705 711 600 647 705 b 276 601 404 705 334 656 l 270 601 l 256 688 l 90 688 l 90 0 "},"Ṉ":{"x_min":106.625,"x_max":816.375,"ha":924,"o":"m 106 0 l 301 0 l 301 320 b 276 648 301 427 284 548 l 281 648 l 370 451 l 606 0 l 816 0 l 816 905 l 621 905 l 621 586 b 646 255 621 479 638 351 l 641 255 l 552 455 l 316 905 l 106 905 l 106 0 m 669 -131 l 284 -131 l 284 -262 l 669 -262 l 669 -131 "},"﻿":{"x_min":0,"x_max":0,"ha":0},"ụ":{"x_min":83.328125,"x_max":700,"ha":789,"o":"m 83 261 b 297 -16 83 88 147 -16 b 513 95 391 -16 455 26 l 518 95 l 533 0 l 700 0 l 700 688 l 495 688 l 495 233 b 373 156 455 179 425 156 b 287 287 313 156 287 188 l 287 688 l 83 688 l 83 261 m 420 -313 b 534 -206 487 -313 534 -269 b 420 -100 534 -144 487 -100 b 308 -206 354 -100 308 -144 b 420 -313 308 -269 354 -313 "},"ģ":{"x_min":47.296875,"x_max":720.65625,"ha":742,"o":"m 215 -85 b 252 -17 215 -60 227 -39 b 350 -25 275 -23 302 -25 l 420 -25 b 526 -80 488 -25 526 -37 b 368 -164 526 -127 459 -164 b 215 -85 276 -164 215 -137 m 47 -117 b 336 -292 47 -239 175 -292 b 720 -45 572 -292 720 -188 b 458 129 720 78 627 129 l 347 129 b 243 180 270 129 243 145 b 268 231 243 204 250 216 b 351 218 298 222 326 218 b 622 450 502 218 622 291 b 599 540 622 486 612 519 l 709 540 l 709 688 l 458 688 b 351 705 427 700 390 705 b 66 456 202 705 66 622 b 159 277 66 376 111 311 l 159 272 b 82 143 115 241 82 193 b 145 26 82 86 109 50 l 145 21 b 47 -117 82 -14 47 -60 m 351 341 b 257 456 297 341 257 380 b 351 568 257 530 297 568 b 445 456 405 568 445 529 b 351 341 445 380 405 341 m 398 756 l 437 831 b 377 881 395 841 377 856 b 491 934 377 913 425 927 l 476 1016 b 230 872 344 1009 230 966 b 398 756 230 802 273 768 "},"ʹ":{"x_min":110.671875,"x_max":344,"ha":417,"o":"m 110 493 l 242 493 l 307 751 l 344 952 l 139 952 l 110 493 "},"◆":{"x_min":11.0625,"x_max":468,"ha":479,"o":"m 240 136 l 468 363 l 240 593 l 11 363 l 240 136 "},"Ẵ":{"x_min":-8.5,"x_max":804.21875,"ha":796,"o":"m 509 1341 b 459 1287 502 1304 483 1287 b 313 1341 420 1287 380 1341 b 185 1183 252 1341 197 1291 l 276 1183 b 326 1236 284 1220 302 1236 b 472 1183 365 1236 405 1183 b 600 1341 533 1183 588 1233 l 509 1341 m 204 1141 b 393 975 213 1041 273 975 b 582 1141 513 975 572 1041 l 488 1141 b 393 1066 477 1097 454 1066 b 297 1141 331 1066 308 1097 l 204 1141 m 297 375 l 319 458 b 390 750 344 548 367 654 l 395 750 b 469 458 419 655 444 548 l 490 375 l 297 375 m 587 0 l 804 0 l 520 905 l 274 905 l -8 0 l 199 0 l 255 215 l 531 215 l 587 0 "},"℗":{"x_min":62.5,"x_max":977.78125,"ha":1042,"o":"m 331 193 l 479 193 l 479 319 l 533 319 b 772 519 662 319 772 381 b 533 700 772 652 666 700 l 331 700 l 331 193 m 479 425 l 479 590 l 522 590 b 627 513 590 590 627 568 b 522 425 627 452 593 425 l 479 425 m 62 451 b 520 -12 62 163 275 -12 b 977 451 766 -12 977 163 b 520 909 977 737 766 909 b 62 451 275 909 62 738 m 156 451 b 520 826 156 679 316 826 b 884 451 725 826 884 679 b 520 72 884 223 725 72 b 156 451 316 72 156 223 "},"ḡ":{"x_min":46.046875,"x_max":719.65625,"ha":742,"o":"m 214 -85 b 251 -17 214 -60 226 -39 b 348 -25 273 -23 301 -25 l 419 -25 b 525 -80 487 -25 525 -37 b 366 -164 525 -127 458 -164 b 214 -85 275 -164 214 -137 m 46 -117 b 334 -292 46 -239 173 -292 b 719 -45 571 -292 719 -188 b 457 129 719 78 626 129 l 346 129 b 241 180 269 129 241 145 b 266 231 241 204 248 216 b 350 218 297 222 325 218 b 621 450 501 218 621 291 b 598 540 621 486 611 519 l 708 540 l 708 688 l 457 688 b 350 705 426 700 389 705 b 65 456 201 705 65 622 b 158 277 65 376 109 311 l 158 272 b 80 143 114 241 80 193 b 144 26 80 86 108 50 l 144 21 b 46 -117 80 -14 46 -60 m 350 341 b 255 456 296 341 255 380 b 350 568 255 530 296 568 b 444 456 404 568 444 529 b 350 341 444 380 404 341 m 155 822 l 539 822 l 539 951 l 155 951 l 155 822 "},"∂":{"x_min":66.671875,"x_max":734.71875,"ha":801,"o":"m 361 149 b 254 270 305 149 254 189 b 388 424 254 374 311 424 b 526 342 438 424 487 401 b 361 149 497 199 431 149 m 247 706 b 390 768 290 746 336 768 b 541 518 500 768 541 674 b 541 496 541 510 541 503 b 365 579 494 549 430 579 b 66 257 190 579 66 447 b 338 -16 66 89 190 -16 b 734 513 572 -16 734 195 b 412 933 734 765 627 933 b 159 831 315 933 233 896 l 247 706 "},"‡":{"x_min":61.109375,"x_max":647.21875,"ha":708,"o":"m 61 116 l 284 129 l 272 -111 l 436 -111 l 423 129 l 647 116 l 647 280 l 423 263 l 436 438 l 423 613 l 647 597 l 647 761 l 423 748 l 436 988 l 272 988 l 284 748 l 61 761 l 61 597 l 284 613 l 272 438 l 284 263 l 61 280 l 61 116 "},"ň":{"x_min":90.21875,"x_max":711.046875,"ha":794,"o":"m 90 0 l 294 0 l 294 465 b 422 531 338 508 370 531 b 506 401 480 531 506 501 l 506 0 l 711 0 l 711 427 b 497 705 711 600 647 705 b 276 601 404 705 334 656 l 270 601 l 256 688 l 90 688 l 90 0 m 345 797 l 508 797 l 641 1005 l 504 1005 l 430 895 l 424 895 l 351 1005 l 213 1005 l 345 797 "},"√":{"x_min":38,"x_max":827,"ha":817,"o":"m 279 611 l 38 512 l 74 416 l 176 459 l 385 -111 l 526 -111 l 827 1139 l 690 1139 l 472 202 b 451 89 464 165 457 126 l 446 89 b 417 202 438 126 428 165 l 279 611 "},"⁴":{"x_min":48.609375,"x_max":511.109375,"ha":522,"o":"m 186 829 l 244 941 l 300 1048 l 305 1048 l 297 886 l 297 829 l 186 829 m 511 829 l 430 829 l 430 1152 l 244 1152 l 48 806 l 48 731 l 297 731 l 297 611 l 430 611 l 430 731 l 511 731 l 511 829 "},"ę":{"x_min":50.171875,"x_max":667.9375,"ha":719,"o":"m 50 344 b 398 -17 50 116 201 -17 b 435 -12 408 -17 419 -17 b 358 -165 401 -43 358 -97 b 502 -292 358 -248 420 -292 b 642 -246 547 -292 608 -273 l 601 -154 b 552 -171 587 -162 570 -171 b 492 -118 519 -171 492 -154 b 642 60 492 -64 520 -23 l 574 184 b 426 138 524 153 477 138 b 247 288 334 138 265 184 l 659 288 b 667 374 663 305 667 337 b 374 705 667 562 570 705 b 50 344 209 705 50 567 m 246 414 b 379 549 259 508 315 549 b 494 414 460 549 494 494 l 246 414 "},"ố":{"x_min":50.1875,"x_max":779.5625,"ha":771,"o":"m 50 344 b 386 -16 50 115 211 -16 b 721 344 560 -16 721 115 b 386 705 721 573 560 705 b 50 344 211 705 50 573 m 259 344 b 386 540 259 463 301 540 b 512 344 469 540 512 463 b 386 148 512 225 469 148 b 259 344 301 148 259 225 m 191 797 l 318 797 l 383 887 l 389 887 l 453 797 l 579 797 l 467 975 l 304 975 l 191 797 m 533 897 l 649 897 l 779 1061 l 629 1061 l 533 897 "},"Ặ":{"x_min":-7.921875,"x_max":804.578125,"ha":796,"o":"m 471 1141 b 393 1077 462 1105 440 1077 b 315 1141 346 1077 324 1105 l 203 1141 b 393 975 214 1043 272 975 b 583 1141 514 975 572 1043 l 471 1141 m 393 -100 b 280 -206 326 -100 280 -144 b 393 -313 280 -269 326 -313 b 507 -206 460 -313 507 -269 b 393 -100 507 -144 460 -100 m 297 375 l 319 458 b 390 750 344 548 368 654 l 396 750 b 469 458 419 655 444 548 l 490 375 l 297 375 m 804 0 l 521 905 l 275 905 l -7 0 l 200 0 l 255 215 l 532 215 l 587 0 l 804 0 "},"į":{"x_min":57.328125,"x_max":344.828125,"ha":383,"o":"m 90 0 l 147 0 b 57 -165 112 -27 57 -84 b 204 -291 57 -248 122 -291 b 344 -245 247 -291 310 -273 l 303 -154 b 254 -170 286 -162 271 -170 b 194 -118 222 -170 194 -154 b 294 0 194 -76 221 -27 l 294 688 l 90 688 l 90 0 m 192 790 b 310 897 260 790 310 834 b 192 1002 310 959 260 1002 b 74 897 124 1002 74 959 b 192 790 74 834 124 790 "},"Ế":{"x_min":106.9375,"x_max":811.109375,"ha":761,"o":"m 106 0 l 687 0 l 687 172 l 311 172 l 311 380 l 619 380 l 619 551 l 311 551 l 311 733 l 673 733 l 673 905 l 106 905 l 106 0 m 556 1069 l 673 1069 l 811 1236 l 652 1236 l 556 1069 m 180 975 l 324 975 l 397 1051 l 402 1051 l 476 975 l 620 975 l 488 1133 l 312 1133 l 180 975 "},"ắ":{"x_min":64.953125,"x_max":657.09375,"ha":742,"o":"m 64 191 b 269 -16 64 75 144 -16 b 470 70 347 -16 412 19 l 475 70 l 490 0 l 657 0 l 657 394 b 383 705 657 605 559 705 b 88 615 274 705 176 668 l 160 480 b 344 543 227 519 285 543 b 452 443 418 543 448 504 b 64 191 180 415 64 336 m 259 206 b 452 320 259 259 306 301 l 452 200 b 338 141 416 163 386 141 b 259 206 290 141 259 162 m 324 961 l 427 961 l 552 1125 l 405 1125 l 324 961 m 390 797 b 583 990 519 797 579 890 l 491 990 b 390 897 483 938 452 897 b 287 990 326 897 295 938 l 197 990 b 390 797 199 890 259 797 "},"Ṅ":{"x_min":106.625,"x_max":816.375,"ha":924,"o":"m 106 0 l 301 0 l 301 320 b 276 648 301 427 284 548 l 281 648 l 370 451 l 606 0 l 816 0 l 816 905 l 621 905 l 621 586 b 646 255 621 479 638 351 l 641 255 l 552 455 l 316 905 l 106 905 l 106 0 m 462 973 b 580 1080 531 973 580 1018 b 462 1187 580 1143 531 1187 b 344 1080 394 1187 344 1143 b 462 973 344 1018 394 973 "},"≈":{"x_min":40.21875,"x_max":693,"ha":733,"o":"m 145 520 b 245 599 174 570 208 599 b 484 495 322 599 369 495 b 693 638 554 495 624 533 l 587 719 b 487 640 558 669 526 640 b 248 744 411 640 363 744 b 40 601 179 744 108 705 l 145 520 m 145 196 b 245 275 174 246 208 275 b 484 171 322 275 369 171 b 693 314 554 171 624 210 l 587 395 b 487 316 558 345 526 316 b 248 420 411 316 363 420 b 40 277 179 420 108 382 l 145 196 "},"ĸ":{"x_min":90.28125,"x_max":752.78125,"ha":761,"o":"m 90 0 l 294 0 l 294 162 l 376 262 l 531 0 l 752 0 l 498 405 l 734 688 l 512 688 l 298 411 l 294 411 l 294 688 l 90 688 l 90 0 "},"g":{"x_min":47.046875,"x_max":720.65625,"ha":742,"o":"m 215 -85 b 252 -17 215 -60 227 -39 b 349 -25 274 -23 302 -25 l 420 -25 b 526 -80 488 -25 526 -37 b 367 -164 526 -127 459 -164 b 215 -85 276 -164 215 -137 m 47 -117 b 335 -292 47 -239 174 -292 b 720 -45 572 -292 720 -188 b 458 129 720 78 627 129 l 347 129 b 242 180 270 129 242 145 b 267 231 242 204 249 216 b 351 218 298 222 326 218 b 622 450 502 218 622 291 b 599 540 622 486 612 519 l 709 540 l 709 688 l 458 688 b 351 705 427 700 390 705 b 66 456 202 705 66 622 b 159 277 66 376 110 311 l 159 272 b 81 143 115 241 81 193 b 145 26 81 86 109 50 l 145 21 b 47 -117 81 -14 47 -60 m 351 341 b 256 456 297 341 256 380 b 351 568 256 530 297 568 b 445 456 405 568 445 529 b 351 341 445 380 405 341 "},"²":{"x_min":37.765625,"x_max":464.15625,"ha":522,"o":"m 62 611 l 464 611 l 464 736 l 300 736 b 444 986 376 820 444 898 b 244 1169 444 1102 364 1169 b 37 1058 161 1169 93 1131 l 122 980 b 221 1045 153 1020 184 1045 b 300 961 271 1045 300 1013 b 62 691 300 893 201 805 l 62 611 "},"ʳ":{"x_min":58.328125,"x_max":377.78125,"ha":378,"o":"m 58 363 l 202 363 l 202 625 b 302 705 227 684 268 705 b 352 697 320 705 340 700 l 377 820 b 319 831 365 826 347 831 b 188 740 273 831 225 802 l 186 740 l 175 820 l 58 820 l 58 363 "},"́":{"x_min":-114,"x_max":207,"ha":0,"o":"m 207 1005 l 9 1005 l -114 797 l 34 797 l 207 1005 "},"Ã":{"x_min":-8.28125,"x_max":804.21875,"ha":796,"o":"m 525 1165 b 472 1102 515 1119 495 1102 b 305 1165 429 1102 380 1165 b 157 976 233 1165 170 1102 l 261 976 b 313 1038 270 1022 290 1038 b 480 976 357 1038 405 976 b 629 1165 552 976 615 1038 l 525 1165 m 297 375 l 319 458 b 390 750 344 548 368 654 l 395 750 b 469 458 419 655 444 548 l 490 375 l 297 375 m 587 0 l 804 0 l 520 905 l 275 905 l -8 0 l 200 0 l 255 215 l 532 215 l 587 0 "},"▲":{"x_min":26.390625,"x_max":794.453125,"ha":822,"o":"m 26 29 l 794 29 l 794 31 l 413 756 l 408 756 l 26 31 l 26 29 "},"̄":{"x_min":-191.671875,"x_max":191.671875,"ha":0,"o":"m -191 822 l 191 822 l 191 951 l -191 951 l -191 822 "},"©":{"x_min":62.5,"x_max":977.78125,"ha":1042,"o":"m 62 451 b 520 -12 62 163 275 -12 b 977 451 766 -12 977 163 b 520 909 977 737 766 909 b 62 451 275 909 62 738 m 156 451 b 520 826 156 679 316 826 b 884 451 725 826 884 679 b 520 72 884 223 725 72 b 156 451 316 72 156 223 m 269 450 b 537 176 269 281 381 176 b 720 248 609 176 668 206 l 654 343 b 543 295 619 315 588 295 b 415 450 465 295 415 355 b 550 597 415 531 462 597 b 644 550 587 597 615 580 l 720 634 b 537 716 676 679 622 716 b 269 450 397 716 269 612 "},"≥":{"x_min":47.21875,"x_max":686.109375,"ha":733,"o":"m 47 0 l 686 0 l 686 144 l 47 144 l 47 0 m 686 580 l 47 777 l 47 609 l 286 545 l 479 498 l 479 493 l 286 445 l 47 381 l 47 213 l 686 411 l 686 580 "},"Ă":{"x_min":-8,"x_max":805,"ha":796,"o":"m 471 1141 b 393 1077 463 1105 440 1077 b 315 1141 346 1077 324 1105 l 203 1141 b 393 975 214 1043 272 975 b 584 1141 514 975 572 1043 l 471 1141 m 297 375 l 319 458 b 390 750 345 548 368 654 l 396 750 b 470 458 420 655 445 548 l 490 375 l 297 375 m 588 0 l 805 0 l 521 905 l 275 905 l -8 0 l 200 0 l 256 215 l 532 215 l 588 0 "},"ẞ":{"x_min":111.015625,"x_max":924.90625,"ha":979,"o":"m 111 0 l 316 0 l 316 540 b 495 756 316 684 376 756 b 642 675 570 756 619 718 l 491 501 l 505 381 b 715 248 658 354 715 304 b 617 148 715 188 677 148 b 491 208 577 148 536 163 l 384 83 b 642 -16 436 31 523 -16 b 924 247 824 -16 924 98 b 695 498 924 383 831 455 l 845 668 b 501 922 804 819 681 922 b 111 568 231 922 111 770 l 111 0 "},"ǖ":{"x_min":83.328125,"x_max":700,"ha":789,"o":"m 83 261 b 297 -16 83 88 147 -16 b 513 95 391 -16 455 26 l 518 95 l 533 0 l 700 0 l 700 688 l 495 688 l 495 233 b 373 156 455 179 425 156 b 287 287 313 156 287 188 l 287 688 l 83 688 l 83 261 m 258 793 b 344 877 308 793 344 830 b 258 963 344 926 308 963 b 172 877 208 963 172 926 b 258 793 172 830 208 793 m 533 793 b 619 877 583 793 619 830 b 533 963 619 926 583 963 b 447 877 483 963 447 926 b 533 793 447 830 483 793 m 204 1050 l 587 1050 l 587 1145 l 204 1145 l 204 1050 "},"ÿ":{"x_min":16.21875,"x_max":706.5,"ha":724,"o":"m 105 -100 l 69 -255 b 166 -269 96 -263 124 -269 b 467 -6 328 -269 402 -180 l 706 688 l 510 688 l 427 393 b 380 197 410 327 395 262 l 374 197 b 320 393 356 265 339 330 l 221 688 l 16 688 l 281 18 l 271 -18 b 150 -108 253 -72 219 -108 b 105 -100 135 -108 117 -102 m 232 793 b 330 890 289 793 330 834 b 232 986 330 944 289 986 b 135 890 175 986 135 944 b 232 793 135 834 175 793 m 507 793 b 605 890 564 793 605 834 b 507 986 605 944 564 986 b 410 890 450 986 410 944 b 507 793 410 834 450 793 "},"Ḹ":{"x_min":18.0625,"x_max":669.453125,"ha":719,"o":"m 106 0 l 669 0 l 669 172 l 311 172 l 311 905 l 106 905 l 106 0 m 18 1000 l 411 1000 l 411 1129 l 18 1129 l 18 1000 m 402 -313 b 516 -206 469 -313 516 -269 b 402 -100 516 -144 469 -100 b 290 -206 336 -100 290 -144 b 402 -313 290 -269 336 -313 "},"Ł":{"x_min":15.28125,"x_max":679.171875,"ha":728,"o":"m 322 172 l 322 386 l 562 518 l 562 676 l 322 544 l 322 905 l 116 905 l 116 450 l 15 390 l 15 231 l 116 291 l 116 0 l 679 0 l 679 172 l 322 172 "},"∫":{"x_min":58.328125,"x_max":504.171875,"ha":542,"o":"m 77 -61 l 58 -208 b 137 -219 73 -213 104 -219 b 398 123 355 -219 398 -72 b 347 761 398 352 347 548 b 434 945 347 891 362 945 b 483 940 454 945 470 944 l 504 1088 b 425 1098 488 1093 456 1098 b 162 755 206 1098 162 951 b 215 118 162 526 215 330 b 127 -66 215 -13 200 -66 b 77 -61 108 -66 91 -63 "},"\\":{"x_min":39.109375,"x_max":453,"ha":471,"o":"m 319 -222 l 453 -222 l 172 986 l 39 986 l 319 -222 "},"Ì":{"x_min":-15.28125,"x_max":312.5,"ha":418,"o":"m 106 0 l 311 0 l 311 905 l 106 905 l 106 0 m 150 975 l 312 975 l 201 1141 l -15 1141 l 150 975 "},"ḗ":{"x_min":49.625,"x_max":666.9375,"ha":719,"o":"m 49 344 b 397 -16 49 116 200 -16 b 641 61 479 -16 571 12 l 573 184 b 425 138 523 154 476 138 b 246 288 334 138 264 184 l 658 288 b 666 375 662 305 666 338 b 374 705 666 562 569 705 b 49 344 209 705 49 568 m 245 415 b 378 550 259 506 314 550 b 493 415 460 550 493 494 l 245 415 m 280 1023 l 410 1023 l 569 1177 l 395 1177 l 280 1023 m 182 822 l 565 822 l 565 951 l 182 951 l 182 822 "},"Ē":{"x_min":106.9375,"x_max":687.5,"ha":761,"o":"m 106 0 l 687 0 l 687 172 l 311 172 l 311 380 l 619 380 l 619 551 l 311 551 l 311 733 l 673 733 l 673 905 l 106 905 l 106 0 m 204 1000 l 597 1000 l 597 1129 l 204 1129 l 204 1000 "},"!":{"x_min":112.5,"x_max":359.71875,"ha":472,"o":"m 169 320 l 302 320 l 331 745 l 338 930 l 133 930 l 140 745 l 169 320 m 112 111 b 236 -16 112 38 165 -16 b 359 111 306 -16 359 38 b 236 240 359 184 306 240 b 112 111 165 240 112 184 "},"▶":{"x_min":73.609375,"x_max":802.78125,"ha":822,"o":"m 73 6 l 76 6 l 802 388 l 802 394 l 76 775 l 73 775 l 73 6 "},"ç":{"x_min":50.265625,"x_max":619.703125,"ha":649,"o":"m 451 -11 b 619 69 509 0 571 26 l 537 198 b 414 148 504 172 464 148 b 259 344 325 148 259 225 b 421 540 259 463 322 540 b 516 500 453 540 483 527 l 609 626 b 408 705 564 673 493 705 b 50 344 218 705 50 573 b 330 -12 50 140 168 12 l 283 -105 b 364 -163 346 -120 364 -140 b 250 -225 364 -200 316 -218 l 265 -306 b 511 -162 396 -300 511 -258 b 430 -59 511 -105 476 -75 l 451 -11 "},"̣":{"x_min":-112.5,"x_max":112.5,"ha":0,"o":"m 0 -313 b 112 -206 66 -313 112 -269 b 0 -100 112 -144 66 -100 b -112 -206 -66 -100 -112 -144 b 0 -313 -112 -269 -66 -313 "},"đ":{"x_min":54.171875,"x_max":800,"ha":796,"o":"m 501 212 b 388 150 468 166 433 150 b 263 333 309 150 263 204 b 387 511 263 454 322 511 b 501 466 425 511 465 500 l 501 212 m 800 870 l 705 870 l 705 973 l 501 973 l 501 870 l 294 870 l 294 772 l 501 772 l 501 711 l 509 605 b 340 677 462 650 416 677 b 54 330 194 677 54 544 b 336 -16 54 111 165 -16 b 516 61 405 -16 469 15 l 522 61 l 534 0 l 705 0 l 705 773 l 800 780 l 800 870 "},"ċ":{"x_min":50,"x_max":619.4375,"ha":649,"o":"m 50 344 b 390 -16 50 115 198 -16 b 619 69 465 -16 552 11 l 537 198 b 413 148 504 172 463 148 b 259 344 325 148 259 225 b 420 540 259 463 322 540 b 516 500 452 540 483 527 l 609 626 b 408 705 563 673 493 705 b 50 344 218 705 50 573 m 402 790 b 516 897 469 790 516 834 b 402 1004 516 959 469 1004 b 290 897 337 1004 290 959 b 402 790 290 834 337 790 "},"Ā":{"x_min":-8.484375,"x_max":804.015625,"ha":796,"o":"m 588 1129 l 197 1129 l 197 1000 l 588 1000 l 588 1129 m 297 375 l 319 458 b 390 750 344 548 367 654 l 395 750 b 469 458 419 655 444 548 l 490 375 l 297 375 m 587 0 l 804 0 l 520 905 l 274 905 l -8 0 l 199 0 l 255 215 l 531 215 l 587 0 "},"Ẃ":{"x_min":19.125,"x_max":1111,"ha":1129,"o":"m 187 0 l 439 0 l 524 411 b 562 620 539 480 551 554 l 567 620 b 603 411 577 554 588 480 l 692 0 l 949 0 l 1111 905 l 915 905 l 852 481 b 815 195 840 388 827 293 l 809 195 b 755 481 791 293 773 390 l 658 905 l 484 905 l 387 481 b 333 195 369 387 351 291 l 327 195 b 291 481 316 291 302 387 l 228 905 l 19 905 l 187 0 m 790 1141 l 573 1141 l 460 975 l 623 975 l 790 1141 "},"ˡ":{"x_min":58.328125,"x_max":261.109375,"ha":269,"o":"m 58 512 b 190 352 58 416 90 352 b 261 365 223 352 244 356 l 244 469 b 226 466 236 466 231 466 b 202 505 212 466 202 476 l 202 1005 l 58 1005 l 58 512 "},"ø":{"x_min":49.984375,"x_max":721.015625,"ha":771,"o":"m 513 427 b 523 332 520 400 523 369 b 386 141 523 217 469 141 b 305 169 354 141 326 150 l 513 427 m 256 262 b 247 355 249 288 247 319 b 386 546 247 470 301 546 b 463 520 416 546 443 538 l 256 262 m 707 666 l 630 725 l 569 650 b 386 705 515 685 451 705 b 49 344 211 705 49 573 b 129 103 49 244 80 163 l 63 23 l 140 -35 l 199 38 b 386 -17 254 2 319 -17 b 721 344 559 -17 721 114 b 641 585 721 444 690 524 l 707 666 "},"â":{"x_min":64.953125,"x_max":657.046875,"ha":742,"o":"m 64 191 b 269 -16 64 75 144 -16 b 470 70 346 -16 412 19 l 474 70 l 490 0 l 657 0 l 657 394 b 383 705 657 605 559 705 b 88 615 274 705 176 668 l 160 480 b 344 543 227 519 285 543 b 452 443 417 543 448 504 b 64 191 180 415 64 336 m 259 206 b 452 320 259 259 306 301 l 452 200 b 338 141 416 163 385 141 b 259 206 289 141 259 162 m 174 797 l 312 797 l 387 906 l 392 906 l 466 797 l 604 797 l 470 1005 l 308 1005 l 174 797 "},"}":{"x_min":63.890625,"x_max":434.71875,"ha":478,"o":"m 63 -102 l 63 -211 l 151 -211 b 329 -13 273 -211 329 -163 b 315 223 329 84 315 136 b 434 326 315 272 344 323 l 434 445 b 315 548 344 448 315 500 b 329 786 315 636 329 687 b 151 983 329 936 273 983 l 63 983 l 63 875 l 90 875 b 163 777 148 875 163 854 b 158 551 163 702 158 636 b 261 388 158 445 191 405 l 261 383 b 158 220 191 366 158 326 b 163 -5 158 136 163 69 b 90 -102 163 -81 148 -102 l 63 -102 "},"ț":{"x_min":23.5,"x_max":508.171875,"ha":532,"o":"m 117 250 b 355 -16 117 90 184 -16 b 508 8 422 -16 472 -2 l 476 156 b 410 143 458 150 433 143 b 322 252 356 143 322 175 l 322 529 l 487 529 l 487 688 l 322 688 l 322 872 l 152 872 l 129 688 l 23 680 l 23 529 l 117 529 l 117 250 m 277 -58 l 238 -133 b 298 -184 279 -144 298 -158 b 183 -236 298 -216 249 -229 l 198 -318 b 445 -175 330 -311 445 -269 b 277 -58 445 -105 401 -70 "},"‰":{"x_min":36.109375,"x_max":1698.609375,"ha":1735,"o":"m 409 -16 l 898 922 l 780 922 l 291 -16 l 409 -16 m 261 347 b 487 636 391 347 487 454 b 261 922 487 816 391 922 b 36 636 130 922 36 816 b 261 347 36 454 130 347 m 261 461 b 177 636 215 461 177 506 b 261 808 177 763 215 808 b 344 636 306 808 344 763 b 261 461 344 506 306 461 m 927 -16 b 1154 272 1059 -16 1154 90 b 927 558 1154 452 1059 558 b 702 272 797 558 702 452 b 927 -16 702 90 797 -16 m 927 97 b 844 272 881 97 844 143 b 927 444 844 401 881 444 b 1012 272 973 444 1012 401 b 927 97 1012 143 973 97 m 1473 -16 b 1698 272 1604 -16 1698 90 b 1473 558 1698 452 1604 558 b 1247 272 1341 558 1247 452 b 1473 -16 1247 90 1341 -16 m 1473 97 b 1388 272 1427 97 1388 143 b 1473 444 1388 401 1427 444 b 1556 272 1519 444 1556 401 b 1473 97 1556 143 1519 97 "},"Ä":{"x_min":-8.984375,"x_max":803.515625,"ha":796,"o":"m 529 972 b 627 1069 586 972 627 1013 b 529 1166 627 1125 586 1166 b 432 1069 472 1166 432 1125 b 529 972 432 1013 472 972 m 254 972 b 352 1069 311 972 352 1013 b 254 1166 352 1125 311 1166 b 157 1069 197 1166 157 1125 b 254 972 157 1013 197 972 m 296 375 l 318 458 b 389 750 343 548 367 654 l 395 750 b 468 458 418 655 443 548 l 489 375 l 296 375 m 586 0 l 803 0 l 520 905 l 274 905 l -8 0 l 199 0 l 254 215 l 531 215 l 586 0 "},"ř":{"x_min":90.28125,"x_max":556.9375,"ha":553,"o":"m 90 0 l 294 0 l 294 400 b 445 526 330 493 394 526 b 520 515 475 526 495 522 l 554 691 b 472 705 534 700 511 705 b 276 568 401 705 326 661 l 270 568 l 256 688 l 90 688 l 90 0 m 261 797 l 423 797 l 556 1005 l 419 1005 l 345 895 l 340 895 l 265 1005 l 129 1005 l 261 797 "},"Ṣ":{"x_min":48.578125,"x_max":724.96875,"ha":772,"o":"m 48 113 b 383 -16 140 27 265 -16 b 724 263 599 -16 724 113 b 545 509 724 391 655 465 l 429 556 b 291 663 351 588 291 608 b 406 745 291 715 336 745 b 594 673 479 745 534 719 l 698 802 b 406 922 620 880 511 922 b 84 652 218 922 84 802 b 266 405 84 520 173 443 l 384 355 b 515 247 463 322 515 304 b 388 159 515 193 473 159 b 165 254 313 159 230 198 l 48 113 m 387 -313 b 501 -206 454 -313 501 -269 b 387 -100 501 -144 454 -100 b 274 -206 322 -100 274 -144 b 387 -313 274 -269 322 -313 "},"—":{"x_min":59.71875,"x_max":1051.390625,"ha":1111,"o":"m 59 286 l 1051 286 l 1051 416 l 59 416 l 59 286 "},"N":{"x_min":106.625,"x_max":816.375,"ha":924,"o":"m 106 0 l 301 0 l 301 320 b 276 648 301 427 284 548 l 281 648 l 370 451 l 606 0 l 816 0 l 816 905 l 621 905 l 621 586 b 646 255 621 479 638 351 l 641 255 l 552 455 l 316 905 l 106 905 l 106 0 "},"⁄":{"x_min":-236.9375,"x_max":370,"ha":133,"o":"m -118 -16 l 370 922 l 251 922 l -236 -16 l -118 -16 "},"2":{"x_min":41.671875,"x_max":672.21875,"ha":733,"o":"m 51 0 l 672 0 l 672 172 l 494 172 b 347 160 452 172 391 166 b 629 617 490 310 629 469 b 337 898 629 787 511 898 b 41 758 211 898 129 851 l 152 648 b 309 738 197 695 245 738 b 434 605 386 738 434 691 b 51 116 434 480 276 328 l 51 0 "},"Ó":{"x_min":63.53125,"x_max":885.75,"ha":950,"o":"m 474 -16 b 885 456 719 -16 885 161 b 474 922 885 751 719 922 b 63 456 230 922 63 752 b 474 -16 63 161 230 -16 m 474 159 b 273 456 351 159 273 275 b 474 745 273 637 351 745 b 676 456 598 745 676 637 b 474 159 676 275 598 159 m 699 1141 l 482 1141 l 370 975 l 534 975 l 699 1141 "},"˜":{"x_min":156,"x_max":615.71875,"ha":771,"o":"m 156 798 l 260 798 b 308 861 269 844 283 861 b 472 798 349 861 399 798 b 615 986 546 798 601 861 l 511 986 b 464 925 501 941 487 925 b 299 986 422 925 372 986 b 156 798 226 986 169 925 "},"ˇ":{"x_min":170.828125,"x_max":600,"ha":771,"o":"m 304 797 l 466 797 l 600 1005 l 462 1005 l 388 895 l 383 895 l 308 1005 l 170 1005 l 304 797 "},"ų":{"x_min":83.40625,"x_max":727.859375,"ha":789,"o":"m 83 261 b 297 -16 83 88 147 -16 b 513 95 391 -16 455 26 l 518 95 l 536 -2 b 440 -165 498 -27 440 -83 b 587 -291 440 -248 505 -291 b 727 -245 630 -291 693 -273 l 686 -154 b 636 -170 673 -162 654 -170 b 577 -118 607 -170 577 -154 b 700 0 577 -76 608 -27 l 700 688 l 495 688 l 495 233 b 373 156 455 179 425 156 b 287 287 313 156 287 188 l 287 688 l 83 688 l 83 261 "},"Ŭ":{"x_min":101.375,"x_max":821.1875,"ha":924,"o":"m 101 419 b 464 -16 101 115 229 -16 b 821 419 697 -16 821 115 l 821 905 l 623 905 l 623 398 b 464 159 623 220 565 159 b 306 398 362 159 306 220 l 306 905 l 101 905 l 101 419 m 461 975 b 651 1141 582 975 640 1043 l 540 1141 b 461 1077 532 1105 509 1077 b 383 1141 414 1077 391 1105 l 272 1141 b 461 975 281 1043 340 975 "},"₦":{"x_min":3.625,"x_max":728,"ha":733,"o":"m 496 408 l 444 408 l 425 475 l 490 475 l 496 408 m 522 151 l 516 151 l 466 327 l 504 327 l 522 151 m 236 475 l 288 475 l 307 408 l 242 408 l 236 475 m 210 730 l 216 730 l 266 555 l 228 555 l 210 730 m 728 475 l 728 555 l 632 555 l 632 881 l 484 881 l 484 555 l 401 555 l 289 881 l 100 881 l 100 555 l 3 547 l 3 475 l 100 475 l 100 408 l 3 400 l 3 327 l 100 327 l 100 0 l 248 0 l 248 327 l 331 327 l 443 0 l 632 0 l 632 327 l 728 327 l 728 408 l 632 408 l 632 475 l 728 475 "},"̌":{"x_min":-213.78125,"x_max":214,"ha":0,"o":"m -80 797 l 80 797 l 214 1005 l 76 1005 l 2 895 l -2 895 l -76 1005 l -213 1005 l -80 797 "},"ĝ":{"x_min":46.453125,"x_max":720.65625,"ha":742,"o":"m 214 -85 b 252 -17 214 -60 227 -39 b 349 -25 274 -23 302 -25 l 420 -25 b 526 -80 488 -25 526 -37 b 367 -164 526 -127 459 -164 b 214 -85 275 -164 214 -137 m 46 -117 b 335 -292 46 -239 174 -292 b 720 -45 571 -292 720 -188 b 457 129 720 78 627 129 l 346 129 b 242 180 270 129 242 145 b 267 231 242 204 249 216 b 350 218 298 222 325 218 b 622 450 502 218 622 291 b 599 540 622 486 612 519 l 709 540 l 709 688 l 458 688 b 350 705 427 700 389 705 b 65 456 202 705 65 622 b 159 277 65 376 110 311 l 159 272 b 81 143 114 241 81 193 b 145 26 81 86 108 50 l 145 21 b 46 -117 81 -14 46 -60 m 350 341 b 256 456 296 341 256 380 b 350 568 256 530 296 568 b 445 456 405 568 445 529 b 350 341 445 380 405 341 m 133 797 l 271 797 l 345 906 l 350 906 l 426 797 l 563 797 l 430 1005 l 267 1005 l 133 797 "},"Ω":{"x_min":58.328125,"x_max":951.390625,"ha":1011,"o":"m 58 0 l 443 0 l 443 134 b 290 486 340 218 290 333 b 505 756 290 650 373 756 b 720 486 637 756 720 650 b 568 134 720 333 669 218 l 568 0 l 951 0 l 951 165 l 794 165 l 794 170 b 930 498 854 231 930 350 b 505 933 930 770 758 933 b 80 498 252 933 80 770 b 216 170 80 350 155 231 l 216 165 l 58 165 l 58 0 "},"s":{"x_min":28.78125,"x_max":576.015625,"ha":615,"o":"m 28 79 b 292 -16 98 22 202 -16 b 576 205 477 -16 576 80 b 389 412 576 331 477 380 b 255 500 319 438 255 455 b 332 554 255 534 280 554 b 478 495 381 554 428 531 l 570 618 b 327 705 510 662 432 705 b 63 490 167 705 63 618 b 245 287 63 376 162 319 b 385 193 316 259 385 238 b 298 134 385 156 359 134 b 120 206 239 134 182 159 l 28 79 "},"ǚ":{"x_min":82.40625,"x_max":699.078125,"ha":789,"o":"m 82 261 b 296 -16 82 88 146 -16 b 512 95 390 -16 454 26 l 517 95 l 532 0 l 699 0 l 699 688 l 494 688 l 494 233 b 372 156 454 179 424 156 b 286 287 312 156 286 188 l 286 688 l 82 688 l 82 261 m 308 1023 l 481 1023 l 600 1177 l 461 1177 l 397 1097 l 392 1097 l 328 1177 l 190 1177 l 308 1023 m 257 793 b 343 877 307 793 343 830 b 257 963 343 926 307 963 b 171 877 207 963 171 926 b 257 793 171 830 207 793 m 532 793 b 618 877 582 793 618 830 b 532 963 618 926 582 963 b 446 877 482 963 446 926 b 532 793 446 830 482 793 "},"̀":{"x_min":-206.828125,"x_max":114,"ha":0,"o":"m -34 797 l 114 797 l -9 1005 l -206 1005 l -34 797 "},"?":{"x_min":57.53125,"x_max":584.84375,"ha":643,"o":"m 214 320 l 393 320 b 584 709 376 486 584 537 b 310 947 584 873 466 947 b 57 820 207 947 120 895 l 170 718 b 296 781 207 755 245 781 b 389 694 351 781 389 751 b 214 320 389 590 186 511 m 181 111 b 303 -16 181 38 232 -16 b 426 111 373 -16 426 38 b 303 240 426 184 373 240 b 181 111 232 240 181 184 "},"₆":{"x_min":50.5,"x_max":472.015625,"ha":522,"o":"m 273 -255 b 188 -147 233 -255 196 -224 b 268 -108 214 -120 242 -108 b 339 -181 314 -108 339 -134 b 273 -255 339 -233 308 -255 m 462 148 b 302 205 430 176 380 205 b 50 -84 142 205 50 87 b 280 -369 50 -256 133 -369 b 472 -177 388 -369 472 -287 b 302 -6 472 -73 406 -6 b 188 -54 260 -6 219 -23 b 312 91 197 36 233 91 b 404 55 350 91 377 75 l 462 148 "},"ỡ":{"x_min":50.4375,"x_max":753.109375,"ha":771,"o":"m 511 985 b 464 924 501 941 487 924 b 299 985 422 924 372 985 b 156 798 226 985 169 924 l 260 798 b 308 860 269 843 283 860 b 472 798 349 860 399 798 b 615 985 546 798 601 860 l 511 985 m 386 148 b 260 343 301 148 260 224 b 386 539 260 463 301 539 b 512 343 469 539 512 463 b 386 148 512 224 469 148 m 574 824 b 594 760 583 809 594 785 b 518 678 594 709 562 688 b 386 705 476 695 432 705 b 50 343 211 705 50 573 b 386 -17 50 114 211 -17 b 721 343 560 -17 721 114 b 618 610 721 459 680 549 b 753 774 696 632 753 685 b 712 885 753 820 733 860 l 574 824 "},"Ņ":{"x_min":106.625,"x_max":816.375,"ha":924,"o":"m 106 0 l 301 0 l 301 320 b 276 648 301 427 284 548 l 281 648 l 370 451 l 606 0 l 816 0 l 816 905 l 621 905 l 621 586 b 646 255 621 479 638 351 l 641 255 l 552 455 l 316 905 l 106 905 l 106 0 m 427 -58 l 388 -133 b 448 -184 430 -144 448 -158 b 334 -236 448 -216 401 -229 l 349 -318 b 595 -175 480 -311 595 -269 b 427 -58 595 -105 552 -70 "},"Ī":{"x_min":12.5,"x_max":405.5625,"ha":418,"o":"m 106 0 l 311 0 l 311 905 l 106 905 l 106 0 m 12 1000 l 405 1000 l 405 1129 l 12 1129 l 12 1000 "},"•":{"x_min":55.5625,"x_max":423.609375,"ha":479,"o":"m 238 170 b 423 363 343 170 423 254 b 238 556 423 475 343 556 b 55 363 136 556 55 475 b 238 170 55 254 136 170 "},"(":{"x_min":100,"x_max":411.109375,"ha":478,"o":"m 283 -249 l 411 -196 b 265 385 309 -15 265 188 b 411 967 265 582 309 786 l 283 1020 b 100 385 166 829 100 629 b 283 -249 100 141 166 -58 "},"◊":{"x_min":72.078125,"x_max":689,"ha":761,"o":"m 297 -13 l 463 -13 l 689 458 l 463 930 l 297 930 l 72 458 l 297 -13 m 377 156 l 302 325 l 240 458 l 302 591 l 377 759 l 383 759 l 458 591 l 520 458 l 458 325 l 383 156 l 377 156 "},"■":{"x_min":75,"x_max":404.171875,"ha":479,"o":"m 75 197 l 404 197 l 404 531 l 75 531 l 75 197 "},"Ỗ":{"x_min":64.25,"x_max":886.75,"ha":950,"o":"m 475 -16 b 886 456 720 -16 886 161 b 475 922 886 751 719 922 b 64 456 230 922 64 752 b 475 -16 64 161 230 -16 m 475 159 b 273 456 351 159 273 275 b 475 745 273 637 351 745 b 676 456 598 745 676 637 b 475 159 676 275 598 159 m 255 975 l 400 975 l 472 1051 l 477 1051 l 550 975 l 696 975 l 564 1133 l 387 1133 l 255 975 m 358 1183 b 408 1236 366 1220 385 1236 b 554 1183 447 1236 487 1183 b 682 1341 615 1183 670 1233 l 591 1341 b 541 1287 584 1304 565 1287 b 397 1341 502 1287 464 1341 b 268 1183 335 1341 279 1291 l 358 1183 "},"Ħ":{"x_min":34.71875,"x_max":954.171875,"ha":989,"o":"m 651 556 l 338 556 l 338 675 l 651 675 l 651 556 m 954 773 l 856 773 l 856 905 l 651 905 l 651 773 l 338 773 l 338 905 l 134 905 l 134 773 l 34 765 l 34 675 l 134 675 l 134 0 l 338 0 l 338 377 l 651 377 l 651 0 l 856 0 l 856 675 l 954 675 l 954 773 "},"⁹":{"x_min":48.96875,"x_max":472.5,"ha":522,"o":"m 253 908 b 182 981 208 908 182 934 b 247 1055 182 1033 212 1055 b 335 948 287 1055 325 1026 b 253 908 308 920 282 908 m 60 651 b 219 594 92 623 140 594 b 472 884 379 594 472 712 b 241 1169 472 1056 389 1169 b 48 977 133 1169 48 1087 b 218 806 48 873 114 806 b 335 854 262 806 303 823 b 210 708 325 763 289 708 b 118 744 172 708 144 724 l 60 651 "},"Û":{"x_min":101.6875,"x_max":821.140625,"ha":924,"o":"m 101 419 b 464 -16 101 115 229 -16 b 821 419 697 -16 821 115 l 821 905 l 623 905 l 623 398 b 464 159 623 220 565 159 b 307 398 362 159 307 220 l 307 905 l 101 905 l 101 419 m 385 975 l 458 1059 l 464 1059 l 539 975 l 694 975 l 561 1141 l 362 1141 l 229 975 l 385 975 "},"V":{"x_min":-9.671875,"x_max":782,"ha":772,"o":"m 263 0 l 509 0 l 782 905 l 573 905 l 466 483 b 394 193 440 384 420 293 l 388 193 b 315 483 361 293 343 384 l 207 905 l -9 905 l 263 0 "},"Ầ":{"x_min":-8,"x_max":805,"ha":796,"o":"m 724 1069 l 628 1236 l 471 1236 l 607 1069 l 724 1069 m 390 1051 l 396 1051 l 468 975 l 613 975 l 482 1133 l 306 1133 l 174 975 l 318 975 l 390 1051 m 297 375 l 319 458 b 390 750 345 548 368 654 l 396 750 b 470 458 420 655 445 548 l 490 375 l 297 375 m 588 0 l 805 0 l 521 905 l 275 905 l -8 0 l 200 0 l 256 215 l 532 215 l 588 0 "},"⸢":{"x_min":120.828125,"x_max":413.890625,"ha":478,"o":"m 120 386 l 273 386 l 273 875 l 413 875 l 413 983 l 120 983 l 120 386 "},"Ŗ":{"x_min":106.828125,"x_max":826.453125,"ha":856,"o":"m 365 -133 b 426 -184 406 -144 426 -158 b 311 -236 426 -216 377 -229 l 326 -318 b 572 -175 458 -311 572 -269 b 405 -58 572 -105 529 -70 l 365 -133 m 311 743 l 416 743 b 581 623 523 743 581 712 b 416 488 581 534 523 488 l 311 488 l 311 743 m 620 362 b 782 623 718 405 782 490 b 433 905 782 838 625 905 l 106 905 l 106 0 l 311 0 l 311 326 l 423 326 l 597 0 l 826 0 l 620 362 "}}}
